<?xml version="1.0" encoding="utf-8"?>
<!-- Generator: Adobe Illustrator 23.0.2, SVG Export Plug-In . SVG Version: 6.00 Build 0)  -->
<svg version="1.1" id="Layer_1" xmlns="http://www.w3.org/2000/svg" xmlns:xlink="http://www.w3.org/1999/xlink" x="0px" y="0px"
	 viewBox="0 0 1920 1080" style="enable-background:new 0 0 1920 1080;" xml:space="preserve">
<style type="text/css">
	.st0{opacity:0.1;}
	.st1{opacity:0.5;}
	.st2{opacity:0.6;fill:url(#SVGID_1_);}
	.st3{opacity:0.6;fill:url(#SVGID_2_);}
</style>
<g class="st0">
	<g class="st1">
		
			<linearGradient id="SVGID_1_" gradientUnits="userSpaceOnUse" x1="-166.2203" y1="951.6083" x2="2280.9509" y2="951.6083" gradientTransform="matrix(1 0 0 1 -1.3333 0)">
			<stop  offset="0" style="stop-color:#4D44E8"/>
			<stop  offset="1" style="stop-color:#8C5DE9"/>
		</linearGradient>
		<path class="st2" d="M1801.77,922.2c-88.12,60.81-184.25,135.43-291.06,93.97c-93.46-38.7-181.58-93.97-282.29-98.52
			c-19.3-0.66-39.03-0.06-59.5,1.78c-122.83,11.06-269.7,91.21-443.26,73.07c-173.57-18.14-256.34-147.7-456.69-175.34
			c-111.16-15.34-197.59,30.6-278.5,103.33V1089h1939.07V874.55C1884.99,879.55,1840.9,895.99,1801.77,922.2z"/>
	</g>
	<g>
		
			<linearGradient id="SVGID_2_" gradientUnits="userSpaceOnUse" x1="3.2186" y1="1027.6387" x2="1917.0082" y2="1027.6387" gradientTransform="matrix(1 0 0 1 -1.3333 0)">
			<stop  offset="0" style="stop-color:#4D44E8"/>
			<stop  offset="1" style="stop-color:#8C5DE9"/>
		</linearGradient>
		<path class="st3" d="M1915.67,1089c-14.18-8.94-28.63-17.64-42.76-26.3c-8.44-5.09-16.99-10.14-25.7-15.06
			c-8.72-4.92-17.6-9.71-26.71-14.31c-14.88-7.51-30.38-14.48-46.82-20.43c-68.82-29.26-160.7-25.55-231.7,1.61
			c-68.91,27.16-144.09,60.49-227.62,41.97c-73.09-17.28-142-41.97-220.77-44c-15.09-0.3-30.52-0.03-46.53,0.8
			c-96.06,4.94-210.91,40.74-346.65,32.63c-135.74-8.1-200.47-65.96-357.15-78.31C199.14,956.24,108.18,1020.09,1.89,1089H1915.67z"
			/>
	</g>
</g>
</svg>
