<svg xmlns="http://www.w3.org/2000/svg" viewBox="0 0 98 98"><path fill="#FFBF41" d="M20.4 20.6c-.3.8-.6 1.6-1 2.4-.2.5.7.8.9.2.3-.8.6-1.6 1-2.4.2-.5-.7-.8-.9-.2zM22 19.9c-.8 1.7-1.5 3.4-2.3 5.1-.2.5.5 1 .8.5.8-1.7 1.5-3.4 2.3-5.1.2-.6-.6-1-.8-.5z"/><path fill="#FFBF41" d="M23 19.8c-1 1.9-1.9 4-2.6 6-.2.5.7.8.9.2.7-2 1.6-3.9 2.5-5.8.2-.5-.5-.9-.8-.4z"/><path fill="#FFBF41" d="M21.8 24.5c-.2.9-.5 1.9-.8 2.8-.2.5.7.8.9.2.3-.9.6-1.8.8-2.8.1-.6-.8-.8-.9-.2z"/><path fill="#FFBF41" d="M21.7 28.6c.3-.5.7-1 1.1-1.4.4-.4-.2-1-.6-.6-.5.5-.9 1-1.2 1.5-.4.5.4 1 .7.5z"/><path fill="#FFBF41" d="M21.9 29.5c.4-.4.9-.8 1.3-1.2.4-.4-.2-1-.6-.6-.4.4-.9.8-1.3 1.2-.5.4.1 1 .6.6z"/><path fill="#FFBF41" d="M22.2 30.3c.4-.5.8-.9 1.4-1.2.5-.3.1-1.1-.5-.8-.6.3-1.1.8-1.6 1.3-.3.5.3 1.1.7.7z"/><path fill="#29ADFF" d="M24.3 22.4c.7-1.3 1.9-2 3.3-2.1.6 0 .6-.9 0-.9-1.7 0-3.3 1-4.1 2.5-.3.5.5 1 .8.5z"/><path fill="#29ADFF" d="M23.8 24c1.3-2.1 4.2-2.4 5.9-4.1.4-.4-.2-1-.6-.6-1.8 1.8-4.6 2-6 4.2-.4.5.4 1 .7.5z"/><path fill="#29ADFF" d="M29.3 19.6c-1.3 2.8-5.2 2.9-6.5 5.8-.2.5.5 1 .8.5 1.3-2.8 5.2-2.8 6.5-5.8.3-.5-.5-1-.8-.5z"/><path fill="#29ADFF" d="M23.7 27.3c1.7-3 5.8-3.6 7.3-6.9.2-.5-.5-1-.8-.5-1.4 3.2-5.5 3.9-7.3 6.9-.3.5.5 1 .8.5z"/><path fill="#29ADFF" d="M30.6 20c-.9 2.1-2.4 3.7-4.3 4.9-1.3.9-2.6 1.7-3.1 3.3-.2.6.7.8.9.2.6-2 2.9-2.8 4.4-4 1.3-1.1 2.2-2.4 2.9-3.9.2-.6-.5-1-.8-.5z"/><path fill="#29ADFF" d="M24.7 29.2c.8-2.5 3.6-3.1 5.4-4.6 1.4-1.1 2.3-2.6 2.9-4.2.2-.5-.7-.8-.9-.2-.9 2.7-2.8 4-5.2 5.4-1.4.8-2.6 1.8-3.1 3.4-.2.5.7.7.9.2z"/><path fill="#29ADFF" d="M32.6 21c-.7 3.8-5.2 4.9-7.2 7.8-.3.5.5.9.8.5 2.1-3 6.6-4 7.3-8 0-.7-.8-.9-.9-.3z"/><path fill="#29ADFF" d="M26.7 29.9c1.2-1.8 3.3-2.5 4.9-3.9 1.3-1.1 2.3-2.4 2.6-4 .1-.6-.7-.8-.9-.2-1 4-5.3 4.7-7.5 7.7-.3.5.5.9.9.4z"/><path fill="#29ADFF" d="M33.7 21.7c-.2 2.6-1.7 4.2-3.8 5.5-1.2.8-2.2 1.7-2.5 3.2-.1.6.8.8.9.2.5-2.3 3.3-3 4.7-4.8 1-1.2 1.5-2.7 1.6-4.2 0-.5-.9-.5-.9.1z"/><path fill="#29ADFF" d="M29.5 30.4c.4-1.5 2.8-1.8 3.8-2.9.9-1 1.3-2.4 1.7-3.6.2-.6-.7-.8-.9-.2-.6 1.8-1.2 3.5-3.1 4.4-1.1.5-2.1.9-2.5 2.2 0 .5.9.7 1 .1z"/><path fill="#29ADFF" d="M34.2 23.4c-.6 1.8-1.3 3.8-2.7 5.1-.8.7-2.2.9-1.9 2.2.1.6 1 .3.9-.2-.1-.4 1.1-.8 1.4-1.1.5-.4 1-.9 1.4-1.4.9-1.3 1.4-2.8 1.9-4.3.1-.6-.8-.8-1-.3z"/><path fill="#29ADFF" d="M32.1 30.5c.5-1 1.7-1.3 2.3-2.3.3-.5-.5-.9-.8-.5-.6.9-1.8 1.2-2.3 2.3-.2.6.6 1.1.8.5z"/><path fill="#A3B81F" d="M27.6 18.8c2.8-.2 5.4.5 7.7 2 .5.3.9-.5.5-.8-2.5-1.6-5.3-2.3-8.2-2.1-.5.1-.6 1 0 .9z"/><path fill="#A3B81F" d="M36.2 19.8c-1.9-1.7-4.1-3.1-6.7-2.5-.6.1-.3 1 .2.9 2.3-.5 4.3.8 5.9 2.3.4.4 1-.3.6-.7z"/><path fill="#A3B81F" d="M31.5 17.3c1.8.4 3.4 1.1 5 2.1.5.3.9-.5.5-.8-1.6-1.1-3.3-1.8-5.2-2.2-.6-.1-.9.8-.3.9z"/><path fill="#A3B81F" d="M33.5 17c1.7.4 3.2 1.2 4.6 2.4.4.4 1.1-.3.6-.6-1.5-1.3-3.1-2.1-5-2.6-.6-.2-.8.7-.2.8z"/><path fill="#A3B81F" d="M34.4 16.4c1.9.6 3.6 1.4 5.2 2.5.5.3.9-.5.5-.8-1.7-1.1-3.5-2-5.4-2.6-.6-.1-.9.8-.3.9z"/><path fill="#A3B81F" d="M40.4 17.5c-1.1-1.3-2.6-2.2-4.3-2.5-.6-.1-.8.8-.2.9 1.6.3 2.9 1.1 3.9 2.3.3.4.9-.2.6-.7z"/><path fill="#A3B81F" d="M38.5 15.7c1.1.3 2 1 2.7 1.9.4.5 1-.2.6-.6-.8-1-1.9-1.7-3.1-2.1-.5-.2-.7.7-.2.8z"/><path fill="#A3B81F" d="M42.5 16.4c-1-1.3-2.3-2.5-4.1-2.2-.6.1-.3 1 .2.9 1.4-.2 2.4 1 3.2 1.9.4.5 1.1-.1.7-.6z"/><path fill="#A3B81F" d="M41.2 14.9c.9.4 1.6 1 2 1.8.3.5 1.1.1.8-.5-.6-1-1.5-1.8-2.6-2.2-.5-.2-.7.7-.2.9z"/><path fill="#A3B81F" d="M44.7 15.4c-.7-.9-2-2.4-3.3-2.1-.6.1-.3 1 .2.9.4-.1 1 .4 1.3.7.3.3.7.6.9 1 .5.4 1.2 0 .9-.5zM44 13.6c.2.3.5.6.8.8.4.3.8.5.9.9.1.6 1 .3.9-.2-.2-1-1.3-1.2-1.8-2-.3-.4-1.1 0-.8.5z"/><path fill="#A3B81F" d="M46.9 14.2c-.6-.7-1.3-1.3-2.1-1.7-.5-.3-1 .5-.5.8.7.4 1.4.9 1.9 1.5.4.5 1-.2.7-.6zM43.7 14.3c.4.2.7.6.8 1 .2.6 1 .3.9-.2-.2-.7-.6-1.2-1.2-1.5-.5-.3-1 .4-.5.7z"/><path fill="#A3B81F" d="M47.8 14.6c-.4-.7-.9-1.2-1.6-1.7-.5-.4-.9.4-.5.8.5.4.9.8 1.2 1.4.5.5 1.2 0 .9-.5z"/><path fill="#A3B81F" d="M47.1 13.6c.4.2.7.5.9.9.3.5 1.1 0 .8-.5-.3-.5-.7-.9-1.3-1.2-.5-.3-.9.5-.4.8z"/><path fill="#A3B81F" d="M49.4 13.6c-.4-.5-.8-1-1.4-1.3-.5-.3-1 .5-.5.8.4.2.8.6 1.1 1 .3.4 1.1-.1.8-.5zM49 12.8c.4.2.9.4 1.3.6.5.3 1-.5.5-.8-.5-.3-1-.5-1.5-.7-.6-.2-.8.7-.3.9z"/><path fill="#A3B81F" d="M49.6 13.1c-.4-.3-.9-.5-1.3-.8-.5-.3-.9.5-.5.8.4.3.9.5 1.3.8.5.3 1-.5.5-.8zM50.1 12.9c.1.1.2.1.3.2.4.4 1.1-.3.6-.6-.1-.1-.2-.1-.3-.2-.4-.5-1.1.2-.6.6z"/><path fill="#B34949" d="M51 14.3c1 .6 1.9 1.3 2.7 2.2.4.4 1-.2.6-.6-.8-.9-1.8-1.7-2.9-2.3-.4-.4-.9.4-.4.7z"/><path fill="#B34949" d="M55 15.3c-.9-1.1-1.9-2.1-3.1-2.9-.5-.3-.9.5-.5.8 1 .7 2 1.6 2.7 2.6.5.4 1.3 0 .9-.5z"/><path fill="#B34949" d="M52.2 12.6c.8.5 1.7 1 2.5 1.5.5.3 1-.5.5-.8-.9-.5-1.7-1-2.5-1.5-.5-.3-1 .5-.5.8zM54.8 12l-1.2-1.2c-.4-.4-1.1.2-.6.6l1.2 1.2c.4.4 1-.2.6-.6z"/><path fill="#FFBF41" d="M35.7 22.5c4.9-3 9.9-5.4 15.3-7.3.5-.2.3-1.1-.2-.9-5.4 1.9-10.6 4.4-15.5 7.4-.6.3-.1 1.1.4.8z"/><path fill="#FFBF41" d="M50.8 15c-5.1 2.5-10.8 4.6-15.4 8.1-.5.3 0 1.1.5.8 4.6-3.5 10.3-5.6 15.4-8.1.5-.2 0-1-.5-.8z"/><path fill="#FFBF41" d="M35.7 25.1c5.1-3.8 11.5-5 16.7-8.6.5-.3 0-1.1-.5-.8-5.2 3.6-11.6 4.8-16.7 8.6-.4.3 0 1.1.5.8z"/><path fill="#FFBF41" d="M51.8 16.9c-5.7 3.2-11.5 6.3-17.2 9.5-.5.3-.1 1.1.5.8 5.7-3.2 11.5-6.3 17.2-9.5.4-.3 0-1.1-.5-.8z"/><path fill="#FFBF41" d="M35.4 28c5.7-4 11.9-6.9 18.7-8.8.6-.2.3-1-.2-.9-6.8 1.9-13.1 4.9-18.9 8.9-.5.4 0 1.2.4.8z"/><path fill="#FFBF41" d="M52.5 17.5c-1.3.6-2.6 1.1-4 1.4-.6.1-.3 1 .2.9 1.5-.3 2.9-.8 4.2-1.5.6-.3.2-1.1-.4-.8zM34.4 31c2.1-3.5 5.7-4.8 9.2-6.6 3.5-1.9 6.6-4 10.7-3.8.6 0 .6-.9 0-.9-4.3-.2-7.5 2-11.2 3.9-3.6 1.9-7.3 3.3-9.5 6.9-.2.6.5 1 .8.5z"/><path fill="#FFBF41" d="M54 20.1c-7.3 2.1-12.9 5.6-18.7 10.4-.4.4.2 1 .6.6 5.8-4.8 11.1-8 18.3-10.1.6-.2.4-1.1-.2-.9z"/><path fill="#FFBF41" d="M36 31.8c4.7-3.3 11.1-8.4 16.9-9.1.6-.1.6-1 0-.9-6.2.8-12.4 5.8-17.4 9.2-.4.4 0 1.2.5.8z"/><path fill="#FFBF41" d="M54.5 21.5l-3 .3c-.6.1-.3 1 .2.9.9-.2 1.8-.3 2.7-.3.7 0 .7-.9.1-.9z"/><path fill="#FFBF41" d="M39 30.9c4.5-3.3 10.2-7.1 15.8-7.5.6 0 .6-.9 0-.9-5.9.4-11.7 4.2-16.3 7.6-.4.4.1 1.2.5.8z"/><path fill="#FFBF41" d="M54.2 23.5c-4.8 2.3-9.9 4.3-14.2 7.3-.5.3 0 1.1.5.8 4.3-3.1 9.4-5.1 14.2-7.3.4-.3 0-1-.5-.8z"/><path fill="#FFBF41" d="M40.4 31.3c3.5-3.6 7.9-5.9 12.9-6.7.6-.1.3-1-.2-.9-5.1.8-9.7 3.2-13.3 7-.4.4.2 1 .6.6zM42.4 31.6c4.2-1.5 7.5-4.8 12-5.5.6-.1.3-1-.2-.9-4.5.7-7.8 4-12 5.5-.6.2-.3 1.1.2.9z"/><path fill="#FFBF41" d="M53.8 26.7c-4.2 1.6-8.2 3.9-12.4 5.5-.5.2-.3 1.1.2.9 4.2-1.5 8.1-3.9 12.4-5.5.6-.2.4-1.1-.2-.9z"/><path fill="#FFBF41" d="M42 34.5c4.1-1.7 7.6-4.8 12.1-5.5.6-.1.3-1-.2-.9-4.5.7-8 3.8-12.1 5.5-.6.2-.3 1.1.2.9z"/><path fill="#FFBF41" d="M53.3 29c-4 1.6-7.6 4.3-11.9 5-.6.1-.3 1 .2.9 4.3-.7 7.9-3.4 11.9-5 .6-.3.3-1.1-.2-.9z"/><path fill="#FFBF41" d="M41.7 36c4.6-1.1 8.1-4.6 12.6-6 .6-.2.3-1-.2-.9-4.5 1.4-8 4.8-12.6 6-.6.2-.3 1 .2.9z"/><path fill="#FFBF41" d="M42.5 36.5c4.9 1 7.4-4.4 11.9-5 .6-.1.3-.9-.2-.9-4.3.6-6.9 5.9-11.4 5-.6-.1-.8.7-.3.9z"/><path fill="#FFBF41" d="M53.8 31.7c-1.5.5-2.7 1.4-3.9 2.4-2.2 1.7-4.3 2.7-7.1 2.5-.6 0-.6.9 0 .9 1.9.1 3.7-.2 5.4-1.1 2.1-1.1 3.6-3.1 5.9-3.9.5-.1.2-1-.3-.8z"/><path fill="#FFBF41" d="M41.6 38.1c4.6 2 8.7-3.4 12.7-4.9.5-.2.3-1.1-.2-.9-3.5 1.3-8.1 6.7-12 4.9-.6-.1-1 .7-.5.9z"/><path fill="#FFBF41" d="M53.8 33.2c-3.6 1.9-6.6 5-10.9 5.1-.6 0-.6.9 0 .9 4.5-.1 7.6-3.3 11.3-5.2.6-.3.1-1.1-.4-.8z"/><path fill="#FFBF41" d="M43.1 39.9c1.4.8 2.9.3 4.3-.5 2.5-1.5 4.3-3.9 7.4-4.1.6 0 .6-.9 0-.9-1.7.1-3 .8-4.4 1.7-1.7 1.2-4.5 4.3-6.8 3-.5-.2-1 .5-.5.8z"/><path fill="#FFBF41" d="M45.1 40.8c1.2 1.1 2.6 1 4 .2.9-.5 1.5-1.3 2.2-2 1-1 2-1.9 3.2-2.6.5-.3 0-1.1-.5-.8-1.1.7-2.1 1.5-3 2.4-1.3 1.3-3.2 4.1-5.3 2.3-.4-.5-1.1.1-.6.5z"/><path fill="#FFBF41" d="M53.7 35.8c-2.9.7-4.8 3.6-7.9 3.6-.6 0-.6.9 0 .9 3.2 0 5.1-2.9 8.1-3.6.6-.2.3-1.1-.2-.9z"/><path fill="#FFBF41" d="M45.2 41.3c1.6.6 3.4.5 4.9-.3 1.9-1 2.8-2.9 4.5-4.1.5-.3 0-1.1-.5-.8-1.1.8-1.9 2-2.9 2.9-1.6 1.5-3.7 2.2-5.9 1.4-.4-.2-.6.7-.1.9z"/><path fill="#FFBF41" d="M53.5 36.3c-1.2.3-2.3.8-3.5 1.3-1 .5-3.2 2.2-4.3 1.8-.5-.2-.8.7-.2.9 1.2.4 2.1-.3 3.1-.9 1.6-.9 3.4-1.6 5.2-2.2.5-.2.3-1-.3-.9z"/><path fill="#FFBF41" d="M46.2 40.6c1.8-.2 3.5-.9 4.9-2.2.4-.4-.2-1-.6-.6-1.2 1.1-2.6 1.7-4.2 1.9-.7.1-.7 1-.1.9z"/><path fill="#009142" d="M22.2 32.4c1.1-.5 2.2-1.1 3.2-1.8.5-.3 0-1.1-.5-.8-1 .7-2.1 1.3-3.2 1.8-.4.3 0 1.1.5.8zM22 33.7c1.7-.7 3.2-1.6 4.7-2.7.5-.4-.2-1-.6-.6-1.3 1-2.7 1.9-4.3 2.5-.6.2-.4 1 .2.8z"/><path fill="#009142" d="M22.7 34.5c1.1-.4 2.1-.9 3.1-1.6.5-.3 0-1.1-.5-.8-.9.6-1.8 1.1-2.8 1.5-.6.2-.4 1.1.2.9z"/><path fill="#009142" d="M24.4 34.5c1.7-.6 2.4-2.5 3.9-3.2.5-.3.1-1-.5-.8-1.5.7-2.1 2.6-3.7 3.1-.5.2-.2 1.1.3.9z"/><path fill="#009142" d="M26 34.3c.8-.2 1.3-.7 1.8-1.4.7-.9 1.5-1.3 2.5-1.6.6-.2.3-1-.2-.9-.8.2-1.6.5-2.3 1-.7.6-1.1 1.6-2.1 1.9-.5.3-.2 1.2.3 1z"/><path fill="#009142" d="M28.3 33.4c.7 0 1.3-.3 1.8-.7.7-.5 1.3-1.3 2.2-1.3.6 0 .6-.9 0-.9-.7 0-1.2.3-1.8.7-.7.5-1.3 1.3-2.2 1.3-.6 0-.6.9 0 .9z"/><path fill="#009142" d="M32.7 30.8c-.7.4-1.4.7-2.2 1-.5.2-.3 1.1.2.9.8-.3 1.6-.7 2.4-1.1.6-.3.1-1.1-.4-.8zM48.8 43.5c2.2.1 3.8-1.4 5.2-2.9.4-.4-.2-1.1-.6-.6-1.2 1.3-2.6 2.8-4.6 2.7-.5-.2-.5.7 0 .8z"/><path fill="#009142" d="M48.5 44.3c1.8 1.3 4.5-.8 5.8-2.1.4-.4-.2-1-.6-.6-1 .9-3.3 3-4.7 2-.5-.5-1 .3-.5.7z"/><path fill="#009142" d="M48.3 45.2c2 1.2 4.4.8 5.9-1 .4-.4-.3-1.1-.6-.6-1.2 1.5-3.1 1.9-4.8.9-.5-.4-1 .4-.5.7z"/><path fill="#009142" d="M48.3 46.1c1.7 1.9 4.2.9 6.1-.1.5-.3.1-1-.5-.8-1.5.8-3.6 1.8-5.1.2-.3-.4-.9.2-.5.7z"/><path fill="#009142" d="M48.4 47.4c1.8 1.1 4 1.1 5.8.1.5-.3.1-1.1-.5-.8-1.6.9-3.4.8-4.9-.1-.5-.3-.9.5-.4.8z"/><path fill="#009142" d="M48.6 48.8c1.8.6 3.7.6 5.5.1.5-.2.3-1-.2-.9-1.7.6-3.4.5-5-.1-.6-.2-.8.7-.3.9z"/><path fill="#009142" d="M48.9 50.1c1.7.4 3.4.2 5-.4.5-.2.1-1-.5-.8-1.4.6-2.9.7-4.3.4-.6-.2-.8.7-.2.8z"/><path fill="#009142" d="M48.8 50.9c1.6 1.3 3.6.7 5.3-.1.5-.2.1-1-.5-.8-1.3.6-3 1.3-4.2.2-.4-.3-1.1.3-.6.7z"/><path fill="#009142" d="M49.3 52.4c1.5 1 3.2.4 4.7-.3.5-.2.1-1-.5-.8-1.2.5-2.6 1.1-3.8.3-.4-.3-.8.5-.4.8z"/><path fill="#009142" d="M49.7 53.6c1.2 1.1 2.7.5 3.9-.3.5-.3 0-1.1-.5-.8-.8.5-2 1.1-2.8.4-.4-.3-1.1.4-.6.7z"/><path fill="#009142" d="M50 55.1c1.3.6 2.7.5 3.8-.5.4-.4-.2-1-.6-.6-.8.6-1.9.8-2.8.3-.4-.3-.9.5-.4.8z"/><path fill="#009142" d="M51.3 56.5c.7 0 1.3-.1 2-.5.5-.3.1-1.1-.5-.8-.5.3-1 .4-1.5.3-.5 0-.5.9 0 1z"/><path fill="#009142" d="M51.8 57.3c.5-.2 1-.4 1.4-.6.5-.3.1-1.1-.5-.8-.4.2-.8.4-1.2.5-.5.2-.3 1.1.3.9zM52.7 58.2c.1-.1.2-.1.3-.2.5-.3.1-1-.5-.8-.1.1-.2.1-.3.2-.5.3 0 1 .5.8z"/><path fill="#FF634D" d="M43.8 41.9c.2-.3.4-.5.7-.7.5-.3 0-1.1-.5-.8-.4.3-.7.6-1 1-.3.5.5 1 .8.5z"/><path fill="#FF634D" d="M44.2 42.7c.3-.4.6-.8 1-1.1.5-.3 0-1.1-.5-.8-.5.4-.9.7-1.2 1.2-.3.5.3 1.1.7.7z"/><path fill="#FF634D" d="M44.5 43.4c.4-.4.8-.7 1.3-1 .5-.3 0-1.1-.5-.8-.5.3-1 .7-1.5 1.2-.4.3.3 1 .7.6zM44.8 44.5c.7-.5 1.4-1.1 2-1.6.5-.4-.2-1-.6-.6-.7.5-1.4 1.1-2 1.6-.5.3.1.9.6.6zM44.9 46.1c1-.9 2-1.9 3-2.9.4-.4-.2-1.1-.6-.6-.9 1-1.9 2-3 2.9-.5.4.2 1 .6.6zM45 47.6c1-1.1 2-2.2 3.4-2.9.5-.3.1-1-.5-.8-1.4.7-2.5 1.9-3.6 3.1-.3.4.3 1 .7.6z"/><path fill="#FF634D" d="M45.2 49.1c.6-.5 1.1-1.1 1.7-1.6.2-.3.5-.6.7-.8.1-.2.4-.6.6-.6.6-.1.3-.9-.2-.9-.6.1-1.1 1-1.5 1.4-.6.7-1.2 1.4-1.9 2-.5.3.2.9.6.5zM45.6 50.2c1.1-.5 1.5-1.9 2.6-2.2.5-.2.3-1-.2-.9-1.3.4-1.7 1.8-2.8 2.3-.5.3-.1 1.1.4.8z"/><path fill="#FF634D" d="M45.2 51.6c1.6 0 2.3-1.5 3.4-2.5.4-.4-.2-1-.6-.6-.8.8-1.4 2.3-2.7 2.3-.6-.1-.6.8-.1.8z"/><path fill="#FF634D" d="M44.7 53.1c2 .5 2.7-1.6 4-2.5.5-.3 0-1.1-.5-.8-1 .7-1.9 2.8-3.3 2.4-.5-.1-.7.7-.2.9z"/><path fill="#FF634D" d="M44.8 54.2c1.9.8 3.2-1 4.1-2.4.3-.5-.5-1-.8-.5-.6 1.1-1.6 2.6-3 2-.6-.1-.9.7-.3.9z"/><path fill="#FF634D" d="M45.3 55.6c.8.1 1.5 0 2.2-.4.7-.4 1-1.3 1.7-1.7.5-.3.1-1.1-.5-.8-.5.3-.8.7-1.1 1.2-.5.6-1.2.9-2 .8-.6-.1-.9.8-.3.9z"/><path fill="#48CFB1" d="M45.4 58.8c1.7-1.1 3.7-1.2 5.5-.4.5.2 1-.5.5-.8-2.1-1-4.4-.8-6.4.4-.6.3-.1 1.1.4.8z"/><path fill="#48CFB1" d="M44.7 60.6c2.2-1.7 5-2 7.5-.9.5.2 1-.5.5-.8-2.8-1.2-6-.9-8.4.9-.5.4-.1 1.1.4.8z"/><path fill="#48CFB1" d="M45.6 61.5c2.5-1.4 5.3-1.7 8-.7.5.2.8-.7.2-.9-2.9-1-6-.7-8.7.8-.4.3 0 1.1.5.8z"/><path fill="#48CFB1" d="M44.8 63.6c2.5-1.4 5.3-1.8 8.1-1.1.6.1.8-.7.2-.9-3-.8-6.1-.4-8.8 1.2-.4.4 0 1.1.5.8z"/><path fill="#48CFB1" d="M45.9 64.3c2.4-1.4 5-1.6 7.6-.7.5.2.8-.7.2-.9-2.8-1-5.8-.7-8.3.8-.5.3 0 1.1.5.8z"/><path fill="#48CFB1" d="M45.3 65.9c2.4-1.1 5-1.2 7.5-.3.5.2.8-.7.2-.9-2.7-1-5.6-.9-8.2.4-.4.3 0 1.1.5.8zM38 68.2c-1.3 3.4-1.9 6.9-1.8 10.5 0 .6.9.6.9 0 0-3.5.6-6.9 1.8-10.2.2-.6-.7-.8-.9-.3z"/><path fill="#48CFB1" d="M37.6 78.9c.1-3.5.3-7.5 2.7-10.2 2.5-2.7 8.4-4.3 11.6-1.9.5.4 1.1-.3.6-.6-3-2.3-8-1.6-11.1.3-4.2 2.6-4.6 8-4.8 12.4.1.6 1 .6 1 0z"/><path fill="#48CFB1" d="M38.4 78.2c.9-3.2 1.8-6.7 4.2-9.2 2.8-2.9 6.7-3.7 10.1-1.3.5.3.9-.4.5-.8-3.1-2.1-6.7-2.1-9.7.2C40 69.7 38.8 74 37.6 78c-.2.5.6.8.8.2z"/><path fill="#48CFB1" d="M38.6 78.8c2.6-5.7 7.2-12.2 14.4-10.4.6.1.8-.7.2-.9-7.6-1.9-12.6 4.8-15.4 10.9-.3.5.5.9.8.4z"/><path fill="#48CFB1" d="M39.7 79.3c2.4-5.6 7.3-10.5 13.9-9.4.6.1.8-.8.2-.9-7-1.1-12.3 3.8-14.9 9.8-.2.5.5 1 .8.5z"/><path fill="#48CFB1" d="M40.6 79.8c3.3-3.8 6.9-7.9 12.4-7.9.6 0 .6-.9 0-.9-5.7 0-9.5 4.1-13 8.1-.4.5.3 1.1.6.7z"/><path fill="#48CFB1" d="M42.8 79.9c2.3-2.7 4.7-5.6 8.4-6 .6-.1.6-1 0-.9-4 .5-6.6 3.4-9.1 6.3-.3.4.4 1.1.7.6z"/><path fill="#48CFB1" d="M42.4 81.7c1.5.7 2.9-.4 4-1.3 1.5-1.2 2.6-2.7 3.4-4.4.2-.5-.5-1-.8-.5-.6 1.2-1.3 2.3-2.2 3.3-.8.8-2.7 2.7-4 2.2-.5-.3-.9.5-.4.7z"/><path fill="#48CFB1" d="M42 80.9c4-.3 5.1-5.8 9.1-5.6.6 0 .6-.9 0-.9-4.2-.2-5.1 5.3-9.1 5.6-.5 0-.6.9 0 .9z"/><path fill="#48CFB1" d="M41.6 80.2c3.4-2.8 6.1-7.1 10.9-7.4.6 0 .6-.9 0-.9-5.1.3-7.9 4.7-11.5 7.7-.5.3.1 1 .6.6z"/><path fill="#48CFB1" d="M40.3 79.5c3.6-3.4 6.5-9.3 12.3-8.7.6.1.6-.8 0-.9-6.1-.6-9.1 5.3-12.9 9-.5.3.2 1 .6.6z"/><path fill="#48CFB1" d="M39.3 78.7c.9-2.9 1.8-6 3.9-8.2 2.3-2.4 5.5-3.1 8.8-2.8.6.1.6-.8 0-.9-3.2-.3-6.4.3-8.8 2.5-2.6 2.4-3.7 5.9-4.7 9.2-.2.6.7.8.8.2z"/><path fill="#48CFB1" d="M38.1 78.6c.3-3.5 1.7-9.3 5.3-10.8.5-.2.1-1-.5-.8-4 1.7-5.5 7.8-5.8 11.6.1.5 1 .5 1 0zM46.4 62.5c1.9-1.7 4.4-2.1 6.7-1 .5.2 1-.5.5-.8-2.7-1.3-5.6-.9-7.8 1.1-.4.5.2 1.1.6.7z"/><path fill="#48CFB1" d="M38.6 79.4c1.9-1.5 2.5-3.7 3.3-6 1.4-4.5 4.4-5.7 8.7-6.3.6-.1.3-.9-.2-.9-2.9.4-6.1 1-7.9 3.6-2 2.8-1.7 6.7-4.5 9-.5.4.1 1 .6.6z"/><path fill="#48CFB1" d="M39.8 79.7c3.3-4.7 7.1-9.8 13.2-10.6.6-.1.6-1 0-.9-6.5.9-10.5 6-14 11-.3.5.4.9.8.5z"/><path fill="#48CFB1" d="M52 68c-4.5.5-8.5 2.7-11.1 6.4-.3.5.4.9.8.5 2.5-3.4 6.2-5.6 10.4-6 .5 0 .5-.9-.1-.9zM41.3 80.7c3.4-.8 5.2-4 8.1-5.4.5-.3.1-1-.5-.8-2.9 1.4-4.7 4.6-7.9 5.3-.5.2-.2 1.1.3.9zM43.4 81.3c3.3-1 4.8-4.4 7.9-5.7.5-.2.1-1-.5-.8-3 1.3-4.5 4.7-7.6 5.6-.6.2-.4 1 .2.9z"/><path fill="#48CFB1" d="M40.1 75c2-3.9 4.9-7.9 9.7-8.1.6 0 .6-.9 0-.9-5.1.2-8.3 4.3-10.5 8.5-.3.6.5 1.1.8.5z"/><path fill="#48CFB1" d="M42.9 73c2.5-2.3 5.2-4.2 8.3-5.7.5-.3.1-1-.5-.8-3.1 1.5-5.9 3.5-8.5 5.8-.4.4.2 1.1.7.7zM46.4 65.2c2-1.2 4.1-1.8 6.4-1.8.6 0 .6-.9 0-.9-2.5 0-4.8.7-6.9 1.9-.5.3 0 1.1.5.8z"/><path fill="#29ADFF" d="M54 68.1c3.7-1.2 7.5-1.5 11.4-.8.6.1.8-.8.2-.9-4-.7-8-.5-11.9.8-.5.3-.3 1.1.3.9z"/><path fill="#29ADFF" d="M54.3 68.5c3.7-1 7.3-1.1 11.1-.3.6.1.8-.7.2-.9-3.9-.9-7.7-.8-11.5.3-.6.2-.3 1.1.2.9z"/><path fill="#29ADFF" d="M65.6 68.3c-2.7-.1-5.4-.1-8.1-.2-1.7 0-3.2 0-4.6 1-.5.3 0 1.1.5.8 1.7-1.2 4.1-.8 6.1-.8 2.1 0 4.1.1 6.2.1.5 0 .5-.9-.1-.9z"/><path fill="#29ADFF" d="M53.8 70.9c1.8-1.2 2.8-1.6 5.1-1.2 1 .2 1.9.5 2.8.7 1.7.2 3.4.2 5.1-.1.6-.1.3-.9-.2-.9-3.1.4-5.6-.4-8.5-.8-1.8-.2-3.2.6-4.7 1.5-.5.3-.1 1.1.4.8z"/><path fill="#29ADFF" d="M65.5 69.7c-2.7 1-5.4-.2-8.2.1-2 .2-3.8 1.1-5.3 2.5-.4.4.2 1 .6.6 2.5-2.2 5-2.4 8.2-2 1.7.2 3.2.3 4.8-.3.7-.2.5-1.1-.1-.9z"/><path fill="#29ADFF" d="M52.4 73.5c4.1-2.9 9.4-.3 13.9-2.3.5-.2.1-1-.5-.8-4.5 2-9.7-.6-13.9 2.3-.4.3 0 1.1.5.8z"/><path fill="#29ADFF" d="M66 70.7c-4.1 3.1-9.7.8-14 3.4-.5.3 0 1.1.5.8 4.3-2.6 9.8-.3 14-3.4.4-.4 0-1.1-.5-.8z"/><path fill="#29ADFF" d="M52.6 75.9c3-.9 5.9-1.6 9-1.9 1.9-.2 3.8-.1 5.4-1.2.5-.3 0-1.1-.5-.8-1.9 1.3-4.9 1-7.2 1.4-2.4.4-4.8 1-7.1 1.7-.4.1-.2 1 .4.8z"/><path fill="#29ADFF" d="M53.9 76.9c4-2.6 8.9-1.1 13.2-2.6.5-.2.3-1.1-.2-.9-4.4 1.6-9.3.1-13.4 2.7-.5.3-.1 1.1.4.8z"/><path fill="#29ADFF" d="M66.6 74.2c-4 2.5-9 .8-13 3.3-.5.3 0 1.1.5.8 4-2.5 9-.8 13-3.3.5-.4 0-1.1-.5-.8z"/><path fill="#29ADFF" d="M54.7 79c2.6-1.1 5.2-1.6 8-1.6 1.7-.1 3.3-.2 4.9-1.1.5-.3 0-1.1-.5-.8-2.1 1.2-4.6.8-6.9 1.1-2 .2-3.9.8-5.8 1.5-.5.2-.3 1.1.3.9z"/><path fill="#29ADFF" d="M56.7 80c3-1.8 6.7-.7 9.9-1.9.5-.2.3-1.1-.2-.9-3.3 1.2-7 .1-10.1 2-.5.3-.1 1.1.4.8z"/><path fill="#29ADFF" d="M65.3 78c-2.4 1.7-5.6 1-8.2 2.2-.5.3-.1 1 .5.8 2.6-1.3 5.7-.5 8.2-2.2.4-.4 0-1.2-.5-.8z"/><path fill="#A3B81F" d="M66.5 67.1c.3-.5.6-.8 1.1-1.1.5-.3.1-1.1-.5-.8-.6.3-1.1.8-1.4 1.4-.2.6.5 1 .8.5z"/><path fill="#A3B81F" d="M66.8 68c.5-.6 1.3-.8 1.9-1.1.6-.3 1.1-.7 1.5-1.2.3-.5-.5-1-.8-.5-.4.7-1.2.9-1.8 1.2-.6.3-1.1.6-1.5 1.1-.4.5.3.9.7.5z"/><path fill="#A3B81F" d="M69.9 65.4c-.4.7-1 1.3-1.7 1.8-.6.4-1.4.7-2 1.1-.5.3 0 1.1.5.8.7-.5 1.6-.8 2.3-1.4.7-.5 1.2-1.2 1.7-1.9.2-.4-.5-.9-.8-.4z"/><path fill="#A3B81F" d="M67 70.2c2.6-.1 3.3-2.8 5.1-4.1.5-.3 0-1.1-.5-.8-1.6 1.2-2.5 3.9-4.7 4-.5.1-.5 1 .1.9z"/><path fill="#A3B81F" d="M72.7 65.4c-1.9 1.7-3.8 3.4-5.8 5.1-.4.4.2 1 .6.6 1.9-1.7 3.9-3.4 5.8-5.1.5-.4-.1-1-.6-.6z"/><path fill="#A3B81F" d="M67.8 72.5c3.1-1.2 4-5.6 7.4-6 .6-.1.6-1 0-.9-3.7.5-4.4 4.8-7.6 6-.6.2-.4 1.1.2.9z"/><path fill="#A3B81F" d="M75.5 65.9c-3.6 1-4.4 5.2-7.7 6.6-.5.2-.1 1 .5.8 3.2-1.4 4.1-5.6 7.5-6.5.4-.2.2-1.1-.3-.9z"/><path fill="#A3B81F" d="M68.5 74.2c1.6-.4 3-1.1 4.2-2.2 1.4-1.4 2.1-4.3 4.1-4.7.6-.1.3-1-.2-.9-1.7.3-2.3 1.7-3.1 3-1.1 2-3 3.3-5.2 3.8-.6.3-.4 1.1.2 1z"/><path fill="#A3B81F" d="M76.8 67.5c-1.5.8-1.8 2.3-2.7 3.6-1.4 2.1-3.8 3.1-6.3 3-.6 0-.6.9 0 .9 2 .1 3.9-.5 5.5-1.8.6-.5 1.1-1 1.5-1.7.8-1.2 1.1-2.6 2.4-3.3.5-.2.1-.9-.4-.7z"/><path fill="#A3B81F" d="M67.6 75.6c4.7 2.2 6.5-4.6 10.4-5.3.6-.1.3-1-.2-.9-1.4.3-2.4 1-3.4 2-1.6 1.7-3.5 4.8-6.3 3.4-.6-.2-1 .6-.5.8z"/><path fill="#A3B81F" d="M76.7 70.9c-2 2.5-4.9 6.3-8.5 4.4-.5-.3-1 .5-.5.8 4.1 2.1 7.3-1.7 9.6-4.6.4-.4-.3-1-.6-.6z"/><path fill="#A3B81F" d="M67.3 76.5c3.6 4 7.6-2.8 11-3.1.6-.1.6-1 0-.9-1.4.2-2.5.7-3.7 1.6-1.8 1.4-4.5 4.3-6.7 1.8-.3-.4-1 .2-.6.6z"/><path fill="#A3B81F" d="M77.4 73.4c-2.1 1.8-6.8 5.3-9.6 3.4-.5-.3-.9.5-.5.8 3.2 2.2 8.2-1.4 10.7-3.5.5-.5-.2-1.1-.6-.7z"/><path fill="#A3B81F" d="M66.9 77.8c1.8 4.8 9.5-1 11.7-2.8.4-.4-.2-1-.6-.6-1.2 1-2.4 1.9-3.8 2.7-1.2.7-5.4 3-6.4.5-.2-.6-1.1-.3-.9.2z"/><path fill="#A3B81F" d="M68.3 80.8c3.4 1.6 7.6-1.7 9.4-4.3.3-.5-.4-.9-.8-.5-1.5 2.2-5.3 5.3-8.2 4-.5-.2-.9.5-.4.8z"/><path fill="#A3B81F" d="M70.2 82.1c1.3.7 2.5.2 3.7-.5 1.7-.9 3.3-2 4.8-3.2.4-.4-.2-1-.6-.6-1.5 1.2-5.3 4.6-7.3 3.6-.6-.4-1.1.4-.6.7z"/><path fill="#A3B81F" d="M71.4 83.1c3.2 2 5.5-1.9 7.7-3.5.5-.3 0-1.1-.5-.8-1.8 1.4-4.1 5.2-6.8 3.5-.5-.3-.9.5-.4.8z"/><path fill="#A3B81F" d="M72.7 84.6c2.3.4 4.5-.6 5.5-2.8.2-.5-.5-1-.8-.5-.8 1.8-2.5 2.8-4.5 2.4-.5-.1-.7.8-.2.9z"/><path fill="#A3B81F" d="M73.6 85.4c1.7 1.1 3.4-.3 4.5-1.5.4-.4-.3-1.1-.6-.6-.8.9-2 2.3-3.4 1.4-.6-.4-1 .3-.5.7z"/><path fill="#A3B81F" d="M74.6 86.7c1.8 1 3.2-.7 4.1-2.1.3-.5-.5-.9-.8-.5-.6.9-1.6 2.5-2.9 1.8-.4-.2-.9.6-.4.8z"/><path fill="#A3B81F" d="M77.4 87l.9-.9c.4-.4-.2-1-.6-.6l-.9.9c-.4.4.2 1.1.6.6zM67.5 74.3c1.6 0 2.5-1.1 3.3-2.4 1.3-1.8 2.8-3.2 4.7-4.3.5-.3 0-1.1-.5-.8-1.2.7-2.4 1.6-3.4 2.6-1.2 1.2-2.3 3.9-4.2 3.9-.5.1-.5 1 .1 1z"/><path fill="#FF4577" d="M56.5 81.3c3 2.2 7.8-.4 10.6-2 .5-.3.1-1.1-.5-.8-2.4 1.4-7.1 3.9-9.7 2-.4-.3-.9.5-.4.8z"/><path fill="#FF4577" d="M56.1 81.8c2.6 3.4 8.9-.5 11.6-2 .5-.3.1-1-.5-.8-2.1 1.1-8.3 5-10.4 2.3-.3-.4-1.1.1-.7.5z"/><path fill="#FF4577" d="M55.4 82.9c3.8 3.7 9.8-.2 13.4-2.3.5-.3 0-1.1-.5-.8-3.2 1.9-8.8 5.8-12.3 2.5-.4-.5-1 .2-.6.6z"/><path fill="#FF4577" d="M54.8 83.8c3.4 4.1 10.5.7 13.6-2 .4-.4-.2-1-.6-.6-1.6 1.4-3.3 2.5-5.4 3.1-2.1.6-5.3.8-6.9-1.1-.4-.5-1.1.1-.7.6z"/><path fill="#FF4577" d="M68 80.7c-.4.5-.9.9-1.4 1.2-.5.3 0 1.1.5.8.6-.4 1.1-.8 1.6-1.3.4-.5-.3-1.1-.7-.7z"/><path fill="#FF4577" d="M54.3 83.9c1.1 2.4 4.3 2.3 6.6 2.1 3.3-.3 4.6-2.2 7.3-3.8.5-.3.1-1.1-.5-.8-1.5.9-2.7 2.3-4.3 3-2 .9-7.2 1.5-8.4-1-.2-.5-1 0-.7.5z"/><path fill="#FF4577" d="M53.4 84.6c3.9 5.2 13.1 1.8 16.2-2.5.3-.5-.4-.9-.8-.5-1.5 2.1-3.7 3.6-6.2 4.1-2.6.6-6.6.8-8.4-1.6-.4-.4-1.2.1-.8.5z"/><path fill="#FF4577" d="M68.4 81.8c-2.3 3.8-6.5 4.8-10.7 4.8-.6 0-.6.9 0 .9 4.5 0 9-1.2 11.4-5.2.4-.6-.4-1-.7-.5zM52.5 85.4c.3.6.7 1.1 1.1 1.6.4.4.9.9 1.5.9s.6-.9 0-.9c-.4 0-.8-.6-1.1-.9-.3-.4-.6-.8-.8-1.2-.2-.5-1 0-.7.5z"/><path fill="#FF4577" d="M61.1 87.9c3.8.2 6.5-2.9 9-5.2.4-.4-.2-1-.6-.6-2.4 2.1-4.9 5.1-8.4 5-.6-.1-.6.8 0 .8z"/><path fill="#FF4577" d="M69.9 82.5c-1.1 1.7-2.7 2.9-4.5 3.7-.5.2-.3 1.1.2.9 2.1-.8 3.8-2.2 5.1-4.1.3-.5-.5-.9-.8-.5z"/><path fill="#FF4577" d="M65.8 87.7c2.2-.6 4.1-1.8 5.5-3.6.4-.4-.3-1.1-.6-.6-1.3 1.7-3 2.8-5.1 3.3-.6.2-.4 1.1.2.9z"/><path fill="#FF4577" d="M71.1 83.9c-.8 1.4-2.1 2.4-3.5 3.1-.5.2-.1 1 .5.8 1.6-.7 2.9-1.9 3.9-3.4.2-.6-.6-1-.9-.5z"/><path fill="#FF4577" d="M69.6 87.8c1.5-.5 2.7-1.5 3.4-2.8.3-.5-.5-1-.8-.5-.6 1.2-1.6 2-2.9 2.4-.5.2-.3 1.1.3.9z"/><path fill="#FF4577" d="M72.8 85.4c-.7.8-1.6 1.4-2.7 1.8-.6.2-.3 1 .2.9 1.2-.4 2.3-1 3.1-2 .4-.5-.2-1.1-.6-.7z"/><path fill="#FF4577" d="M72.3 87.6c.5-.3 1-.7 1.5-1 .5-.3 0-1.1-.5-.8-.5.3-1 .7-1.5 1-.5.3 0 1.1.5.8z"/><path fill="#FF4577" d="M73 86.4c-.2.2-.5.4-.7.7-.4.4.2 1 .6.6.2-.2.5-.4.7-.7.4-.4-.2-1-.6-.6z"/><path fill="#FFBF41" d="M48.1 81.4c.7-2.3 2.1-4.2 4.2-5.4.5-.3 0-1.1-.5-.8-2.3 1.3-3.9 3.4-4.6 6-.1.5.8.8.9.2z"/><path fill="#FFBF41" d="M48.7 82.3c.8-1.9 1.6-3.9 3.5-5 .5-.3.1-1.1-.5-.8-2.1 1.2-3.1 3.4-3.9 5.5-.1.6.7.8.9.3z"/><path fill="#FFBF41" d="M52.7 77c-1.9 1.4-3.1 3.4-3.5 5.7-.1.6.8.8.9.2.3-2.1 1.4-3.9 3.1-5.2.4-.3-.1-1.1-.5-.7z"/><path fill="#FFBF41" d="M50.3 83.1c.6-1.8 1.4-3.9 3.4-4.5.6-.2.3-1-.2-.9-2.4.7-3.3 3-4 5.1-.2.6.7.9.8.3z"/><path fill="#FFBF41" d="M53.3 78.7c-1.2 1.3-2.5 2.6-2.8 4.4-.1.6.8.8.9.2.3-1.6 1.4-2.8 2.6-4 .4-.4-.3-1-.7-.6z"/><path fill="#FFBF41" d="M51.8 84c.6-1.5 1.3-3.2 2.9-3.7.5-.2.3-1.1-.2-.9-2 .7-2.8 2.5-3.6 4.3-.2.6.7.8.9.3z"/><path fill="#FFBF41" d="M55.4 79.8C54 81 52.7 82.2 52.2 84c-.1.6.7.8.9.2.4-1.6 1.7-2.7 2.9-3.8.5-.3-.2-.9-.6-.6z"/><path fill="#FFBF41" d="M53.8 83.8c.6-.7 1.1-1.4 1.7-2 .4-.4-.3-1.1-.6-.6-.6.7-1.1 1.4-1.7 2-.4.5.2 1.1.6.6z"/><path fill="#29ADFF" d="M42.1 86.8c1.7-1.5 3.8-2.5 4.9-4.5.3-.5-.5-1-.8-.5-1.1 1.9-3.2 2.9-4.8 4.3-.4.5.3 1.1.7.7z"/><path fill="#29ADFF" d="M46.8 82.2c-1.5 1.4-2.2 3.4-4 4.4-.5.3-.1 1.1.5.8 1.9-1 2.6-3.1 4.2-4.5.4-.5-.2-1.1-.7-.7z"/><path fill="#29ADFF" d="M43.8 87.8c2-.8 2.7-3.2 4.8-3.8.6-.2.3-1-.2-.9-2.1.6-2.8 3-4.8 3.8-.6.2-.4 1.1.2.9z"/><path fill="#29ADFF" d="M48.9 83.3c-1.8.5-2.2 2.5-3.5 3.6-.4.4.2 1 .6.6 1.1-1 1.6-2.9 3.1-3.4.6-.1.4-1-.2-.8z"/><path fill="#29ADFF" d="M46.1 87.9c.7-.4 1.3-.8 1.8-1.4.5-.5 1.1-2.1 2-1.9.6.1.8-.8.2-.9-.9-.2-1.5.3-2 1-.7 1-1.4 1.8-2.5 2.4-.4.3 0 1.1.5.8z"/><path fill="#29ADFF" d="M50.4 84.2c-1.2.6-2 1.6-2.5 2.8-.2.5.7.8.9.2.4-1 1.1-1.8 2.1-2.3.5-.2 0-1-.5-.7z"/><path fill="#29ADFF" d="M47.9 87.9c1.6-.3 2.6-1.7 3.6-2.8.4-.4-.3-1.1-.6-.6-.9 1-1.8 2.3-3.2 2.6-.6 0-.4.9.2.8z"/><path fill="#29ADFF" d="M51.3 84.9c-.4.5-.8 1.1-1 1.8-.2.5.7.8.9.2.2-.5.4-.9.7-1.4.4-.4-.2-1.1-.6-.6z"/><path fill="#29ADFF" d="M51.1 86c0 .2 0 .5-.2.6-.5.3 0 1.1.5.8.5-.3.7-.8.7-1.4-.2-.5-1.1-.5-1 0z"/><path fill="#A3B81F" d="M40.5 87c1.3-1.4 2.7-2.8 4-4.1.4-.4-.2-1.1-.6-.6-1.3 1.4-2.7 2.8-4 4.1-.4.4.2 1.1.6.6z"/><path fill="#A3B81F" d="M42.7 82.2c-1.7 1.6-4 2.6-5.1 4.7-.3.5.5 1 .8.5 1.1-2 3.4-2.9 5-4.5.4-.5-.3-1.1-.7-.7z"/><path fill="#A3B81F" d="M37.9 87.2c.9-2 2.5-3.6 4.5-4.6.5-.2.1-1-.5-.8-2.1 1-3.8 2.8-4.8 4.9-.2.5.6 1 .8.5z"/><path fill="#A3B81F" d="M41.5 81.2c-2.4.8-4.2 2.6-5 5-.2.6.7.8.9.2.7-2.1 2.3-3.7 4.3-4.4.6-.1.3-.9-.2-.8z"/><path fill="#A3B81F" d="M36.8 86.2c.4-2.2 2-4 4.2-4.6.6-.2.3-1-.2-.9-2.5.7-4.3 2.7-4.8 5.3-.2.5.6.8.8.2z"/><path fill="#A3B81F" d="M40.3 80.1c-3 .5-5.3 2.8-5.9 5.8-.1.6.8.8.9.2.5-2.7 2.5-4.7 5.2-5.2.6-.1.4-.9-.2-.8z"/><path fill="#A3B81F" d="M34.9 86.3c0-2.6 1.5-4.8 4-5.6.5-.2.3-1-.2-.9-2.9.9-4.7 3.4-4.7 6.4.1.7 1 .7.9.1z"/><path fill="#A3B81F" d="M34 85.4c0-2.6 1.6-4.7 4-5.4.5-.2.3-1-.2-.9-2.8.9-4.6 3.4-4.7 6.3 0 .6.9.6.9 0z"/><path fill="#A3B81F" d="M35.6 79.4c-2.3 1.1-3.7 3.4-3.9 5.9 0 .6.9.6.9 0 .1-2.2 1.4-4.2 3.4-5.2.6-.2.1-1-.4-.7z"/><path fill="#A3B81F" d="M32.1 84.6c0-1.3.6-2.4 1.7-3.1.5-.3 0-1.1-.5-.8-1.3.9-2.1 2.3-2.1 3.9 0 .6.9.6.9 0z"/><path fill="#A3B81F" d="M32.5 80.7c-1.1.8-1.9 1.8-2.7 2.9-.3.5.5.9.8.5.7-1.1 1.6-2 2.6-2.8.3-.3-.3-1-.7-.6z"/><path fill="#EC1D25" d="M20.5 79.1c1.3.7 2.6 1.3 3.9 1.8 1.6.6 4.1.5 5.3 2 .3.5 1.1 0 .8-.5-.9-1.1-1.9-1.5-3.3-1.8-2.2-.5-4.2-1.2-6.2-2.4-.6-.2-1 .6-.5.9z"/><path fill="#EC1D25" d="M20.6 78c1 .9 2.1 1.2 3.5 1.2 2.4.1 4.3.6 5.9 2.4.4.4 1-.2.6-.6-1-1.1-2.2-1.9-3.6-2.3-1.9-.6-4.3.1-5.8-1.3-.4-.4-1 .2-.6.6z"/><path fill="#EC1D25" d="M30.6 81.4c-1.5-1.9-4.6-2.2-6.8-2.8-.6-.2-.8.7-.2.9 2 .6 5.1.8 6.4 2.6.3.4.9-.2.6-.7z"/><path fill="#EC1D25" d="M21.1 75.7c-.1 0-.2 0-.3-.1-.4-.1-.7.3-.5.7.7 1.2 1.8 1.7 3.2 1.9 1.3.1 2.6-.1 3.9.2 1.6.4 2.8 1.5 3.7 2.8.3.5 1.1 0 .8-.5-.9-1.4-2-2.5-3.6-3-2.3-.8-5.8.5-7.3-1.9-.2.2-.3.4-.5.7.1 0 .2 0 .3.1.6.1.9-.7.3-.9z"/><path fill="#EC1D25" d="M32.3 80.2c-1-1.5-2.4-3.1-4.1-3.8-2.4-1.1-5.1.4-7-2-.4-.5-1 .2-.6.6.9 1.2 2.1 1.8 3.7 1.9 1.5.1 2.8-.2 4.2.6 1.3.7 2.3 1.9 3.2 3.1.1.5.9 0 .6-.4z"/><path fill="#EC1D25" d="M20.7 74c1.2 1.3 2.6 1.7 4.3 1.9 3.2.3 5.9.7 7.2 4 .2.5 1.1.3.9-.2-.7-1.7-1.8-3.2-3.6-3.9-2.7-1.2-6.1 0-8.2-2.4-.3-.4-1 .2-.6.6z"/><path fill="#EC1D25" d="M33.8 79.9c-.8-2.1-2.2-3.9-4.3-4.9-.8-.4-1.7-.7-2.7-.9-1.3-.2-2.4-.1-3.7-.7-.9-.5-1.6-1.3-2.3-2-.4-.4-1 .2-.6.6 1.4 1.4 2.6 2.5 4.6 2.8 3.7.5 6.6 1.5 8.1 5.3.2.5 1.1.3.9-.2z"/><path fill="#EC1D25" d="M20.4 71.1c4.3 3.4 10.8 1.9 13.2 7.9.2.5 1.1.3.9-.2-.8-2-2.2-3.6-4-4.7-2.9-1.7-6.7-1.5-9.4-3.6-.5-.3-1.1.3-.7.6z"/><path fill="#EC1D25" d="M34.6 79.2c-.2-.3-.4-.7-.6-1-.3-.5-1.1 0-.8.5.2.3.4.7.6 1 .3.5 1.1 0 .8-.5z"/><path fill="#EC1D25" d="M21.3 70.3c1.5 1.7 3.5 1.7 5.7 2 3.8.6 6.5 3.1 7.4 6.8.1.6 1 .3.9-.2-.6-2.5-1.9-4.6-4-6-2.8-1.8-7-.8-9.3-3.2-.5-.5-1.1.2-.7.6z"/><path fill="#EC1D25" d="M35.5 76.5c-1.5-2.1-3.1-4.6-5.2-6.1-2-1.4-4.5-1.1-6.9-1.3-.6 0-.6.9 0 .9 2.7.2 5-.2 7.2 1.8 1.6 1.5 2.9 3.4 4.1 5.1.4.5 1.2.1.8-.4z"/><path fill="#EC1D25" d="M23.4 70.4c2.3.5 4.6 1.2 6.7 2.2.5.2 1-.5.5-.8-2.2-1-4.5-1.8-6.9-2.3-.6-.1-.9.8-.3.9zM29.6 69.6c1.5.6 2.6 1.6 3.4 3 .6 1.1 1.1 2.2 2 3.1.4.4 1-.2.6-.6-1.1-1.2-1.6-2.8-2.6-4.1-.8-1-1.9-1.8-3.1-2.2-.6-.2-.8.6-.3.8z"/><path fill="#EC1D25" d="M35.7 73.8c-1-1-1.7-2.2-2.2-3.6-.3-.9-.6-1.6-1.4-2.2-.5-.3-.9.4-.5.8.9.7 1.1 2.1 1.6 3.1.5.9 1.1 1.8 1.8 2.5.4.4 1.1-.2.7-.6z"/><path fill="#EC1D25" d="M32.5 69c.8.5 1.5 1.3 1.8 2.3.3.7.4 1.4.9 2 .4.4 1-.2.6-.6-.6-.7-.7-1.8-1.2-2.7-.4-.7-1.1-1.3-1.8-1.8-.3-.2-.8.5-.3.8z"/><path fill="#EC1D25" d="M36.4 71.9c0-.8-.2-1.5-.5-2.2-.4-.7-1.1-1.2-1.5-1.9-.3-.5-1.1 0-.8.5.3.6.8 1 1.2 1.5.5.6.7 1.4.7 2.2 0 .5.9.5.9-.1z"/><path fill="#EC1D25" d="M35.1 68.9c.5.2.8.5.9 1 .2.6 1 .3.9-.2-.2-.7-.7-1.3-1.3-1.6-.5-.2-1 .6-.5.8z"/><path fill="#6F48A3" d="M20.4 80.7c3.5 1.5 6.8 3.4 9.9 5.7.5.3.9-.4.5-.8-3.1-2.2-6.4-4.1-9.9-5.7-.6-.2-1 .6-.5.8z"/><path fill="#6F48A3" d="M30 86.1c-2.7-2.3-5.7-4-9.1-5.1-.5-.2-.8.7-.2.9 3.2 1.1 6.1 2.7 8.7 4.9.5.3 1.1-.3.6-.7z"/><path fill="#6F48A3" d="M19.8 81.5c1.8 2.5 4.3 4.2 7.3 4.9.6.1.8-.7.2-.9-2.7-.7-5.1-2.2-6.8-4.5-.3-.4-1.1.1-.7.5z"/><path fill="#6F48A3" d="M27.8 85.8c-1.6-1.3-3.3-2.4-5-3.5-.5-.3-.9.5-.5.8 1.7 1 3.3 2.2 4.9 3.4.5.3 1.1-.3.6-.7zM18.9 82.1c.4 1.9 2.3 2.6 3.6 3.6.5.4.9-.4.5-.8-1.2-.9-2.9-1.5-3.2-3.1-.2-.5-1-.2-.9.3z"/><path fill="#6F48A3" d="M22.6 84.7c-.6-.6-1.3-1.2-2-1.8-.5-.4-.9.4-.5.8.7.5 1.3 1.1 1.9 1.7.4.3 1-.3.6-.7z"/><path d="M19.1 21.3c12.2-4.2 24.6-7.6 37.2-10.2 1.9-.4 1.1-3.3-.8-2.9-12.6 2.6-25 6-37.2 10.2-1.8.6-1.1 3.5.8 2.9z"/><path d="M54.3 11.5C54 29.7 53.2 47.9 51.9 66c-.1 1.9 2.9 1.9 3 0 1.3-18.1 2.1-36.3 2.4-54.4 0-2-3-2-3-.1z"/><path d="M54 67.2c8.2-.9 16.5-1.4 24.7-1.7 1.9-.1 1.9-3.1 0-3-8.3.3-16.5.9-24.7 1.7-1.9.2-1.9 3.2 0 3z"/><path d="M76.5 64.2c.5 7.7 1 15.3 1.6 23 .1 1.9 3.1 1.9 3 0-.5-7.7-1-15.3-1.6-23-.2-2-3.2-2-3 0z"/><path d="M77.3 86.7c-19.5.4-38.9-.2-58.3-2-1.9-.2-1.9 2.8 0 3 19.4 1.8 38.8 2.4 58.3 2 2-.1 2-3.1 0-3z"/><path d="M20.2 85.4c.7-5.2 1-10.3.7-15.5-.1-1.9-3.1-1.9-3 0 .3 4.9.1 9.8-.6 14.7-.2 1.9 2.7 2.7 2.9.8z"/><path d="M21.8 70.4c7.7-.9 15.4-1.7 23-2.6 1.9-.2 1.9-3.2 0-3-7.7.9-15.4 1.7-23 2.6-1.9.2-1.9 3.2 0 3z"/><path d="M39 33.4c2.9 10.1 4.2 20.5 3.7 31-.1 1.9 2.9 1.9 3 0 .5-10.8-.8-21.4-3.8-31.8-.5-1.9-3.4-1.1-2.9.8z"/><path d="M21.2 38c6.7-2.3 13.5-4 20.4-5.2 1.9-.3 1.1-3.2-.8-2.9-7 1.2-13.8 2.9-20.4 5.2-1.8.7-1 3.6.8 2.9z"/><path d="M17.1 21.4c1.5 4.8 2.5 9.7 2.8 14.8.1 1.9 3.1 1.9 3 0-.4-5.3-1.3-10.5-2.9-15.6-.6-1.8-3.5-1-2.9.8zM35.2 21.9c4.8-3.2 9.9-5.7 15.5-7.4.6-.2.3-1-.2-.9-5.6 1.7-10.8 4.2-15.7 7.5-.5.3 0 1.1.4.8z"/><path d="M51.4 13.8c.4-.8.8-1.5 1.2-2.3.3-.5-.5-1-.8-.5-.4.8-.8 1.5-1.2 2.3-.3.6.5 1 .8.5z"/><path d="M50.4 14.6c1.9 1.5 3.4 3.4 4.5 5.6.2.5 1 .1.8-.5-1.1-2.3-2.6-4.2-4.6-5.8-.5-.3-1.2.3-.7.7zM34.7 21.6c-.1 3.2-.7 6.4-1.8 9.4-.2.5.7.8.9.2 1.1-3.2 1.7-6.4 1.8-9.7 0-.5-.9-.5-.9.1z"/><path d="M33.4 31.3c.5.3 1 .7 1.5 1 .5.3.9-.5.5-.8-.5-.3-1-.7-1.5-1-.5-.3-.9.5-.5.8zM22.1 31.3c.7-.5 1.5-1 2.3-1.4.5-.3.1-1-.5-.8-.8.4-1.6.9-2.3 1.4-.4.3.1 1.1.5.8z"/><path d="M24.2 30.1c2.9.9 5.9 1.2 8.9.9.6 0 .6-.9 0-.9-3 .3-5.9 0-8.7-.9-.5-.1-.8.8-.2.9z"/><path d="M24.2 29.1c-1.6-3-1.3-6.5.9-9.1.4-.4-.3-1.1-.6-.6-2.5 3-2.9 6.8-1 10.2.2.4 1 0 .7-.5z"/><path d="M35.1 21.4c-3-2.6-7-3.5-10.8-2.3-.5.2-.3 1 .2.9 3.5-1.1 7.2-.4 10 2.1.4.3 1-.3.6-.7zM43.2 39.9c1.5 1.3 4 3.3 6.2 2.8.6-.1.3-1-.2-.9-1.7.4-4.1-1.6-5.3-2.6-.5-.3-1.2.3-.7.7z"/><path d="M50 42.5c1.7-1.2 3.1-2.6 4.4-4.3.3-.5-.4-.9-.8-.5-1.1 1.5-2.5 2.9-4 4-.5.4-.1 1.2.4.8zM48 43c-1 6.5 1.7 12.2 4.7 17.8.3.5 1.1.1.8-.5-2.9-5.3-5.6-10.9-4.6-17.1 0-.5-.8-.8-.9-.2zM53.6 67.1c-.9 2.5-1.7 5-2.4 7.5-.1.6.7.8.9.2.7-2.6 1.5-5.1 2.4-7.5.1-.5-.7-.7-.9-.2z"/><path d="M51.6 75.2c1.3 2.2 2.9 4.1 4.9 5.7.4.4 1.1-.3.6-.6-1.9-1.5-3.5-3.4-4.7-5.5-.4-.6-1.1-.1-.8.4z"/><path d="M57.6 81.2c3.3.4 6.5-.6 9-2.8.4-.4-.2-1-.6-.6-2.3 2.1-5.2 3-8.3 2.6-.7-.2-.7.7-.1.8z"/><path d="M66.9 78.2c1.1-1.3 1-2.7.8-4.4-.4-3.1-1.1-6.1-1.9-9.1-.2-.6-1-.3-.9.2.5 1.7.9 3.5 1.3 5.2.4 2 1.6 5.6.1 7.3-.4.6.2 1.3.6.8z"/><path d="M66.9 78.9c2.7 3.4 5.8 6.5 9.2 9.3.4.4 1.1-.3.6-.6-3.4-2.8-6.4-5.9-9.2-9.3-.3-.5-.9.1-.6.6zM50.9 74.7c-2.1 1.8-3.6 4-4.6 6.6-.2.5.7.8.9.2.9-2.4 2.4-4.5 4.3-6.2.5-.4-.2-1-.6-.6z"/><path d="M46.8 81.9c1.4 1.7 3.2 2.8 5.3 3.4.6.2.8-.7.2-.9-1.9-.6-3.6-1.7-4.9-3.2-.4-.4-1 .2-.6.7z"/><path d="M55.8 80.8c-.8 1.7-2.2 3-3.9 3.7-.5.2-.3 1.1.2.9 2-.8 3.6-2.2 4.5-4.1.3-.5-.5-1-.8-.5z"/><path d="M51.8 85.5c.2.5.6 1.4.1 1.8-.5.3 0 1.1.5.8 1-.8.7-2 .2-3-.2-.6-1-.1-.8.4zM41.6 86.7L44 84c.7-.8 1.5-1.8 2.6-2.1.6-.2.3-1-.2-.9-1 .3-1.8 1-2.5 1.8-1 1.1-1.9 2.2-2.9 3.3-.4.4.2 1 .6.6zM20.6 80c4.4 1.8 8.8 3.6 12.3 6.9.4.4 1.1-.2.6-.6-3.6-3.4-8.1-5.3-12.7-7.2-.5-.2-.7.7-.2.9z"/><path d="M30 83.3c1.7-1.6 3.7-2.7 5.9-3.4.6-.2.3-1-.2-.9-2.4.8-4.5 2-6.3 3.7-.5.4.2 1 .6.6z"/><path d="M36.2 79.9c2.9.4 5.5 1.5 7.8 3.1.5.3.9-.5.5-.8-2.4-1.7-5.1-2.7-8.1-3.2-.5-.1-.7.8-.2.9z"/><path d="M36.5 68.3c-1.1 3.8-1.6 7.6-1.3 11.5 0 .6.9.6.9 0-.2-3.9.2-7.6 1.3-11.3.1-.5-.8-.7-.9-.2zM45.8 57c1.4-.7 2.9-.7 4.4-.2.5.2.8-.7.2-.9-1.7-.6-3.5-.5-5.1.3-.4.3 0 1.1.5.8z"/></svg>