<svg xmlns="http://www.w3.org/2000/svg" viewBox="0 0 98 98"><path fill="#29ADFF" d="M16 14.9c.5-.8 1.2-1.5 2-2.1.5-.4-.2-1-.6-.6-.8.6-1.5 1.4-2.1 2.3-.4.5.4.9.7.4z"/><path fill="#29ADFF" d="M16.7 15.6c.8-.8 1.6-1.6 2.2-2.6.3-.5-.5-.9-.8-.5-.6.9-1.2 1.7-2 2.4-.4.4.2 1.1.6.7z"/><path fill="#29ADFF" d="M18.2 15.5c.9-.9 1.2-2.2 2.1-3 .5-.4-.2-1-.6-.6-1 .8-1.2 2.1-2.1 3-.5.4.2 1 .6.6z"/><path fill="#29ADFF" d="M19.5 15.2c.5-.6.9-1.1 1.4-1.7.4-.4-.3-1.1-.6-.6-.5.6-.9 1.1-1.4 1.7-.4.4.2 1.1.6.6zM20.1 15.8c.6 0 .6-.9 0-.9s-.6.9 0 .9zM21.9 21.2c.2-.4.5-.8.8-1.1.4-.4-.2-1-.6-.6-.4.4-.7.8-1 1.3-.3.5.5.9.8.4z"/><path fill="#29ADFF" d="M21.2 23.5c.4-.4.8-.9 1.1-1.3.3-.4.5-1.2.9-1.4.5-.2.1-1-.5-.8-.5.2-.7.8-1 1.3-.3.6-.8 1.2-1.3 1.6-.2.3.4 1 .8.6zM21 25.3c1.8-1.2 2.4-3.6 4.3-4.5.5-.3.1-1-.5-.8-2 1-2.5 3.3-4.3 4.5-.5.4 0 1.1.5.8z"/><path fill="#29ADFF" d="M20.8 26.8c1.8-1.4 2.5-4.2 4.8-4.8.6-.1.3-1-.2-.9-2.6.7-3.3 3.5-5.2 5-.5.4.1 1 .6.7z"/><path fill="#29ADFF" d="M20.4 28.3c2.4-.8 3.2-3.4 5-4.9.4-.4-.2-1-.6-.6-1.7 1.4-2.5 3.9-4.6 4.7-.6.1-.4 1 .2.8z"/><path fill="#29ADFF" d="M19.8 30.9c1.4-1.8 2.2-4.2 4.2-5.4.5-.3 0-1.1-.5-.8-2.2 1.3-3.1 3.8-4.6 5.8-.2.4.6.9.9.4z"/><path fill="#29ADFF" d="M21 30.4c1.1-2.1 2.5-3.8 4.4-5.3.5-.4-.2-1-.6-.6-1.9 1.5-3.4 3.3-4.5 5.5-.3.5.5.9.7.4z"/><path fill="#29ADFF" d="M22.3 29.9c.6-1.6 1.8-2.9 3.3-3.7.5-.3.1-1.1-.5-.8-1.7.9-3 2.4-3.7 4.3-.2.5.7.7.9.2z"/><path fill="#29ADFF" d="m23.7 29.3.9-1.2c.3-.3.6-.9 1.1-1 .6-.1.3-1-.2-.9-.6.1-1 .6-1.4 1.1-.4.5-.8 1-1.2 1.6-.3.5.5.9.8.4z"/><path fill="#29ADFF" d="M25.1 29.2c.4-.5.7-1.1 1.1-1.6.3-.5-.5-.9-.8-.5-.4.5-.7 1.1-1.1 1.6-.3.6.5 1 .8.5zM29.4 13.3c.3-.6.8-1.1 1.3-1.5.5-.3 0-1.1-.5-.8-.7.5-1.3 1.1-1.7 1.9-.2.5.6.9.9.4z"/><path fill="#29ADFF" d="M29.6 14.8c.6-1.2 1.4-2.1 2.4-3 .4-.4-.2-1-.6-.6-1.1.9-1.9 1.9-2.6 3.2-.3.4.5.9.8.4zM29.1 16.9c1.2-1.6 2.6-3.1 4.1-4.4.4-.4-.2-1-.6-.6-1.5 1.4-2.8 2.9-4.1 4.4-.4.4.2 1.1.6.6z"/><path fill="#29ADFF" d="M29.1 17.8c2-1.7 3.8-3.7 5.3-5.9.3-.5-.5-.9-.8-.5-1.5 2.1-3.2 4.1-5.1 5.7-.5.4.1 1 .6.7z"/><path fill="#29ADFF" d="M34.4 12c-2.3 1.4-3.2 4.3-5.6 5.5-.5.3-.1 1 .5.8 2.4-1.3 3.3-4.1 5.6-5.5.4-.4 0-1.1-.5-.8z"/><path fill="#29ADFF" d="M30.6 18.5c1.2-1 2.2-2 3.1-3.2.9-1.3 1.5-2.9 2.8-3.9.4-.4-.2-1-.6-.6-1.1.9-1.6 2.1-2.4 3.3-.9 1.5-2.1 2.7-3.5 3.9-.5.2.2.8.6.5z"/><path fill="#29ADFF" d="M36 11.5c-2.1 1.9-2.5 5.4-5.2 6.7-.5.2-.1 1 .5.8 2.9-1.3 3.2-4.8 5.4-6.8.3-.5-.3-1.1-.7-.7z"/><path fill="#29ADFF" d="M31.7 19.7c2.9-1 3.6-4.1 5.4-6.3.4-.4-.3-1.1-.6-.6-1.6 2-2.4 5.2-5 6.1-.6.1-.4 1 .2.8z"/><path fill="#29ADFF" d="M31.5 20.5c1.2.3 2.1-.3 2.8-1.2 1.2-1.5 1.7-3.5 3.6-4.4.5-.2.1-1-.5-.8-1 .4-1.8 1.2-2.4 2.1-.7 1.1-1.7 3.8-3.3 3.4-.5-.1-.7.7-.2.9z"/><path fill="#29ADFF" d="M31.7 21.3c1.1.8 2.2 0 3.1-.8.5-.5 1-1.1 1.4-1.8.6-1 1-2.6 2.5-2.7.6 0 .6-.9 0-.9-1.1.1-1.9.7-2.5 1.7-.5.8-2.4 5-4 3.8-.5-.4-1 .3-.5.7z"/><path fill="#29ADFF" d="M33.5 24.5c.1-2.2 1.1-4.2 2.9-5.6.5-.4-.2-1-.6-.6-1.9 1.6-3 3.8-3.1 6.3-.1.5.8.5.8-.1z"/><path fill="#29ADFF" d="M33 22.4c0-.6.1-1.2.5-1.7.3-.5-.5-.9-.8-.5-.4.6-.7 1.4-.6 2.2 0 .6.9.6.9 0zM33.7 26c.5-1.9 1.2-3.8 2.1-5.6.9-1.8 1.7-4 3.8-4.4.6-.1.3-1-.2-.9-1.9.4-2.9 1.8-3.7 3.5-1.2 2.3-2.3 4.6-2.9 7.1-.1.7.8.9.9.3z"/><path fill="#29ADFF" d="M39.9 15.6c-1.4.8-2.3 1.9-2.9 3.4-1.1 2.5-1.6 4.9-3.5 7-.4.4.2 1.1.6.6 1.1-1.2 2-2.6 2.6-4.1.9-2.3 1.3-4.8 3.6-6.1.5-.3.1-1.1-.4-.8z"/><path fill="#29ADFF" d="M34.7 27.2c1.4-1.2 2.3-2.9 3.2-4.5 1.3-2.4 2.1-5.7 4.8-6.8.5-.2.3-1.1-.2-.9-4.7 1.9-4.7 8.5-8.4 11.5-.5.5.1 1.1.6.7z"/><path fill="#29ADFF" d="M42.5 15.2c-2.9 3.3-3.5 7.7-6.8 10.6-.4.4.2 1 .6.6 3.4-2.9 3.9-7.3 6.8-10.6.4-.4-.2-1.1-.6-.6z"/><path fill="#29ADFF" d="M36.7 27.1c3-2 4.1-5.3 5.6-8.3.2-.5-.5-1-.8-.5-1.4 2.9-2.4 6.2-5.2 8-.5.3-.1 1.1.4.8z"/><path fill="#29ADFF" d="M40.6 22.5c-.3 1.1-.8 2-1.6 2.8-.4.4.2 1 .6.6.9-.9 1.5-2 1.9-3.2.1-.5-.8-.7-.9-.2zM43.3 15.4c1.3-1.1 2.5-2.3 3.5-3.6.4-.5-.3-1.1-.6-.6-1.1 1.3-2.2 2.6-3.5 3.6-.5.4.1 1 .6.6zM47.8 11.1c-.5 1.2-1.3 2.1-2.4 2.7-.5.3-.1 1.1.5.8 1.3-.7 2.3-1.8 2.8-3.2.2-.6-.6-.8-.9-.3z"/><path fill="#29ADFF" d="M47.9 14.5c1-.9 1.8-2 2.2-3.3.2-.5-.7-.8-.9-.2-.4 1.1-1.1 2.1-2 2.9-.4.4.2 1 .7.6z"/><path fill="#29ADFF" d="M48.3 15.4c2-.3 1.7-2.8 3.1-3.7.5-.3 0-1.1-.5-.8-.6.4-1 1-1.2 1.7-.4.8-.7 1.8-1.7 2-.6 0-.3.9.3.8z"/><path fill="#29ADFF" d="M51.5 11.3c-1 1.3-1.8 2.7-2.5 4.2-.2.5.5 1 .8.5.7-1.5 1.5-2.9 2.5-4.2.3-.5-.5-.9-.8-.5z"/><path fill="#29ADFF" d="M49.7 17.7c.7-1.7 1.5-3.4 2.6-4.9.3-.5-.5-.9-.8-.5-1.1 1.6-2 3.3-2.7 5.1-.2.6.7.8.9.3z"/><path fill="#29ADFF" d="M50.5 15c-.4 1.5-.9 3-1.4 4.5-.2.5.7.8.9.2.5-1.5 1-3 1.4-4.5.1-.5-.8-.7-.9-.2zM45.2 12.6c.4-.5.7-1 1.1-1.6.3-.5-.5-.9-.8-.5-.4.5-.7 1-1.1 1.6-.3.5.5.9.8.5zM60.6 13.3l.7-.7c.4-.4-.2-1-.6-.6l-.7.7c-.5.3.1 1 .6.6z"/><path fill="#29ADFF" d="m60.9 14.2.8-.8c.4-.4-.2-1-.6-.6l-.8.8c-.5.4.2 1 .6.6z"/><path fill="#29ADFF" d="M60.4 15.8c.8-1 1.7-1.9 2.7-2.6.5-.3 0-1.1-.5-.8-1.1.8-2 1.7-2.8 2.8-.4.4.3 1.1.6.6z"/><path fill="#29ADFF" d="M62.9 12.8c-1.1 1.3-2.3 2.5-3.6 3.7-.4.4.2 1 .6.6 1.3-1.2 2.5-2.4 3.6-3.7.4-.4-.2-1.1-.6-.6z"/><path fill="#29ADFF" d="M60.4 17.8c1.1-.9 2.2-1.9 3.4-2.8.4-.4-.2-1-.6-.6-1.1.9-2.2 1.9-3.4 2.8-.5.3.2.9.6.6z"/><path fill="#29ADFF" d="M62 17.1c.6-.9 1.4-1.6 2.3-2.2.5-.3 0-1.1-.5-.8-1 .7-1.9 1.5-2.7 2.5-.2.5.5.9.9.5z"/><path fill="#29ADFF" d="M62.3 17.8c.9-.9 1.8-1.7 2.9-2.4.5-.3 0-1.1-.5-.8-1.1.7-2.1 1.6-3.1 2.5-.3.4.3 1.1.7.7zM63.3 18.6c1.2-1.2 2.5-2.3 4-3.2.5-.3 0-1.1-.5-.8-1.5 1-2.9 2.1-4.2 3.4-.3.4.3 1 .7.6z"/><path fill="#29ADFF" d="M63.5 19.6c1.7-1.4 3.4-2.8 5.2-4.2.5-.4-.2-1-.6-.6-1.7 1.4-3.4 2.8-5.2 4.2-.5.3.2 1 .6.6z"/><path fill="#29ADFF" d="M64.1 20.7c1.4-1.4 2.9-2.7 4.5-3.9.5-.3 0-1.1-.5-.8-1.7 1.2-3.3 2.5-4.7 4-.3.5.3 1.1.7.7z"/><path fill="#29ADFF" d="M67.2 17.8c-1 1.6-2.2 3-3.7 4.2-.5.4.2 1 .6.6 1.5-1.2 2.8-2.7 3.8-4.4.3-.4-.4-.9-.7-.4z"/><path fill="#29ADFF" d="M64.1 24.4c.7-1.1 1.5-2 2.6-2.7.5-.3 0-1.1-.5-.8-1.2.8-2.2 1.8-2.9 3.1-.2.5.5.9.8.4z"/><path fill="#29ADFF" d="M65.9 21.7c-.9 1.5-1.8 2.9-2.7 4.4-.3.5.5.9.8.5.9-1.5 1.8-2.9 2.7-4.4.3-.6-.5-1-.8-.5z"/><path fill="#29ADFF" d="M64.1 27.6c.8-1.1 1.6-2.2 2.5-3.2.4-.4-.2-1.1-.6-.6-1 1.1-1.8 2.2-2.7 3.3-.3.6.5 1 .8.5zM64.8 28.4c.4-.5.9-1 1.3-1.5.4-.4-.3-1.1-.6-.6-.4.5-.9 1-1.3 1.5-.4.4.2 1.1.6.6zM65.4 29.2c.6 0 .6-.9 0-.9s-.6.9 0 .9zM76.4 19.3l.9-.6c.5-.3.1-1.1-.5-.8-.4.2-.7.5-1.1.8-.4.4.3 1 .7.6zM76.4 20.9c.5-.7 1.2-1.3 2-1.7.5-.3.1-1.1-.5-.8-.9.5-1.7 1.2-2.3 2-.3.5.4 1 .8.5z"/><path fill="#29ADFF" d="M76 23.4c.9-1.4 1.8-2.9 3.4-3.6.5-.2.1-1-.5-.8-1.7.8-2.7 2.3-3.7 3.9-.3.6.5 1 .8.5z"/><path fill="#29ADFF" d="M75.5 25.9c.8-.6 1.2-1.4 1.7-2.3.6-1.1 1.5-2 2.8-2.4.6-.2.3-1-.2-.9-1 .3-2 .9-2.7 1.8-.7.9-1.1 2.2-2.1 2.9-.5.5 0 1.3.5.9z"/><path fill="#29ADFF" d="M75.1 27.2c.9-.4 1.7-.9 2.5-1.5.8-.7 1.9-2.6 3-2.7.6 0 .6-.9 0-.9-1.1.1-1.7.8-2.4 1.7-.9 1.1-2 2.1-3.4 2.6-.5.1-.2 1 .3.8z"/><path fill="#29ADFF" d="M75.4 28.3c1.1-.3 2-.8 2.9-1.4.4-.3.8-.7 1.2-1.2.4-.5.8-1.3 1.5-1.5.6-.1.3-1-.2-.9-1.1.3-1.5 1.2-2.1 1.9-.9 1.1-2.1 1.8-3.5 2.1-.6.2-.3 1.1.2 1z"/><path fill="#29ADFF" d="M75.4 29.8c2.2-1.5 4.3-2.9 6.5-4.4.5-.3 0-1.1-.5-.8-2.2 1.5-4.3 2.9-6.5 4.4-.4.4 0 1.2.5.8z"/><path fill="#29ADFF" d="M74.5 31.6c1.6-1.3 3.3-2.4 5-3.3.5-.3.1-1-.5-.8-1.9 1-3.6 2.1-5.2 3.5-.4.3.2.9.7.6z"/><path fill="#29ADFF" d="M72.3 34.9c1.8-2.3 4.2-3.9 7-4.8.5-.2.3-1-.2-.9-2.9 1-5.5 2.7-7.4 5.1-.4.4.3 1.1.6.6z"/><path fill="#29ADFF" d="M76.5 30.7c.7-.5 1.4-.9 2.3-1.1.6-.2.3-1-.2-.9-.9.2-1.7.6-2.5 1.2-.5.4-.1 1.2.4.8zM72.2 36.1c2-1.7 4-3.4 6.2-4.8.5-.3 0-1.1-.5-.8-2.2 1.5-4.4 3.2-6.4 5-.3.3.3 1 .7.6zM71.9 37.5c2.2-1.5 4.3-3.1 6.4-4.7.5-.4-.2-1-.6-.6-2 1.6-4.1 3.1-6.2 4.6-.5.3 0 1 .4.7zM72.1 38.7c2.1-1.5 4.2-3 6.4-4.5.5-.3 0-1.1-.5-.8-2.1 1.5-4.2 3-6.4 4.5-.4.3.1 1.1.5.8zM72.1 40c1.9-1.3 3.7-2.5 5.6-3.8.5-.3 0-1.1-.5-.8-1.9 1.3-3.7 2.5-5.6 3.8-.5.3 0 1.1.5.8z"/><path fill="#29ADFF" d="M72.1 41.1c2.2-.6 3.4-3 5.6-3.6.6-.2.3-1-.2-.9-2.2.6-3.4 3-5.6 3.6-.6.1-.4 1 .2.9z"/><path fill="#29ADFF" d="M72.2 42.1c1.8-1.5 4.2-1.9 6-3.4.4-.4-.2-1-.6-.6-1.8 1.5-4.2 1.9-6 3.4-.5.3.2.9.6.6z"/><path fill="#29ADFF" d="M72.7 43.3c2.1-.5 3.1-2.7 5.2-3.1.6-.1.3-1-.2-.9-2.1.4-3.2 2.6-5.2 3.1-.6.1-.3 1 .2.9z"/><path fill="#29ADFF" d="M72.9 44.2c.9.1 1.5-.4 2.2-1 1-.9 2.1-1.5 3.5-1.8.6-.1.3-1-.2-.9-1 .2-1.9.5-2.7 1.1-.9.6-1.6 1.8-2.8 1.7-.6 0-.6.9 0 .9z"/><path fill="#29ADFF" d="M73.4 45.2c1.3 0 2.2-.9 3.1-1.7.4-.4-.2-1-.6-.6-.7.7-1.4 1.5-2.5 1.5-.6-.1-.6.8 0 .8zM50 50.1c4.9-.8 9.4-2.4 13.6-4.9.5-.3 0-1.1-.5-.8-4.2 2.4-8.6 4-13.4 4.8-.5.1-.3 1 .3.9z"/><path fill="#29ADFF" d="M57.7 49c1.9-.1 3.1-1.6 4.9-2.2.6-.2.3-1-.2-.9-1.6.5-2.9 2-4.6 2.1-.7.1-.7 1-.1 1zM49.3 50.7c1.8.5 3.7.3 5.3-.7.5-.3 0-1.1-.5-.8-1.4.9-3 1.1-4.6.6-.6-.1-.8.7-.2.9z"/><path fill="#29ADFF" d="M48.8 51.6c1.8 1.6 3.9.5 5.6-.7.5-.3 0-1.1-.5-.8-1.3.9-3.1 2-4.5.8-.4-.3-1 .4-.6.7z"/><path fill="#29ADFF" d="M49 52.9c1 .5 2.1.6 3.2.3.6-.1.3-1-.2-.9-.9.2-1.7.2-2.5-.2-.6-.2-1 .5-.5.8zM58.4 49.7c2 .6 2.9-1.6 4.6-2.1.6-.2.3-1-.2-.9-.6.2-1.1.5-1.6 1-.7.6-1.4 1.4-2.5 1.2-.6-.2-.9.6-.3.8z"/><path fill="#29ADFF" d="M59.6 50.5c.5 0 1-.1 1.4-.4.2-.1.4-.3.5-.4.1-.2.4-.6.6-.5.6.2.8-.7.2-.9-.5-.1-.9.1-1.2.4-.4.5-.8.9-1.5.9-.5 0-.6.9 0 .9z"/><path fill="#29ADFF" d="M59.4 51.6c1.1.1 2.3-.4 3-1.2.4-.4-.2-1.1-.6-.6-.6.7-1.5 1-2.4.9-.5 0-.5.9 0 .9z"/><path fill="#29ADFF" d="M59.1 52.4c1.3.6 2.2-.4 3.4-.9.5-.2.3-1.1-.2-.9-.8.3-1.8 1.4-2.7 1-.5-.2-1 .6-.5.8z"/><path fill="#29ADFF" d="M59.4 53.2c.5.5 1.2.6 1.8.4.8-.3 1.3-1 2-1.4.5-.3.1-1.1-.5-.8-.7.4-1.9 2-2.7 1.2-.4-.4-1 .2-.6.6z"/><path fill="#29ADFF" d="M59.1 54.3c1.4.6 2.9.1 3.8-1.1.3-.5-.4-.9-.8-.5-.7.9-1.8 1.1-2.8.7-.5-.2-.7.7-.2.9z"/><path fill="#29ADFF" d="M59.7 55.9c.4-.3.9-.5 1.4-.5.4 0 .8.1 1.2 0 .7-.1.7-.8 1.2-1.1.5-.4-.2-1-.6-.6-.2.2-.3.4-.5.6-.3.4-.6.2-1 .2-.8 0-1.5.3-2.1.7-.6.2-.1 1 .4.7z"/><path fill="#29ADFF" d="M63.6 54c-.9.8-2 1.4-3.2 1.6-.6.1-.3 1 .2.9 1.3-.3 2.5-.9 3.6-1.9.4-.3-.2-1-.6-.6z"/><path fill="#29ADFF" d="M61.1 57.2c.9-.2 1.8-.3 2.6-.8.7-.5 1.3-1.2 2.1-1.5.5-.2.3-1.1-.2-.9-.7.3-1.2.6-1.8 1.1-.9.8-1.8 1-2.9 1.2-.6.2-.3 1 .2.9z"/><path fill="#29ADFF" d="M65.2 55.1c-.7.9-1.7 1.5-2.8 1.7-.6.1-.3 1 .2.9 1.4-.2 2.5-1 3.3-2.1.5-.5-.3-1-.7-.5z"/><path fill="#29ADFF" d="M64.4 58.1c.4-.2.8-.4 1.2-.5.5-.2.3-1.1-.2-.9-.5.2-1 .4-1.4.6-.6.3-.1 1.1.4.8zM17.1 68.5c.7-.3 1.4-.5 2.1-.7.6-.1.3-1-.2-.9-.8.2-1.5.4-2.3.8-.6.2-.2 1 .4.8z"/><path fill="#29ADFF" d="M16.4 70.9c1.2-1.3 2.7-2.1 4.4-2.6.6-.1.3-1-.2-.9-1.8.5-3.5 1.4-4.8 2.8-.5.5.2 1.1.6.7z"/><path fill="#29ADFF" d="M16.4 73c1.2-1.9 3.1-3.1 5.3-3.4.6-.1.3-.9-.2-.9-2.4.3-4.6 1.7-5.9 3.8-.2.6.5 1 .8.5zM23.1 69.3c-1.1 1.3-2.5 2.4-4.1 3.1-1.2.5-2.5.7-3.1 2-.2.5.5 1 .8.5.6-1.3 2.9-1.7 4.1-2.4 1.1-.7 2.1-1.5 2.9-2.6.4-.4-.2-1-.6-.6z"/><path fill="#29ADFF" d="M15.8 76.7c1.5-1.8 2.9-3 5.2-3.6 1.6-.5 3.2-1 4.7-1.8.5-.3 0-1.1-.5-.8-2 1.2-4.2 1.4-6.3 2.3-1.6.7-2.6 2.1-3.7 3.3-.4.4.2 1 .6.6z"/><path fill="#29ADFF" d="M25.2 69.8c-2.1 2.7-4.6 4.3-7.5 5.8-1.9 1-3.3 2.2-3.6 4.3-.1.6.8.6.9 0 .4-3 4.2-3.9 6.3-5.3 1.8-1.2 3.2-2.6 4.5-4.2.4-.4-.3-1-.6-.6z"/><path fill="#29ADFF" d="M15.8 82.9c.3-2.8.9-5.5 3-7.5 1.9-1.8 4.4-2.7 6.8-3.7.5-.2.3-1.1-.2-.9-2.8 1.1-5.7 2.2-7.7 4.4-2 2.1-2.5 4.8-2.8 7.6 0 .7.9.7.9.1z"/><path fill="#29ADFF" d="M26.4 70.4c-1.6 2-3.3 4.2-6 4.5-.6.1-.6 1 0 .9 3-.3 4.9-2.5 6.6-4.8.3-.4-.3-1.1-.6-.6zM16.7 73.8c1.7-1.7 3.8-2.8 6-3.8.5-.3.1-1-.5-.8-2.2 1.1-4.4 2.2-6.2 3.9-.3.4.3 1.1.7.7z"/><path fill="#29ADFF" d="M22.7 76.2c2.3-1.3 4.1-3.3 5.2-5.7.2-.5-.5-1-.8-.5-1.1 2.3-2.7 4.1-4.9 5.3-.5.4 0 1.2.5.9z"/><path fill="#29ADFF" d="M27.5 70.8c-.8 2.2-2.2 3.9-4.2 5.1-.5.3 0 1.1.5.8 2.2-1.3 3.8-3.2 4.6-5.6.1-.6-.7-.8-.9-.3z"/><path fill="#29ADFF" d="M24.2 77.7c1.1-1 2.4-1.9 3.7-2.6.5-.3.1-1.1-.5-.8-1.4.8-2.7 1.7-3.9 2.8-.4.3.3 1 .7.6z"/><path fill="#29ADFF" d="M25.4 78.2c.6-.9 1.3-1.6 2.2-2.1.5-.3 0-1.1-.5-.8-1 .6-1.9 1.4-2.5 2.4-.3.6.5 1 .8.5z"/><path fill="#29ADFF" d="M25.1 79.7c.8-.8 1.8-1.6 2.8-2.2.5-.3 0-1.1-.5-.8-1.1.7-2.1 1.4-3 2.3-.3.4.3 1.1.7.7z"/><path fill="#29ADFF" d="M27.2 77.9c-.5 1-1.3 1.9-2.3 2.5-.5.3 0 1.1.5.8 1.1-.7 2-1.6 2.6-2.8.3-.6-.5-1-.8-.5z"/><path fill="#29ADFF" d="M25.5 82.1c.9-.6 1.8-1.3 2.7-1.9.5-.3 0-1.1-.5-.8-.9.6-1.8 1.3-2.7 1.9-.4.4.1 1.2.5.8z"/><path fill="#29ADFF" d="M27.6 79.9c-.8 1.1-1.6 2.1-2.5 3.2-.4.5.3 1.1.6.6.8-1.1 1.6-2.1 2.5-3.2.4-.4-.2-1-.6-.6z"/><path fill="#29ADFF" d="M26.4 84.3c.8-.8 1.6-1.5 2.4-2.3.4-.4-.2-1-.6-.6-.8.8-1.6 1.5-2.4 2.3-.5.4.1 1 .6.6z"/><path fill="#29ADFF" d="M28.2 82.2c-.6.9-1.2 1.7-1.9 2.6-.3.5.4.9.8.5.6-.9 1.2-1.7 1.9-2.6.3-.6-.5-1-.8-.5z"/><path fill="#29ADFF" d="M27 86.1c.8-.6 1.6-1.1 2.5-1.5.5-.2.3-1.1-.2-.9-1.1.4-2 1-2.9 1.8-.5.3.1 1 .6.6z"/><path fill="#29ADFF" d="M28.9 84.9c-.2.3-.5.6-.7.9-.4.5.4.9.8.5.2-.3.5-.6.7-.9.3-.5-.4-.9-.8-.5zM39 74.4c.5-.5 1-.8 1.6-1.1.5-.3.1-1-.5-.8-.7.3-1.2.7-1.7 1.3-.5.4.2 1.1.6.6zM38.6 75.7c.6 0 .6-.9 0-.9s-.6.9 0 .9zM34.7 86.6c1.7-1.3 2.9-2.9 3.7-4.9.2-.5-.7-.8-.9-.2-.7 1.7-1.8 3.2-3.3 4.3-.4.4.1 1.2.5.8z"/><path fill="#29ADFF" d="M38.2 80.3c-.4 2.4-1.4 4.5-3.2 6.3-.4.4.2 1 .6.6 1.8-1.8 3-4.1 3.4-6.7.2-.6-.7-.8-.8-.2z"/><path fill="#29ADFF" d="M36.2 87.6c1.9-1.6 3.1-3.6 3.7-6 .1-.6-.7-.8-.9-.2-.6 2.2-1.8 4.1-3.5 5.6-.4.3.2 1 .7.6z"/><path fill="#29ADFF" d="M38.9 82.3c-.1 1.6-.3 3.2-1.4 4.4-.4.4.3 1.1.6.6 1.3-1.4 1.5-3.2 1.6-5 .1-.6-.8-.6-.8 0z"/><path fill="#29ADFF" d="M38.8 87.5c.7-.6 1.2-1.4 1.4-2.3.2-.6-.7-.8-.9-.2-.2.7-.6 1.4-1.2 1.9-.4.3.2 1 .7.6z"/><path fill="#29ADFF" d="M39.6 85.6c0 .4-.1.8-.3 1.2-.2.5.7.8.9.2.2-.5.3-.9.3-1.4 0-.5-.9-.5-.9 0zM42.9 73.1c2.3.9 3 3.3 3.7 5.5.2.6 1 .3.9-.2-.7-2.5-1.7-5.1-4.3-6.1-.6-.2-.8.6-.3.8z"/><path fill="#29ADFF" d="M48.8 77.6c-.6-2.6-2.2-4.8-4.6-6.1-.5-.3-1 .5-.5.8 2.2 1.2 3.6 3.2 4.2 5.6.2.5 1.1.2.9-.3z"/><path fill="#29ADFF" d="M45.7 72.3c2.2.7 3.5 2.7 3.3 5-.1.6.8.6.9 0 .2-2.7-1.4-5-3.9-5.8-.6-.2-.9.7-.3.8z"/><path fill="#29ADFF" d="M50.9 76.9c.3-2.2-.5-4.2-2.2-5.5-.5-.4-.9.4-.5.8 1.4 1 2.1 2.8 1.8 4.5-.1.5.8.8.9.2z"/><path fill="#29ADFF" d="M50 72.5c1.7 1.2 2.1 3.3 1.1 5.1-.3.5.5 1 .8.5 1.2-2.3.6-4.8-1.5-6.3-.4-.4-.8.4-.4.7z"/><path fill="#29ADFF" d="M52.4 73.1c1.2 2.7.6 4.8.4 7.6-.2 1.7 1 4.5-.9 5.6-.5.3 0 1.1.5.8 2.3-1.4 1.2-3.9 1.3-6.2.2-3 .8-5.3-.5-8.2-.3-.6-1.1-.2-.8.4z"/><path fill="#29ADFF" d="M53.1 72.5c1.7 4.5 1.3 9.2.8 13.9-.1.6.8.6.9 0 .6-4.8 1-9.5-.8-14.1-.3-.5-1.1-.3-.9.2z"/><path fill="#29ADFF" d="M56.2 86.4c.7-4 .5-7.9-.7-11.7-.2-.5-1-.3-.9.2 1.2 3.7 1.4 7.4.7 11.2-.1.7.8.9.9.3z"/><path fill="#29ADFF" d="M55.9 76.6c1.8 2.8.4 6 .1 9-.1.6.8.6.9 0 .3-3.2 1.7-6.5-.2-9.4-.3-.5-1.1-.1-.8.4z"/><path fill="#29ADFF" d="M58.4 85.6c-.3-1.6-.1-3 .3-4.5.2-1 .3-1.9.1-2.8-.1-.6-1-.3-.9.2.3 1.4-.3 2.7-.5 4.1-.1 1.1-.1 2.1.1 3.2.1.6 1 .4.9-.2z"/><path fill="#29ADFF" d="M58.8 79.2c1 2.3-1.2 4.7-.2 7.1.2.5 1.1.3.9-.2-1-2.4 1.2-4.8.1-7.3-.2-.6-1-.2-.8.4z"/><path fill="#29ADFF" d="M59.7 79c1.3 1.8-1.6 6.8 1.7 7.5.6.1.8-.7.2-.9-1.7-.4-.9-3.9-.7-4.9.1-.8 0-1.5-.5-2.2-.2-.5-1 0-.7.5z"/><path fill="#29ADFF" d="M62.6 85c-1.5-1.8-.1-3.2 0-5.2.1-.9-.3-1.6-1-2.1-.5-.3-.9.4-.5.8.9.6.4 1.9.2 2.7-.2.6-.4 1.1-.4 1.7 0 1 .4 1.9 1.1 2.7.3.4 1-.2.6-.6zM51.4 77.4c1.2 3.1 1.1 6.3-.3 9.3-.3.5.5 1 .8.5 1.5-3.2 1.7-6.7.4-10-.3-.6-1.1-.4-.9.2z"/><path fill="#29ADFF" d="M62.1 78c1.4 1.7.7 3 .3 4.8-.2.9-.1 1.7.7 2.2.5.4 1.1-.3.6-.6-1.1-.9.3-3.2.2-4.4-.1-1-.5-1.9-1.2-2.7-.3-.4-.9.2-.6.7z"/><path fill="#29ADFF" d="M65.3 83.8c-1.6-.9.6-4.2.3-5.7-.3-1.2-1.2-2.1-2.4-2.5-.5-.2-.8.7-.2.9 4.4 1.6-1.7 6.2 1.8 8.1.5.2 1-.5.5-.8z"/><path fill="#29ADFF" d="M63.9 75c2 .6 3.1 2.4 2.5 4.5-.3.9-.8 1.7-.7 2.7.1 1.2 1 2 2.1 2.3.6.1.8-.7.2-.9-2.3-.6-.9-3-.6-4.4.1-.8.1-1.6-.2-2.4-.5-1.4-1.7-2.2-3.1-2.6-.6-.2-.8.7-.2.8z"/><path fill="#29ADFF" d="M68.6 82.1c-.5 0 .6-3.3.7-3.9 0-1-.3-1.9-.9-2.7-1.3-1.9-3.6-2.7-5.7-3.3-.6-.2-.8.7-.2.9 1.6.5 3.3 1 4.5 2.1.6.6 1.2 1.4 1.4 2.2.3 1.4-.4 1.9-.8 3.1-.5 1.2-.3 2.4 1.2 2.5.4 0 .4-.9-.2-.9zM61.7 70.1c.6 0 .6-.9 0-.9s-.6.9 0 .9z"/><path fill="#29ADFF" d="M62.5 70.3c2.6.6 6.3 1.7 6.1 5.1 0 .6.9.6.9 0 .2-3.8-3.7-5.2-6.8-6-.6-.1-.8.8-.2.9z"/><path fill="#29ADFF" d="M69.5 72.6c-.9-2-2.9-3-4.8-3.8-.5-.2-1 .6-.5.8 1.8.8 3.6 1.6 4.5 3.5.3.4 1.1 0 .8-.5zM68.3 78.4c.6 1.6-.5 3.5 1 4.8.4.4 1.1-.3.6-.6-1.2-1-.3-3-.8-4.4-.1-.6-1-.4-.8.2zM62.3 71.1c2.2.8 4.2 2.1 5.8 3.8.4.4 1-.2.6-.6-1.7-1.8-3.8-3.2-6.2-4-.5-.2-.7.6-.2.8zM66.1 68.8c1.8.6 3.3 1.6 4.6 3.1.4.4 1-.2.6-.6-1.3-1.6-3-2.7-5-3.3-.5-.3-.7.6-.2.8zM71.4 69.5c-1.3-1.8-2.7-3.7-4.9-4.2-.6-.1-.8.7-.2.9 2 .4 3.3 2.1 4.4 3.7.2.5 1 .1.7-.4z"/><path fill="#29ADFF" d="M67.1 64.8c2.9.5 5.1 2.6 5.8 5.4.1.6 1 .3.9-.2-.8-3.1-3.3-5.5-6.4-6-.7-.2-.9.7-.3.8z"/><path fill="#29ADFF" d="M74.3 70.6c2.2-3.7-3.9-7.3-6.4-8.7-.5-.3-1 .5-.5.8 2 1.1 7.9 4.5 6.1 7.5-.3.5.5.9.8.4z"/><path fill="#29ADFF" d="M69.6 63c3.2 1.9 6.4 4.4 5.1 8.7-.2.6.7.8.9.2 1.3-4.6-2-7.5-5.6-9.7-.4-.3-.9.5-.4.8z"/><path fill="#29ADFF" d="M76.7 71.3c1.7-1 1.6-2.9.7-4.4-.6-1-1.5-2-2.3-2.9-1-1-2.8-1.7-3.5-2.9-.3-.5-1.1-.1-.8.5.7 1.3 2.1 1.7 3.2 2.7 1.3 1.2 4.8 4.9 2.3 6.3-.6.2-.1 1 .4.7z"/><path fill="#29ADFF" d="M72 61.6c1.3 1 2.7 1.7 4 2.7 1.7 1.3 3.6 4.1 1.3 5.9-.5.3 0 1.1.5.8 1.5-1.2 1.9-3.1 1.1-4.8-1.2-2.5-4.1-3.6-6.2-5.2-.5-.4-1.2.3-.7.6z"/><path fill="#29ADFF" d="M78.7 71.1c1.9-1.2 2.9-3.6 1.8-5.8-1.7-3.4-6.3-3.5-8-6.9-.3-.5-1-.1-.8.5.8 1.7 2.3 2.7 3.9 3.6 1.1.6 2.3 1.2 3.1 2 1.8 1.8 1.5 4.5-.6 5.8-.3.4.1 1.2.6.8z"/><path fill="#29ADFF" d="M72.3 57.8c1.6 1.5 3.5 2.4 5.3 3.4 1.4.9 2.9 1.9 3.6 3.5 1.2 2.7-.5 4.7-2.6 6.3-.5.3 0 1.1.5.8 2.5-1.9 4.5-4.2 3-7.5-1.7-3.7-6.4-4.6-9.2-7.2-.4-.4-1.1.3-.6.7z"/><path fill="#29ADFF" d="M72.6 56.2c.8 1.9 3.8 2.8 5.6 3.1.6.1.8-.7.2-.9-.9-.2-1.8-.5-2.7-.9-.7-.3-2-.8-2.3-1.6-.1-.5-1-.2-.8.3zM79.9 72.3c1.7-.7 2.9-2 3.4-3.7.2-.6-.7-.8-.9-.2-.4 1.4-1.4 2.6-2.7 3.1-.6.2-.4 1.1.2.8z"/><path fill="#29ADFF" d="M80 74.1c1.7-.5 2.7-1.9 3.6-3.2.3-.5-.5-.9-.8-.5-.8 1.2-1.6 2.4-3.1 2.8-.5.2-.3 1 .3.9zM80.6 75.5c.8-.4 1.4-1 2-1.6.4-.4-.3-1.1-.6-.6-.5.6-1.1 1.1-1.8 1.5-.6.2-.1 1 .4.7zM80.3 77l1.2-.6c.5-.3.1-1-.5-.8l-1.2.6c-.4.3 0 1 .5.8z"/><path fill="#F15B29" d="M16 18c3.4-1.9 4.8-.7 4.2 3.4-.1.3-.2.7-.2 1-.2 1.2-.7 2.3-1.1 3.4-.6 1.9-1 3.7-1 5.7 0 .6.9.6.9 0 .1-3.2 1.3-5.9 2.1-8.9.4-1.7.7-3.7-.3-5.3-1.5-2.3-4.5-2.1-5.4.4-.3.7.6.9.8.3z"/><path fill="#F15B29" d="M16.3 19.2c2.1-.5 2.9.1 2.5 1.6.1.6 0 1.2-.3 1.8-.2.8-.6 1.5-.8 2.3-.4 1.4-.4 2.7-.4 4.1 0 .6.9.6.9 0-.1-2.6.7-4.5 1.4-6.9.3-1.3.4-2.7-.5-3.7-1.2-1.3-3-1-3.7.6-.2.5.6.8.9.2z"/><path fill="#F15B29" d="M16.7 20.3c.8-.1 1.1.2.9.7 0 .3 0 .6-.1.9-.1.5-.3.9-.5 1.4-.3.7-.7 1.4-1.1 2.1-.3.5.5 1 .8.5.9-1.4 2.4-3.7 1.8-5.5-.4-1.2-1.8-1.6-2.6-.5-.3.4.5.9.8.4z"/><path fill="#DD1E61" d="M21.7 12.1c-.3 1.8-.5 7.6 2.6 7.2 3.4-.5 3.4-5.6 3.8-8.2.1-.6-.8-.8-.9-.2-.2 1.9-.2 4.4-1.3 6.1-.2.4-.7 1-1.2 1.2-1.6.6-1.8-.7-2-1.6-.4-1.4-.4-2.8-.2-4.2.1-.6-.7-.8-.8-.3z"/><path fill="#DD1E61" d="M22.1 12.7c.4 1.7 1.6 4 3.7 3.8 2.2-.2 2.3-2.7 2.2-4.4 0-.6-.9-.6-.9 0 .1 1.2.2 3.7-1.7 3.5-1.5-.2-2.2-1.8-2.5-3.1 0-.6-.9-.4-.8.2z"/><path fill="#DD1E61" d="M23.1 12.3c-.7 1.6-.8 4.9 1.6 5.1 2.4.3 3.9-2.4 3.2-4.4-.2-.5-1-.3-.9.2.5 1.4-.3 3.3-2 3.3-1.8.1-1.6-2.7-1.1-3.8.2-.5-.6-1-.8-.4z"/><path fill="#DD1E61" d="M24.3 11.9c-.4.9-.8 2.3.4 2.8 1.1.4 2-.6 2.5-1.5.3-.5-.5-1-.8-.5-.3.4-.6 1.1-1.2 1.1-.8 0-.4-1.1-.2-1.5.3-.4-.4-.9-.7-.4z"/><path fill="#DD1E61" d="M25.2 12c-.4.3-.4.9 0 1.3s1.1.3 1.4-.2c.4-.4-.3-1.1-.6-.6-.1 0-.1.1-.1.2.3-.5-.3-1.1-.7-.7z"/><path fill="#DD1E61" d="M22.2 13.8c-.4 1.5.1 5 2.5 4.5 1-.2 1.6-1.3 1.9-2.2.5-1.2.8-2.5.8-3.8 0-.6-.9-.6-.9 0 0 1.4-.3 2.8-1 4-.3.5-.3.5-.9.7-.5.4-.9.3-1.1-.3-.1-.1-.1-.2-.2-.3-.4-.8-.4-1.7-.2-2.5.1-.4-.8-.6-.9-.1z"/><path fill="#F15B29" d="M27.4 27.8c-.3-1.1-.5-2.2-.7-3.3-.1-.8-.3-1.6-.3-2.4v-.6c-.2-1.3.3-1.8 1.5-1.5 1.4 0 1.1 0 1.6 1.1.2.5.5 1.1.7 1.6.5 1.2 1 2.3 1.5 3.5.2.5 1 .1.8-.5-.9-2.1-1.6-4.5-2.9-6.4-.6-.9-1.4-1.4-2.4-.9-3.1 1.4-1.3 7.2-.7 9.6.2.6 1 .3.9-.2z"/><path fill="#F15B29" d="M32.3 26.9c-.8-1.7-1.6-3.4-2.6-5-.4-.7-1-1.6-2-1.4-1 .2-1 1.5-1.1 2.3-.1 1.6.2 3.2.8 4.7.2.5 1.1.3.9-.2-.4-1-.7-2.1-.8-3.2 0-.7-.2-3.1 1-2.3.7.5 1.2 1.9 1.5 2.6.5 1 1 2 1.4 3 .4.4 1.1 0 .9-.5z"/><path fill="#F15B29" d="M28.7 27.8c0-.6-.1-1.2-.2-1.7-.1-.4-.5-2.6.1-2.4.5.1.9 1.4 1.1 1.9.3.7.4 1.4.6 2.1.1.6 1 .3.9-.2-.2-1.1-.6-2.2-1.1-3.2-.3-.6-.7-1.7-1.6-1.6-2 .4-.6 4.1-.6 5.2-.1.5.8.5.8-.1z"/><path fill="#F15B29" d="M30.9 27.6c-.5-1.2-1.2-2.1-2.3-2.8-.2-.2-.6 0-.7.3-.1.7 0 1.4.3 2.1.3.5 1 .1.8-.5-.2-.4-.3-.9-.2-1.4-.2.1-.4.2-.7.3.8.6 1.5 1.3 1.8 2.3.3.5 1.2.3 1-.3zM37.9 10.8c-.3 1.4-.3 4 1.9 3.8 1.8-.2 3.1-1.9 3.7-3.4.2-.5-.7-.8-.9-.2-.3 1-1 1.8-1.9 2.4-.6.4-1.5.6-2-.2-.3-.6-.1-1.4 0-2.1.2-.7-.6-.9-.8-.3z"/><path fill="#F15B29" d="M39.8 10.4c-.3.7-.8 2.2.2 2.5.9.2 1.8-.5 2.3-1.1.3-.5-.4-.9-.8-.5-.1.2-.3.3-.5.5-.1.1-.5.3-.6.2-.2-.1.2-1.2.3-1.4.2-.5-.7-.7-.9-.2z"/><path fill="#F15B29" d="M40.3 11c-.1.4-.1.9.2 1.3.3.3.8.3 1.1 0 .4-.4-.2-1-.6-.6.1 0 .2 0 .1-.1v-.2c.2-.7-.7-1-.8-.4z"/><path fill="#DD1E61" d="M42.3 25.2c.2-1.5.3-2.9.6-4.4.2-.9.3-2.9 1.1-3.6 1.1 0 2.3.1 3.4.1.1.4.2.7.2 1.1.1.6.2 1.3.2 1.9 0 1.5-.3 3-.5 4.5-.1.6.8.8.9.2.4-2.4 1.9-9.8-2.2-9.9-4.2-.1-4.2 7.3-4.5 10-.2.7.7.7.8.1z"/><path fill="#DD1E61" d="M47.5 25.4c.2-1.8.1-3.7-.3-5.5-.2-.9-.6-2.3-1.8-2.3-1.1.1-1.6 1.4-1.8 2.3-.6 1.8-.7 3.7-.7 5.5 0 .6.9.6.9 0 0-1.2 0-2.4.2-3.5.1-.4.2-.9.3-1.3.2-.8.2-1.4 1.1-1.5.8 0 .7.3.9 1 .2.7.3 1.3.4 2 .1 1.1.1 2.2-.1 3.2 0 .7.9.7.9.1z"/><path fill="#DD1E61" d="M44 26.1c.2-1.1.4-2.1.6-3.2.2-.8.5.1.6.5.1.7.1 1.3 0 2-.1.6.8.8.9.2.2-1 .4-4.2-1.2-4.2-.6 0-.9.6-1 1.1-.3 1.1-.4 2.3-.7 3.4-.2.5.7.8.8.2z"/><path fill="#009142" d="M53.9 11.2c-.8 2.4-1.6 4.8-2.3 7.3-.4 1.3-1.1 3.6-.2 4.9 1.5 2.3 4-1.1 4.8-2.3.3-.5-.5-.9-.8-.5-.6.9-2.4 4-3.5 1.3-.3-.8.4-2.8.7-3.7.7-2.3 1.4-4.6 2.2-6.9.2-.5-.7-.7-.9-.1z"/><path fill="#009142" d="M54.9 11.6c-.9 2.4-1.6 4.9-2.2 7.4-.2.9-.6 2.5.7 2.7 2.9.4 4.7-6.5 5.7-8.2.3-.5-.5-1-.8-.5-.6 1-1.1 2.1-1.5 3.2-.3.7-1.3 3.7-2.3 3.9-1.6.4-.9-1-.7-1.6.2-.7.4-1.4.5-2 .4-1.6.9-3.2 1.5-4.7.2-.6-.7-.8-.9-.2z"/><path fill="#009142" d="M56 11.9c-.7 1.3-1.3 2.6-1.7 4-.2.6-.7 1.9.2 2.3.9.4 1.7-1 2.1-1.6.8-1.1 1.2-2.4 1.5-3.7.1-.6-.8-.8-.9-.2-.2.9-.4 1.8-.8 2.6-.3.6-.9 1.8-1.4 2-.1.2-.1.1 0-.4.1-.3.1-.5.2-.7.1-.4.2-.7.3-1.1.3-.9.7-1.8 1.2-2.7.4-.6-.4-1-.7-.5z"/><path fill="#FF36E2" d="M61.6 27.7c.5-2.2 2.4-7.8-.6-9.1-3.4-1.4-4.6 4.7-4.9 6.7-.1.6.8.8.9.2.2-1 .3-1.9.6-2.9.2-.6.4-1.2.7-1.7.1-.2.3-.4.4-.6.6-1 1.5-.9 2.9.4.4.9 0 2.5-.2 3.4-.2 1.1-.4 2.2-.7 3.3-.1.6.8.9.9.3z"/><path fill="#FF36E2" d="M60.9 26.6c.6-1.5 1.4-5.8-1-6.3-2.4-.6-2.7 3.7-2.6 5.1 0 .6.9.6.9 0 0-.7 0-1.5.1-2.2l.3-.9c0-.1.1-.3.2-.4.2-.6.7-.6 1.6.1.3.5.2 1.4.2 1.9 0 .9-.2 1.7-.5 2.5-.3.5.6.8.8.2z"/><path fill="#FF36E2" d="M58.3 25.9c.1-.9.2-1.8.7-2.6.1-.1.4-.6.6-.4.1.1-.1.8-.1.8l-.3 1.5c-.2.5.7.8.8.2.2-.8 1.1-4-.8-3.5-1.5.4-1.7 2.7-1.8 4-.1.6.8.6.9 0zM64.9 12.8c.1.7.4 1.5 1.2 1.4.4 0 .8-.3 1.2-.5.5-.3 1-.5 1.5-.8.5-.3.1-1-.5-.8-.4.2-.9.4-1.3.7-.4.2-1.2.8-1.2 0-.1-.5-1-.5-.9 0z"/><path fill="#5F740D" d="M69.6 13.7c-1.2 4.5-1.7 9.2-1.6 13.9 0 1.5-.1 4.6 2.1 4.9 1.9.3 2.4-1.8 2.8-3.2 1.2-4.5.8-9.1 2.4-13.5.2-.5-.7-.8-.9-.2-.7 2-1.1 4.1-1.4 6.2-.3 2.2.1 6.1-1.2 7.9-.2 1.5-1.2 1.2-2.9-.7v-1.4c-.2-1.2 0-2.9.1-4.2.2-3.2.7-6.4 1.5-9.5.1-.5-.8-.8-.9-.2z"/><path fill="#5F740D" d="M73.6 14.9c-.5 1.7-1 3.5-1.5 5.2-.2.6-1 5.1-1.5 5.2-.4-.3-.7-.6-1.1-.8 0-.4 0-.8.1-1.3.1-.7.2-1.4.3-2.2.3-2.2.3-4.6 2.2-6.1.4-.4-.2-1-.6-.6-2 1.6-2.1 4-2.4 6.3-.2 1.3-1.4 6 .6 6.9.9.4 1.2-.3 1.6-1 .8-1.7 1.1-3.9 1.6-5.7.5-1.9 1.1-3.8 1.6-5.7.2-.5-.7-.8-.9-.2z"/><path fill="#5F740D" d="M71.3 15.5c-.8 2.6-1 5.1-1 7.8 0 1.1-.5 3.8.8 4.5 2.3 1.2 1.8-6.9 1.9-8 0-.6-.9-.6-.9 0-.1 1.3-.1 2.6-.2 3.9 0 .2.1 2-.1 2.1-.8.5-.5-.8-.5-1.2 0-3 .1-6 1-8.9.1-.5-.8-.7-1-.2z"/><path fill="#5F740D" d="M68.6 18.7c-1.3 2.9-2 6.1-1.4 9.3.3 1.9.9 4.8 3.2 5.2 1.9.3 2.9-1.5 3.3-3.1.8-4.1.4-9 2.4-12.9.3-.5-.5-1-.8-.5-1.5 2.9-1.7 6.8-2.1 10-.1.9.1 2.7-.4 3.5-2.6 1.1-4 .8-4.3-.9-.2-.8-.4-1.6-.4-2.4-.3-2.7.3-5.3 1.4-7.8.1-.5-.6-.9-.9-.4z"/><path fill="#5F740D" d="M72.7 15.4c-1.1 1.5-1.5 3.1-1.7 5-.1 1.6-.2 3.2-.4 4.8 0 .3-.1.7-.1 1 .2 1-.3 1.5-1.4 1.5-.2-.6-1-.3-.9.2.5 1.8 2.3 1.8 3 .2.6-1.3.4-3.2.6-4.7.2-2.7 0-5.3 1.7-7.6.3-.4-.5-.8-.8-.4z"/><path fill="#B34949" d="M81.4 26.8c-1.6 1.3-1.7 3.2-2 5.2-.4 2.5-.6 5-.4 7.6 0 .6.9.6.9 0-.1-2.1 0-4.1.3-6.1s.3-4.6 1.9-6c.4-.4-.3-1.1-.7-.7z"/><path fill="#B34949" d="M82.2 28.6c-1.2 2-1.9 4.1-1.9 6.4 0 .6.9.6.9 0 0-2.2.6-4.2 1.8-6 .3-.4-.5-.9-.8-.4z"/><path fill="#9D7BCF" d="M70 34.4c-.6 2.7-.7 5.4-.9 8.2 0 .7 0 1.5-.1 2.2 0 .8-.2 1.4-.8 2-.3 1.8-1 2-2 .6-1.4-1-1.5-1.3-1-3 .2-1 .7-1.8 1.3-2.6.3-.5-.4-.9-.8-.5-1.5 2.2-3.3 8.6 1.3 7.9 1.8-.2 2.4-1.1 2.7-2.8.7-3.9.3-7.9 1.1-11.8.2-.5-.7-.7-.8-.2z"/><path fill="#9D7BCF" d="M65.8 40c-.1 1-1 9.4 2.4 6.9 1.2-.9 1.1-2.9 1.1-4.2-.1-3.1-1-6.6 1.8-8.9.4-.4-.2-1-.6-.6-1.9 1.6-2.3 3.9-2.3 6.3 0 .9.8 5 .1 5.6-.6-.1-1.1-.3-1.7-.4v-1.4c0-1.1.1-2.1.2-3.2-.1-.7-1-.7-1-.1z"/><path fill="#9D7BCF" d="M68.3 34.5c-1.9 3-2.3 6.5-1.4 10 .2.6 1 .3.9-.2-.9-3.2-.5-6.4 1.3-9.3.3-.6-.5-1-.8-.5z"/><path fill="#FFBF41" d="M71 43.3c-.3 1.4-.7 2.8-1.1 4.1-.2.5.7.8.9.2.5-1.4.9-2.7 1.1-4.1.1-.5-.7-.7-.9-.2z"/><path fill="#FFBF41" d="M71.7 44.6c-.2.8-.6 1.5-1.1 2.2-.3.5.4.9.8.5.5-.7.9-1.6 1.1-2.5.3-.6-.6-.8-.8-.2z"/><path fill="#FF36E2" d="M66.6 53.3c-.6 1.9-1.1 6.3 1.6 6.9 3.2.7 3.6-3.7 4.4-5.6.2-.5-.7-.8-.9-.2-.6 1.5-.8 5.1-3.1 5-2.4-.1-1.6-4.5-1.2-5.8.2-.6-.7-.9-.8-.3z"/><path fill="#FF36E2" d="M67.8 53.1c-.3 1-.4 2.1-.3 3.1 0 .6.1 1.3.8 1.6.7.3 1.4-.3 1.9-.7.7-.5 1.2-1.2 1.6-2 .3-.5-.5-1-.8-.5-.3.7-1.3 2.3-2.2 2.2-.4-.1-.3-.2-.4-.6v-.9c0-.7.1-1.3.3-2 .1-.5-.8-.7-.9-.2z"/><path fill="#FF36E2" d="M68.8 53.3c-.3.7-.4 1.7.3 2.2.6.4 1.3.1 1.6-.5.2-.5-.7-.8-.9-.2-.1.3-.4-.3-.4-.4 0-.3.1-.6.2-.8.3-.6-.6-.8-.8-.3zM54.7 53.6c.2-.6.4-1.1.7-1.7.3-.4.7-1.2 1.2-1.4h.8c.1.2.2.4.2.6.1.3.1.7.1 1 0 .6-.1 1.2-.3 1.8-.2.5.7.8.9.2.4-1.1.9-4.4-.9-4.8-.9-.2-1.6.7-2.1 1.3-.6.8-1.1 1.7-1.3 2.6-.4.7.5.9.7.4z"/><path fill="#FF36E2" d="M55.5 54c.1-1 .6-1.9 1.5-2.4-.2-.1-.4-.2-.7-.3.3.9.3 1.8 0 2.7-.2.5.7.8.9.2.4-1 .4-2.1 0-3.1-.1-.3-.4-.4-.7-.3-1.1.7-1.8 1.9-1.9 3.2 0 .6.9.6.9 0zM42.9 52.7c-.2-1-.1-2.7 1.4-2.2 1.2.4 1.4 2 1.5 3.1.1.6 1 .6.9 0-.2-1.6-.7-3.9-2.7-4-2-.1-2.2 1.9-2 3.4.1.5 1 .3.9-.3z"/><path fill="#FF36E2" d="M44.1 53c-.1-.2-.3-.6-.2-.9.2-.5.4 0 .4.2.1.5 0 1 .2 1.5.3.5 1 .1.8-.5-.2-.5 0-1.1-.2-1.6-.2-.4-.5-.8-1-.8s-.9.4-1 .8c-.2.6.1 1.1.3 1.6.2.7.9.3.7-.3z"/><path fill="#B34949" d="M71.7 82c-.2-1.1-.5-2.2-.7-3.4-.1-.7-.6-2.8-.2-3.4.9-.2 1.7-.4 2.6-.7 0 .2.1.3.1.5.2.3.2.9.3 1.3.3 1 .5 2.1.8 3.1.1.6 1 .3.9-.2-.4-1.6-1.1-8.2-4.2-6.7-3 1.4-1.1 7.5-.6 9.8.2.5 1.1.2 1-.3z"/><path fill="#B34949" d="M75 80.7c0-1.4.3-6.6-2.2-6.3-.8.1-1.3.9-1.4 1.6-.3 1.8 0 4 0 5.8 0 .6.9.6.9 0v-2.7c0-.5-.3-2.2 0-2.6.5-.2.9-.3 1.4-.5 0 .1.1.2.1.4.2.3.2 1 .3 1.4.1 1 .2 1.9.1 2.9-.1.6.8.6.8 0z"/><path fill="#B34949" d="M73.1 81.3c0-.5.1-1.1.1-1.6s0-1.2.1-1.6c-.1.4 0 1.1-.1 1.5-.1.7-.2 1.3-.4 2-.1.6.7.8.9.2.3-1.1.5-2.2.5-3.3 0-.6 0-1.4-.8-1.6-.6-.2-1 .4-1 .9-.1 1.2-.2 2.4-.2 3.5 0 .6.9.6.9 0z"/><path fill="#EC1D25" d="M76.4 73.8c0-.6.4-.7 1.2-.3v.4c.2.4 0 1.3-.1 1.8-.1 1.1-.1 2.2-.3 3.4-.1.6.8.6.9 0l.3-4.2c0-.8.2-2-.4-2.7-1.1-1.3-2.3.2-2.5 1.3 0 .6.8.9.9.3z"/><path fill="#EC1D25" d="M77.6 78.6c.3-1.3.6-6.2-2-5.1-.5.2-.1 1 .5.8.7-.3.9 2 .9 2.2 0 .7-.1 1.3-.2 1.9-.2.6.6.8.8.2z"/><path fill="#FF4577" d="M54.7 72.1c.6 2.1 2.8 6.6 5.7 5.3 3.3-1.4 1-5.5.3-7.7-.2-.6-1-.3-.9.2.5 1.5 2.6 4.9.8 6.2-2.4 1.8-4.5-2.5-5-4.3-.2-.5-1.1-.3-.9.3z"/><path fill="#FF4577" d="M58.9 71.2c.4.9 1 2.9.3 3.9-.7.9-1.3-.5-1.4-1-.2-.7-.3-1.4-.3-2.1 0-.6-.9-.6-.9 0 0 1.2.6 5.2 2.7 4.3 1.9-.8 1-4.2.4-5.5-.3-.6-1.1-.1-.8.4z"/><path fill="#FF4577" d="M57.4 72.2c.3.5 0 1.2.2 1.7.2.4.6.7 1.1.6 1.1-.2 1-2 .7-2.7-.2-.5-1.1-.3-.9.2.1.3.2.6.2.9 0 .1-.1 1-.3.5-.1-.3 0-.6 0-.9 0-.3-.1-.5-.2-.8-.3-.4-1.1 0-.8.5z"/><path fill="#A8DD5B" d="M28.4 71.1c-.7 2.6-.8 5.3 0 7.8.5 1.7 1.4 4.3 3.1 5 5 2.1 5.7-8 6.2-10.4.1-.6-.8-.8-.9-.2-.3 1.7-.6 3.4-.9 5-.1.7-.3 1.3-.5 2-.6 1.7-2 4.3-4.6 1.8-2.5-2.4-2.3-7.8-1.5-10.8.1-.5-.7-.7-.9-.2z"/><path fill="#A8DD5B" d="M35.8 71.8c-.2 1.4-.5 2.8-.9 4.1-.2.7-.4 1.3-.7 2-.2.5-.5 2-1 2.3-.6.1-1.3.2-1.9.3-.3-.6-.4-1.2-.4-1.9-.1-.7-.1-1.4-.1-2.1 0-1.6.3-3.1.6-4.6.1-.6-.7-.8-.9-.2-.6 2.4-.8 4.8-.5 7.3.1 1.2.4 2.8 1.9 3 1.4.1 2.1-1.4 2.5-2.4 1-2.4 1.7-4.9 2.2-7.5.2-.6-.7-.8-.8-.3z"/><path fill="#A8DD5B" d="M31.4 71.8c-.4 1.2-1.6 5.9.6 6.1 1 .1 1.6-1 2-1.8.6-1.2 1-2.5 1.1-3.9.1-.6-.8-.6-.9 0-.1 1-.8 4.7-2.1 4.5-.6-.1-.5-.4-.5-.9v-1.2c.1-.9.3-1.7.5-2.5.4-.6-.5-.8-.7-.3z"/><path fill="#A8DD5B" d="M34.3 71.6c-.5.3-.5.8-.9 1.2-.3.4-.2-.3-.1-.5.1-.4.2-.8.4-1.1.2-.5-.5-1-.8-.5-.3.7-1.1 2.5-.1 3 .4.2.8.1 1.1-.2.4-.3.4-.9.8-1.2.6-.3.1-1-.4-.7z"/><path fill="#A8DD5B" d="M29.7 70.7c-1 2.2-1.5 4.5-1.2 6.9.2 1.4.6 3.7 2.1 4.3 3.6 1.4 5.4-7.2 6-9.2.2-.6-.7-.8-.9-.2-.4 1.4-.8 2.8-1.3 4.2-.3.8-.6 1.5-1 2.2-.6 1.2-.7 1.8-2.2 1.6-1.3-.2-1.3-.5-1.6-1.7-.2-.8-.3-1.7-.3-2.6 0-1.8.4-3.5 1.2-5.1.2-.4-.6-.9-.8-.4z"/><path fill="#A8DD5B" d="M35.6 72.8c-.2 1.4-.4 2.7-.8 4-.2.5-.3 1-.5 1.5 0 .1-.7 2-1 2.2-1 .6-1.6 0-1.9-.9-.2-.5-.3-1.1-.3-1.7 0-1.5.5-2.8 1.5-3.9.4-.4-.3-1.1-.6-.6-1.1 1.3-1.7 2.9-1.7 4.6 0 1.3.4 3.5 1.8 4.1 3 1.4 4.4-7.6 4.6-9.2-.1-.6-1-.6-1.1-.1z"/><path fill="#FF634D" d="M42.4 85.8c-1.1-2.2-1.8-4.7-1.6-7.2.1-1.4-.1-1.2 1.7-1.4 1.8-.1 1.6-.1 2.1 1.3.4 1 .7 2.1 1 3.2.2.6 1 .3.9-.2-.5-1.7-2.1-8.6-5.4-5.9-1.1.9-1.1 2.8-1.1 4.1.1 2.3.7 4.5 1.7 6.5.1.6.9.1.7-.4z"/><path fill="#FF634D" d="M45.2 80.9c-.3-1.3-1.6-5.4-3.6-3.6-.9.8-.9 2.6-.7 3.7.2 1.8.9 3.6 1.6 5.3.2.5 1.1.3.9-.2-.7-1.7-1.4-3.5-1.6-5.3v-1.2c.8-1.4 1.3-1.6 1.7-.7.5.5.7 1.7.9 2.4.1.4 1 .2.8-.4z"/><path fill="#FF634D" d="M43.8 84.7c-.3-1-.8-2.2-.9-3.3 0-.1-.1-.8.2-.8l.2.6c.2.5.3 1.1.4 1.6.1.6 1 .3.9-.2-.1-.8-.6-4-2.1-3-.6.4-.5 1.1-.4 1.7.2 1.2.5 2.5.9 3.7.1.5 1 .2.8-.3z"/><path fill="#FF4577" d="M45.1 86.1c.5-1.3 1-2.6 1.7-3.9.2-.5.5-.9.8-1.4.2-.3.3-.5.5-.8.4-1 1-1.2 1.8-.4 1.1 0 1.5.5 1 1.4-.1.2-.1.4-.2.6l-.6 1.8c-.5 1.4-1.2 2.6-2.1 3.9-.3.5.5.9.8.5 1.2-1.8 5.3-8.5 1.9-10-3.3-1.5-5.8 5.9-6.5 8-.2.6.7.8.9.3z"/><path fill="#FF4577" d="M47.7 87.7c1.2-1.5 2.5-3.1 3-5 .3-1 .7-2.9-.5-3.6-2.9-1.5-4.7 6.9-5.1 8.3-.2.5.7.8.9.2.4-1.2.8-2.3 1.2-3.5.3-.9.6-2.7 1.3-3.2.6-.1 1.1-.1 1.7-.2 0 .5 0 1-.2 1.5-.2.7-.4 1.3-.7 1.9-.6 1.1-1.3 2-2.1 3-.5.4.1 1 .5.6z"/><path fill="#FF4577" d="M46.9 86.4c1-1.5 1.9-3.2 2.7-4.9.2-.5-.5-1-.8-.5-.8 1.7-1.7 3.3-2.7 4.9-.3.5.5.9.8.5z"/><path fill="#FF634D" d="M18.2 82.4c0-1.1.2-2.3.5-3.4.2-.5.3-1.4.7-1.7.8-.6 1.6.1 2 1 .8 2.2 1 4.5.6 6.8-.1.6.8.6.9 0 .3-2.1.2-4.1-.4-6.2-.3-1-.7-2.9-2-3.1-2.7-.6-3.1 4.9-3.2 6.5-.1.7.8.7.9.1z"/><path fill="#FF634D" d="M19 83.5c0-1 .1-1.9.3-2.9.2-.7.8-2.3 1.6-2.5 2.6-.6 2.3 4.3 2.2 5.7 0 .6.9.6.9 0 .1-1.6.2-3.3-.5-4.8-.4-.9-1.2-2-2.3-1.9-2.8.2-3.1 4.5-3.2 6.4.1.6 1 .6 1 0z"/><path fill="#FF634D" d="M23.5 84.5c.4-1.9-.2-4.3-2-5.4-2.1-1.3-1.8 3.3-1.9 4.2 0 .6.9.6.9 0 0-.7 0-1.4.1-2.2 0-.2 0-1.2.2-1.2.3-.1.4.1.6.3 1.1 1 1.4 2.5 1.1 4 0 .6.9.8 1 .3z"/><path fill="#FF634D" d="M20.9 83.1c.1-.4.1-.7.2-1.1 0-.2.1-.3.1-.5 0-.1 0-.2.1-.3.1-.2 0-.2-.3-.1 0 0 .2.7.2.8 0 .3 0 .6-.2 1-.2.5.7.8.9.2.2-.5.2-1.1.1-1.6-.1-.4-.3-1-.7-1.2-.4-.2-.8.1-.9.5-.2.6-.3 1.4-.5 2 .1.6.9.8 1 .3z"/><path d="M27.1 28.5c-.6-1.7-1-3.5-1.2-5.3-.2-2-.1-5.5 2.9-4.6 3.4 1.1 3.1 6.1 4.1 8.8.2.5 1.1.3.9-.2-1.2-3-1.3-10.5-6.4-9.5-4.5.9-2 8.3-1.2 11 .2.6 1.1.3.9-.2z"/><path d="M20.4 12.7c0 2.1-.1 5.3 1.4 7 1.1 1.2 2.9 1.1 3.9-.1.4-.4-.2-1.1-.6-.6-1.5 1.7-3-.1-3.3-1.7-.3-1.5-.4-3.1-.4-4.7-.1-.4-1-.4-1 .1zM28 17.9c1.6-1.4 1.2-4.1 1.1-6 0-.6-.9-.6-.9 0 .1 1.6.5 4.2-.9 5.4-.4.3.3 1 .7.6z"/><path d="M15.3 16.9c6-3.9 5.4 4.6 4.7 7.6-.6 2.5-1.3 4.8-1.6 7.4-.1.6.8.6.9 0 .5-4.6 3.6-10 1.6-14.7-1.2-3-3.7-2.6-6.1-1-.4.2.1 1 .5.7zM36.7 10.5c-.8 2.3 0 5.1 2.6 5.7 2.9.7 4.7-2.2 5.8-4.4.2-.5-.5-1-.8-.5-.8 1.6-1.8 3.8-3.8 4-2.6.3-3.6-2.5-2.9-4.6.2-.5-.7-.8-.9-.2z"/><path d="M41.4 25.7c.2-3.2.2-8.7 3.5-10.6 4.8-2.8 4 8.3 3.8 10.6 0 .6.9.6.9 0 .2-2.7 1.4-12.9-3.8-11.9-4.7.9-5 8.3-5.2 11.9-.2.6.7.6.8 0z"/><path d="M52.6 11.2c-1 2.6-6.1 13.8-.9 14.9.6.1.8-.7.2-.9-3.9-.8.8-11.7 1.5-13.8.2-.5-.6-.7-.8-.2zM58.7 12.5c1.1 1 .4 4.1.2 5.4-.1.6.8.8.9.2.2-1.3.4-2.6.4-3.9 0-.9-.1-1.7-.8-2.4-.5-.3-1.2.4-.7.7z"/><path d="M56.1 25.5c.2-1.5.5-3 1.2-4.3.7-1.5 3.7-5.4 5.4-1.7.5 1.1.3 2.8.2 3.9-.1 1.7-.3 3.3-.8 4.9-.1.6.7.8.9.2.7-2.7 2.6-10.8-1.8-11.4-4-.5-5.7 5.3-6 8.3-.1.7.8.7.9.1zM62.9 11.9c.4 3.2 4.2 4.6 6.4 2.2.4-.4-.2-1.1-.6-.6-1.7 1.8-4.6.9-4.9-1.6-.1-.6-1-.6-.9 0z"/><path d="M68.7 14.2c-1.6 4.2-6.5 18.4 1 20.4 2.2.6 3.8-1.1 4.5-3 1.8-4.4 1.7-10.2 2.3-14.9.1-.6-.8-.8-.9-.2-.4 2.8-.8 5.7-1.2 8.5-.2 1.1-.3 2.3-.5 3.4l-.3 1.8c-.1 2-1.1 2.8-3 2.4-2.1.9-3.3.2-3.6-2.3-.1-.8-.2-1.6-.4-2.3-.1-1.8.2-3.8.5-5.5.5-2.7 1.3-5.4 2.3-8 .4-.6-.5-.8-.7-.3z"/><path d="M70.8 34.5c.5 5.3-.4 10.4-2.7 15.3-.3.5.5 1 .8.5 2.4-5 3.4-10.2 2.8-15.7-.1-.7-1-.7-.9-.1z"/><path d="M71.1 42.6c1.4 1.6 1.7 3.7.8 5.6-.2.5.5 1 .8.5 1.1-2.3.7-4.8-1-6.7-.4-.5-1 .2-.6.6z"/><path d="M15.3 13.8c16.8-2.7 34.5-3.1 51.3-.1 9.6 1.7 16.2 8.1 14.5 18.4-1.5 9-8.2 17-17.8 16.5-1.9-.1-1.9 2.9 0 3 17.3.9 29.2-25.1 15-36.5-7.2-5.8-19.2-5.7-28-6.2-12-.7-24 0-35.8 1.9-1.9.4-1.1 3.3.8 3z"/><path d="M13.8 85c11.7 3.1 23.7 4.6 35.8 4.2 10.1-.4 21.9-1.7 30.4-7.6 6.8-4.8 6.6-12.7 2.9-19.5-4-7.3-11.3-11.8-19.4-12.7-1.9-.2-1.9 2.8 0 3 8 .9 15.3 6.3 18.1 14 4 11-5.9 15.3-14.7 17.6-16.8 4.4-35.6 2.7-52.2-1.7-2-.7-2.8 2.2-.9 2.7zM17.1 35.5c10.2-6.2 24.6-8.4 36.4-7.7 3.4.2 7.8.9 10.3 3.4 4 4 0 9.2-3.7 11.7-5.8 3.9-13.1 4.1-19.8 4.4-1.9.1-1.9 3.1 0 3 8.1-.3 17-.8 23.4-6.4 5-4.3 7-11.1 1.1-15.6-6.5-4.9-16-3.6-23.4-2.7-9.1 1-18 2.6-25.9 7.4-1.6.9-.1 3.5 1.6 2.5z"/><path d="M38.8 49.7c-.1 1.4.1 2.9.7 4.3.3.7 1 1.3 1.8 1 .7-.2 1.4-1.1 1-1.8-.5-1.1-.6-2.2-.5-3.5.1-.8-.7-1.5-1.5-1.5-.9 0-1.4.7-1.5 1.5z"/><path d="M41.5 55.9c5.6-.1 11.2.5 16.5 2.3 1.1.4 3.4.9 4.1 1.7 0 2.6.1 5.1.1 7.7-1.3.7-2.7 1.1-4.2 1.2-3 .6-6.2.7-9.3.9-11.6.6-23.1-.9-33.2-6.7-1.7-1-3.2 1.6-1.5 2.6 7.1 4.1 14.9 6.3 23 7 5.2.5 10.4.3 15.6-.1 3.6-.3 7.9-.4 11.1-2.2 4.7-2.7 5.4-8.4 1.1-12-5.9-4.9-16.1-5.6-23.4-5.4-1.9 0-1.9 3 .1 3z"/><path d="M13.6 64.3c.9 6 .6 11.9-.8 17.8-.4 1.9 2.5 2.7 2.9.8 1.5-6.4 1.7-12.9.8-19.4-.2-1.9-3.1-1.1-2.9.8zM12.6 12.2c.8 7.2 1.7 14.4 2.8 21.6.3 1.9 3.2 1.1 2.9-.8-1-6.9-1.9-13.9-2.7-20.8-.2-1.9-3.2-1.9-3 0zM63.8 42.9c-.5 1.5-1 3.1-1.2 4.7-.1.8 0 1.5.7 2 .5.3.9-.4.5-.8-.7-.5 0-2.3.2-3 .2-.9.5-1.8.8-2.7 0-.5-.8-.7-1-.2zM53.4 54.1c.3-1.8 1.1-4.3 3.2-4.8 2.5-.6 2.1 4.3 1.9 5.7-.1.6.8.6.9 0 .2-1.6.1-3.4-.2-5-.2-1-.8-1.6-1.8-1.7-2.9-.2-4.4 3.2-4.8 5.5-.1.7.7.9.8.3zM46.2 50c.9 1.1 1.5 2.4 1.9 3.7.2.6 1 .3.9-.2-.4-1.5-1.1-2.9-2.1-4.1-.4-.4-1 .2-.7.6z"/><path d="M48.6 51.5c.3-.8.7-1.6 1.2-2.3.3-.5-.5-.9-.8-.5-.5.8-.9 1.6-1.3 2.5-.1.6.7.9.9.3zM62.9 51.6c-.4 1 .2 2.1 1.1 2.5 1.3.5 2.6-.1 3.6-.8.5-.3 0-1.1-.5-.8-.6.4-1.3.9-2.1.9-.9 0-1.7-.7-1.3-1.6.3-.5-.6-.7-.8-.2z"/><path d="M65.5 54.3c-.2 1.7-.6 4.3.2 5.9.6 1.1 2.1 2 3.3 2.3 1.3.3 2.6-.7 3.2-1.8.3-.6.4-1.2.4-1.9 0-1.4 0-2.6.4-3.9.2-.6-.7-.8-.9-.2-.3 1.1-.5 2.2-.5 3.4 0 1.7-.5 4-2.8 3.4-1.5-.4-2.5-1.5-2.6-3-.1-1.4 0-2.8.1-4.2.2-.6-.7-.6-.8 0zM71.3 82.7c-.6-1.7-1-3.4-1.1-5.2-.1-1.1-.3-4.2.4-5 1.2-.2 2.4-.3 3.5-.5.2.4.4.8.5 1.2.3.6.4 1.3.6 2 .6 2.2 1.1 4.3.8 6.5-.1.6.8.8.9.2.4-3.1-.3-6.1-1.4-9-.6-1.4-1.5-3.1-3.3-3.1-4.9.2-2.7 10.5-1.8 13 .2.7 1.1.4.9-.1z"/><path d="M75.4 72.6c.6-1.4 2.3-1.9 3.3-.4.4.7.5 1.5.5 2.3 0 1.6-.2 3.1-.5 4.7-.1.6.7.8.9.2.5-2.3 1.4-6.1-.3-8.1-1.4-1.6-3.8-1-4.6.8-.3.6.4 1 .7.5zM53.8 72.3c1.6 2.4 3.7 8.2 7.7 6.1 3.6-1.9 1.3-6.5-.3-8.8-.3-.5-1.1 0-.8.5 1.3 1.9 3.7 5.9.6 7.6-3.3 1.8-5.2-3.8-6.4-5.7-.4-.7-1.1-.2-.8.3zM44.2 87c.7-1.6 1.4-3.2 2.1-4.7.6-1.4 1.2-3.5 2.6-4.3 3.4-1.9 2.8 3.2 2.4 4.7-.4 1.6-1.2 2.9-2.2 4.2-.4.5.4.9.8.5 1.5-2 5-8.7 1.2-10.4-1.5-.7-3.1.3-3.9 1.5-1.7 2.3-2.5 5.5-3.7 8.1-.3.5.4 1 .7.4z"/><path d="M41.8 86.5c-1.5-2.6-2.3-5.5-2.2-8.5 0-.8.1-1.6.3-2.4 2.2-1.7 3.7-1.5 4.6.4.8 1.1 1.3 2.4 1.7 3.7.2.5 1 .3.9-.2-.7-2.2-4-9.3-7.2-5.8-3 3.3-.7 10.1 1.1 13.4.3.4 1.1-.1.8-.6zM27.9 70.8c-.9 3.7-.3 7.3.6 10.9.6 2.2 1.2 4.6 3.8 4.5.6 0 .6-.9 0-.9-2.6 0-3.2-4.8-3.6-6.5-.5-2.7-.7-5.1 0-7.8.2-.5-.6-.8-.8-.2z"/><path d="M37.3 71.8c.7 2.4.8 4.9.2 7.3-.5 2.2-2.1 6.3-4.8 6.4-.6 0-.6.9 0 .9 2.6-.1 4.1-2.7 5-4.9 1.3-3.2 1.4-6.6.5-9.9-.2-.6-1-.4-.9.2zM17.3 82.4c.1-1.4.2-2.9.9-4.2 1.3-2.3 4.1-2.4 5.3 0 1.1 2.2 1.1 5.3 1.5 7.7.1.6.9.3.9-.2-.4-3-.2-9.5-4.2-10.2-3.9-.7-4.9 4.1-5.1 6.9-.3.6.6.6.7 0zM81 25.8c-2.3 1.2-2.5 3.7-2.9 6.1-.4 2.9-1.2 6.4-.2 9.3.2.5 1.1.3.9-.2-.7-2.1-.3-4.5-.1-6.7.3-2.4.2-6.3 2.7-7.7.6-.3.2-1.1-.4-.8z"/></svg>