<svg xmlns="http://www.w3.org/2000/svg" viewBox="0 0 98 98"><path fill="#F15B29" d="M15.6 20.7c3.9-3.9 9.9-3 12.6 1.8.2-.2.5-.4.7-.5-2.4-2-5.3-3.7-8.6-3.3-2.7.4-4.8 2.1-5.5 4.8-.1.5.5.7.8.3 1.6-2.2 3.3-3.4 6.3-2.7 1.9.4 4 1.1 4.9 2.9l.6-.6c-2.8-1.6-5.5-2.4-8.7-1.1-2.1.9-3.5 2.5-3.5 4.8 0 .5.6.6.8.2 2-2.8 5.7-5.4 8.9-2.6.1-.3.3-.5.4-.8-4.7-.7-7 1.2-8.9 5.5.3.1.5.2.8.3.8-2.1 2.5-3.5 4.7-3.8-.1-.3-.2-.6-.2-.8-2 1.2-2.6 4-4.9 4.7-.5.2-.3 1.1.2.9 2.5-.8 2.9-3.5 5.1-4.8.4-.2.2-.9-.2-.8-2.7.3-4.7 1.9-5.6 4.5-.2.5.6.8.8.3 1.6-3.7 3.6-5.7 7.9-5.1.4.1.8-.4.4-.8-3.7-3.2-7.9-.5-10.3 2.8.3.1.6.2.8.2 0-2.5 2-3.8 4.2-4.4 2.5-.6 4.5.2 6.6 1.4.4.2.8-.2.6-.6-1.2-2.4-4-3.2-6.5-3.5-2.9-.4-4.6 1.1-6.2 3.4.3.1.5.2.8.3 1.6-6.4 9-4.1 12.6-1.1.4.3 1-.1.7-.5-2.9-5.3-9.7-6.3-14-2-.2.4.5 1.1.9.7z"/><path fill="#6F48A3" d="M26.9 17.1c1.2-1.2 2.9-1.6 4.5-.8.1-.3.2-.6.2-.8-1.9.1-4.1.5-4.8 2.5-.2.5.5.7.8.3.5-.7 1.8-1.7 2.4-.5.1-.2.3-.5.4-.7-1.3 0-2.7.3-2.8 1.8 0 .5.6.5.8.2.3-.4.8-.4 1.2-.2.5.3.9-.5.5-.8-.9-.5-1.8-.3-2.4.5.3.1.6.2.8.2 0-.9 1.2-.9 1.9-.9.4 0 .5-.4.4-.7-1-1.9-3.1-.7-4 .5.3.1.5.2.8.3.6-1.6 2.5-1.8 4-1.8.4 0 .7-.6.2-.8-1.9-.9-4.1-.6-5.6.9-.4.6.3 1.2.7.8z"/><path fill="#F15B29" d="M29.3 23.8c1.7-3.9 3.9-8.2 8.9-8.3 5.1-.1 8.3 3.5 9.2 8.3.3-.1.5-.2.8-.3-1.9-4-5-7.8-9.8-7.8-4.6-.1-7.3 3.7-9 7.4-.2.5.5 1 .8.5 1.6-3.6 3.9-6.9 8.2-6.8 4.6.1 7.2 3.4 9 7.2.2.5.9.1.8-.3-.9-4.9-3.6-8.3-8.8-8.9-5.9-.7-8.9 3.8-11 8.7-.1.3.7.8.9.3z"/><path fill="#F15B29" d="M30.6 23.7c1.8-3.1 4.1-6 8.2-5.4 3.2.5 6.2 2.9 7.5 5.8.2.5 1 .1.8-.5-1.5-3.3-5-6.1-8.7-6.4-4.1-.4-6.6 2.7-8.5 6-.3.6.4 1 .7.5z"/><path fill="#F15B29" d="M46.4 23.8c-2.1-2.3-5-4.5-8.3-4.7-3.3-.1-5.3 2.2-7.1 4.6-.4.5.4.9.8.5 2-2.7 4.4-4.9 8-3.8 2.3.7 4.3 2.3 5.9 4.1.4.4 1.1-.3.7-.7z"/><path fill="#F15B29" d="M32.3 24.4c3.9-4.3 8.4-2.9 12.2.6.4.4 1.1-.2.6-.6-4.3-3.9-9.2-5.3-13.5-.6-.3.4.3 1.1.7.6z"/><path fill="#F15B29" d="M44 24.7c-3.3-1.7-7.5-3.5-10.7-.5-.4.4.2 1 .6.6 2.8-2.7 6.6-.9 9.6.6.5.3 1-.5.5-.7z"/><path fill="#F15B29" d="M34.6 25.5c2.3-1.6 5.1-1.3 7 .7.4.4 1-.2.6-.6-2.1-2.4-5.5-2.7-8.1-.9-.4.4 0 1.1.5.8z"/><path fill="#F15B29" d="M42 26.1c-2-.9-4.3-1.6-6.1 0-.4.4.2 1 .6.6 1.5-1.3 3.5-.5 5 .1.6.3 1.1-.5.5-.7zM49.9 23.6c3.9-8 15.1-9.1 19-.4.2.5 1 .1.8-.5-4.1-9.3-16.3-8.2-20.5.4-.4.6.4 1 .7.5z"/><path fill="#F15B29" d="M68.8 23.8c-1.2-3.6-4.3-5.3-8-5.6-4.5-.4-7.6 1.9-10.6 4.9-.4.4.2 1 .6.6 2.2-2.2 4.6-4.4 7.9-4.7 3.7-.4 7.9 1.1 9.2 4.9.3.7 1.1.4.9-.1z"/><path fill="#F15B29" d="M51.7 24.1c4.6-4.1 11.6-5 15.7.3.3.5 1.1 0 .8-.5-4.5-5.8-12.1-5-17.2-.5-.4.4.2 1 .7.7z"/><path fill="#F15B29" d="M67 24c-4.6-3-10-3.1-14.7-.3-.5.3 0 1.1.5.8 4.4-2.6 9.4-2.4 13.8.3.5.3.9-.5.4-.8z"/><path fill="#F15B29" d="M53.7 25c3.9-1.8 8.1-1.6 11.8.5.5.3 1-.5.5-.8-4-2.3-8.6-2.4-12.7-.5-.6.2-.1 1 .4.8z"/><path fill="#F15B29" d="M64 24.8c-3-1.2-6.2-1.1-9.2.1-.5.2-.1 1 .5.8 2.8-1.2 5.7-1.2 8.5-.1.5.3.7-.6.2-.8z"/><path fill="#F15B29" d="M55.6 26.4c2.2-.8 4.5-.6 6.5.6.5.3 1-.5.5-.8-2.2-1.3-4.8-1.6-7.2-.7-.6.2-.3 1.1.2.9z"/><path fill="#F15B29" d="M61 26.6c-1.5-.7-3.3-1.4-4.7-.3-.5.3 0 1.1.5.8 1.2-.9 2.6-.3 3.8.3.5.2.9-.6.4-.8zM70.6 23.8c1.2-3.3 3.1-7.4 7.3-7.1.6 0 .6-.9 0-.9-4.6-.4-6.8 4.1-8.1 7.8-.3.6.6.8.8.2z"/><path fill="#F15B29" d="M72.3 23.4c1.7-3 3.9-6.2 7.8-4.9.6.2.8-.7.2-.9-4.3-1.3-6.9 2-8.8 5.4-.3.4.5.9.8.4z"/><path fill="#F15B29" d="M73.8 24c1.9-2.3 5.2-5.7 8.2-3 .4.4 1.1-.3.6-.6-3.4-3-7.2.3-9.5 3-.4.4.3 1 .7.6z"/><path fill="#F15B29" d="M75.3 24.9c2.2-1.9 5.2-3.6 7.9-1.7.5.3.9-.4.5-.8-3.1-2.2-6.5-.3-9 1.8-.5.4.2 1 .6.7z"/><path fill="#F15B29" d="M76.3 26c2-1.6 4.5-2.1 7-1.3.6.2.8-.7.2-.9-2.8-.9-5.6-.3-7.9 1.6-.4.3.3 1 .7.6z"/><path fill="#F15B29" d="M77.6 27.4c1.7-1.1 3.6-1.2 5.4-.5.5.2.8-.6.2-.9-2-.9-4.3-.6-6.1.5-.5.4 0 1.2.5.9z"/><path fill="#F15B29" d="M78.3 28.8c.9-.6 2-.8 3.1-.5.6.2.8-.7.2-.9-1.3-.4-2.7-.2-3.8.6-.4.4.1 1.2.5.8z"/><path fill="#F15B29" d="M78.8 30c.5-.3 1-.4 1.5-.4.6 0 .6-.9 0-.9-.7 0-1.4.1-2 .5-.5.3 0 1.1.5.8zM78.8 31.6c.6 0 .6-.9 0-.9s-.6.9 0 .9z"/><path fill="#6F48A3" d="M40.1 13.4c6.1-1.7 12.1-1.6 18.2.1.6.2.8-.7.2-.9-6.2-1.7-12.5-1.8-18.7-.1-.5.2-.3 1 .3.9z"/><path fill="#6F48A3" d="M41.4 14.2c5-1.7 10.2-1.6 15.1.2.5.2.8-.7.2-.9-5.1-1.9-10.5-2-15.6-.2-.5.2-.3 1.1.3.9z"/><path fill="#6F48A3" d="M56.1 14.4c-4-1.5-8.1-1.6-12.2-.4-.6.2-.3 1 .2.9 3.9-1.2 7.9-1.1 11.7.4.6.1.8-.7.3-.9z"/><path fill="#6F48A3" d="M44.9 15.6c3-1.2 6.2-1.1 9.1.3.5.3 1-.5.5-.8-3.1-1.5-6.6-1.7-9.8-.4-.6.2-.4 1.1.2.9z"/><path fill="#6F48A3" d="M53.4 15.7c-2.3-1-4.9-1.1-7.3-.2-.5.2-.3 1.1.2.9 2.2-.8 4.4-.8 6.6.1.5.2 1-.6.5-.8z"/><path fill="#6F48A3" d="M46.9 17.2c1.8-.7 3.6-.7 5.3.1.5.2.8-.7.2-.9-1.9-.8-3.9-.8-5.8-.1-.5.3-.2 1.1.3.9z"/><path fill="#6F48A3" d="M51.8 17.3c-1.4-.7-2.9-.7-4.3-.1-.5.2-.1 1 .5.8 1.1-.5 2.3-.5 3.4.1.5.2.9-.6.4-.8z"/><path fill="#6F48A3" d="M48.6 18.9c.8-.4 1.7-.5 2.4-.1.5.2 1-.5.5-.8-1.1-.5-2.3-.5-3.4.1-.5.3 0 1 .5.8z"/><path fill="#6F48A3" d="M50.2 18.8c-.6-.3-1.3-.2-1.9.2-.5.3 0 1.1.5.8.4-.2.8-.3 1.2-.1.5.2.7-.7.2-.9z"/><path fill="#6F48A3" d="M49.2 20.6c.2-.1.3-.2.6-.2.6.1.8-.8.2-.9-.5-.1-.9 0-1.3.3-.5.4 0 1.2.5.8zM59.8 14.4c.5-1.6 1.9-2.5 3.6-2.3.6.1.6-.8 0-.9-2.1-.2-3.9 1-4.5 3-.1.5.7.8.9.2z"/><path fill="#6F48A3" d="M61.1 14.1c.7-.8 1.6-1.4 2.6-1.7.6-.2.3-1-.2-.9-1.2.4-2.2 1-3 2-.4.4.2 1.1.6.6z"/><path fill="#6F48A3" d="M62.6 14c.8-.9 1.7-1.9 3-2 .6 0 .6-.9 0-.9-1.6.1-2.7 1.1-3.7 2.3-.3.4.3 1 .7.6z"/><path fill="#6F48A3" d="M63.5 14.4c.9-.8 1.9-1.3 3.1-1.4.6 0 .6-.9 0-.9-1.4.1-2.7.6-3.8 1.6-.4.5.3 1.1.7.7z"/><path fill="#6F48A3" d="M64.7 15.7c1.3-1.5 3.1-2.5 5.1-2.7.6-.1.6-1 0-.9-2.3.3-4.3 1.3-5.8 3-.3.4.4 1.1.7.6z"/><path fill="#6F48A3" d="M66.3 16.3c1-1.5 2.8-2.2 4.6-2.1.6.1.6-.8 0-.9-2.1-.2-4.1.8-5.4 2.5-.3.5.5 1 .8.5z"/><path fill="#6F48A3" d="M67.5 17.3c1.3-1.2 2.9-2.7 4.8-2.3.6.1.8-.8.2-.9-2.3-.4-4.1 1-5.7 2.5-.4.5.2 1.1.7.7z"/><path fill="#6F48A3" d="M68.3 18.7c.7-1.3 2.1-1.6 3.4-1.8.6-.1.6-1 0-.9-1.6.2-3.4.6-4.2 2.2-.3.5.5 1 .8.5z"/><path fill="#6F48A3" d="M69 19.9c.3-.5.6-1.1 1.2-1.1s.6-.9 0-.9c-1 0-1.6.8-2 1.6-.2.5.6.9.8.4zM69.5 21.1c.1-.1.2-.2.4-.2.5-.3 0-1.1-.5-.8-.1.1-.2.2-.4.2-.5.3 0 1.1.5.8zM29.8 14.5c1.1 0 2.1.4 2.9 1.2.4.4 1-.2.6-.6-.9-1-2.2-1.5-3.5-1.4-.6 0-.6.9 0 .8zM34.3 14c-.6-.4-1.2-.7-1.8-.9-.6-.2-.8.7-.2.9.6.2 1.1.5 1.6.8.4.3.8-.5.4-.8z"/><path fill="#6F48A3" d="M33.8 13.7c.7.2 1.3.5 2 .7.5.2.8-.7.2-.9-.7-.2-1.3-.5-2-.7-.5-.1-.7.7-.2.9z"/><path fill="#6F48A3" d="M37.2 13.3c-.5-.4-1-.7-1.7-.8-.6-.1-.8.8-.2.9.5.1.9.2 1.3.5.4.4 1-.3.6-.6z"/><path fill="#009142" d="M18.4 35.1c.9-8.8 10.8-12.6 17.4-6.8.4.4 1.1-.3.6-.6-7.2-6.3-17.9-2.1-18.9 7.4 0 .6.9.6.9 0z"/><path fill="#009142" d="M36.3 28.4c-7.2-4.9-16.6-1.2-18.5 7.3-.1.6.7.8.9.2 1.8-8 10.4-11.4 17.2-6.8.4.4.9-.4.4-.7z"/><path fill="#009142" d="M18.9 36.8c2.8-5 7.5-10.8 13.9-8.2.5.2.8-.7.2-.9-6.8-2.7-12 3.3-14.9 8.7-.3.5.5.9.8.4z"/><path fill="#009142" d="M33.2 28.9c-4.7-.9-9.3 1-12 5-.3.5.4.9.8.5 2.5-3.6 6.7-5.3 11-4.5.5 0 .8-.9.2-1z"/><path fill="#009142" d="M22.1 34.6c1.8-4.5 5.9-7.3 10.8-7.1.6 0 .6-.9 0-.9-5.3-.1-9.8 2.9-11.6 7.8-.2.5.6.8.8.2z"/><path fill="#009142" d="M33.4 27.2c-4.9.3-9.3 2.3-12.7 5.8-.4.4.2 1 .6.6 3.3-3.3 7.4-5.2 12.1-5.5.6-.1.6-1 0-.9z"/><path fill="#009142" d="M18.8 34.7c2.1-5.7 7.5-8.9 13.6-8.1.6.1.6-.8 0-.9-6.4-.9-12.2 2.7-14.4 8.7-.2.6.6.8.8.3z"/><path fill="#009142" d="M33.6 27c-2.9-1.6-6.5-3.1-9.3-.5-.4.4.2 1 .6.6 2.4-2.3 5.7-.7 8.2.6.6.4 1-.4.5-.7zM21.2 28.9c.6 0 .6-.9 0-.9s-.6.9 0 .9z"/><path fill="#009142" d="M19.4 34.9c2-3.4 4.2-7 8.4-7.9.6-.1.3-1-.2-.9-4.4.9-6.8 4.7-8.9 8.3-.4.5.4 1 .7.5zM43.2 27.7c3-2.7 7-3 10.4-1 .5.3.9-.5.5-.8-3.8-2.3-8.2-1.9-11.5 1.1-.5.5.1 1.1.6.7z"/><path fill="#009142" d="M52.2 26.6c-2.2-1.6-5-1.6-7.1 0-.5.3 0 1.1.5.8 1.9-1.5 4.3-1.5 6.2 0 .4.3.9-.4.4-.8zM62.2 29.3c5.6-5.2 14.2-3.2 16.8 4.1.2.5 1.1.3.9-.2-2.8-7.9-12.2-10.2-18.3-4.5-.5.4.2 1 .6.6z"/><path fill="#009142" d="M64.2 29.8c5.2-4.2 10.9.4 14.5 4.2.4.4 1-.2.6-.6-4-4.3-10.3-8.7-15.8-4.2-.4.3.3 1 .7.6z"/><path fill="#009142" d="M77.3 33.4C73.1 28.9 67 28 61.6 30.8c-.5.3-.1 1 .5.8 5-2.6 10.7-1.7 14.6 2.5.4.3 1-.3.6-.7z"/><path fill="#009142" d="M64.1 33.1c4.1-2.9 9.2-2.3 12.4 1.5.4.4 1-.2.6-.6-3.5-4.1-9.1-4.8-13.5-1.7-.5.3 0 1.1.5.8z"/><path fill="#009142" d="M74.9 34.5c-3.5-2.2-7.8-4.3-11.4-1.3-.4.4.2 1 .6.6 3.3-2.7 7.3-.4 10.4 1.5.5.3.9-.5.4-.8z"/><path fill="#009142" d="M65.8 35c2.8-2.4 6.5-2.7 9.7-.9.5.3 1-.5.5-.8-3.6-2-7.7-1.7-10.7 1-.6.5.1 1.1.5.7z"/><path fill="#009142" d="M75.5 34.2c-3.4-1.4-6.7-3.2-10.5-2.3-.6.1-.3 1 .2.9 3.5-.8 6.6.9 9.8 2.2.6.2 1.1-.6.5-.8z"/><path fill="#009142" d="M65.7 34.6c3.1-1.5 6.6-1.5 9.8-.2.5.2 1-.6.5-.8-3.5-1.5-7.2-1.4-10.7.2-.6.2-.1 1 .4.8z"/><path fill="#009142" d="M65.7 33.3c3.9-1.8 8.2-1.6 12 .5.5.3 1-.5.5-.8-4-2.2-8.7-2.4-12.9-.5-.6.3-.1 1.1.4.8z"/><path fill="#009142" d="M78.4 33.6c-3.2-5.3-9.4-7.2-15-4.7-.5.2-.1 1 .5.8 5.2-2.3 10.9-.5 13.8 4.4.2.4 1 0 .7-.5z"/><path fill="#009142" d="M64.4 31.1c3.9-2.4 8.4-2.1 12 .6.5.3.9-.4.5-.8-3.9-2.9-8.8-3.1-12.9-.6-.5.4-.1 1.1.4.8z"/><path fill="#009142" d="M77.8 30.9c-4-3.2-8.9-4.3-13.8-3.1-.6.1-.3 1 .2.9 4.6-1.1 9.3-.1 13 2.8.4.4 1.1-.3.6-.6z"/><path fill="#009142" d="M63.7 29.4c2-1.7 4.3-3.6 7.2-3.1 2.1.4 3.6 2 4.9 3.6.4.4 1-.2.6-.6-1.6-1.8-3.3-3.7-5.8-3.9-3-.3-5.4 1.7-7.5 3.5-.4.2.2.8.6.5z"/><path fill="#009142" d="M76.3 29.6c-3.8-2-7.9-3.5-12-1.6-.5.2-.1 1 .5.8 3.8-1.7 7.7-.2 11.1 1.6.5.3.9-.5.4-.8z"/><path fill="#009142" d="M62.6 28.4c4.2-3 9.3-3.2 13.7-.4.5.3.9-.5.5-.8-4.6-3-10.1-2.8-14.6.4-.6.4-.1 1.2.4.8zM80 33.2c1-2.1 2.2-4.4 4.7-5.2.6-.2.3-1-.2-.9-2.7.8-4 3.2-5.2 5.6-.4.6.4 1 .7.5z"/><path fill="#009142" d="M80.8 32.7c.5-.9 1.2-1.8 2.1-2.4.5-.3 0-1.1-.5-.8-1 .8-1.8 1.7-2.4 2.8-.2.5.5.9.8.4z"/><path fill="#009142" d="M81.2 33.4c.7-.8 1.5-1.7 2.2-2.5.4-.4-.2-1.1-.6-.6-.7.8-1.5 1.7-2.2 2.5-.4.4.3 1 .6.6z"/><path fill="#009142" d="m81.6 33.6 2.1-1.8c.4-.4-.2-1-.6-.6L81 33c-.5.3.1.9.6.6zM66.2 36.3c2-2.5 5.3-3 7.8-.9.4.4 1.1-.3.6-.6-2.8-2.3-6.8-2-9.1.9-.3.4.4 1.1.7.6z"/><path fill="#009142" d="M74.1 35.5c-2.1-2.3-5.6-2.2-7.6.1-.4.4.3 1.1.6.6 1.7-2 4.5-2 6.4-.1.4.5 1-.2.6-.6z"/><path fill="#009142" d="M66.9 37.4c1.8-1.7 4.4-2.5 6.4-.6.4.4 1-.2.6-.6-2.3-2.3-5.5-1.4-7.6.6-.4.4.2 1 .6.6z"/><path fill="#009142" d="M72.7 36.6c-1.9-1-4.1-.7-5.6.9-.4.4.2 1 .6.6 1.2-1.2 3-1.5 4.5-.7.5.3 1-.5.5-.8z"/><path fill="#009142" d="M68.1 38.6c1-.6 2.2-1.2 3.3-.4.5.3.9-.5.5-.8-1.4-.9-2.9-.3-4.2.4-.5.3-.1 1.1.4.8z"/><path fill="#009142" d="M68.6 39.6c.6-.8 1.5-1.1 2.4-.7.5.2 1-.5.5-.8-1.3-.5-2.6-.3-3.5.8-.4.6.2 1.2.6.7z"/><path fill="#009142" d="M68.9 40.4c.4-.6 1.1-.9 1.7-.6.5.2 1-.5.5-.8-1.1-.5-2.3-.2-3 .9-.3.5.5 1 .8.5z"/><path fill="#009142" d="M69.8 41.1c.2-.2.5-.4.8-.5.5-.2.3-1.1-.2-.9-.4.2-.8.4-1.2.7-.4.4.2 1.1.6.7z"/><path fill="#48CFB1" d="M69.1 42.1c-.5-1.2-1.1-2.3-1.9-3.2-.8-.9-1.8-1.9-3-1.7-.6.1-.6 1 0 .9 1.1-.1 1.9.9 2.6 1.7.6.8 1.1 1.7 1.5 2.6.1.4 1 .2.8-.3z"/><path fill="#48CFB1" d="M64.2 39.7c1.7.8 2.8 2.3 3.3 4.1.1.6 1 .3.9-.2-.5-2-1.8-3.7-3.7-4.6-.5-.4-1 .4-.5.7z"/><path fill="#48CFB1" d="M67.4 43.7c-.3-1.7-1.5-3-3.2-3.5-.6-.2-.8.7-.2.9 1.3.4 2.3 1.5 2.5 2.9.1.5 1 .3.9-.3z"/><path fill="#48CFB1" d="M63.8 42.7c.6.4 1.1 1 1.4 1.7.2.5 1.1.3.9-.2-.3-.9-.9-1.7-1.8-2.3-.5-.3-.9.5-.5.8z"/><path fill="#48CFB1" d="M65.5 44.4c-.5-.9-1.4-1.5-2.4-1.8-.6-.2-.8.7-.2.9.8.2 1.4.7 1.8 1.4.3.5 1.1 0 .8-.5z"/><path fill="#48CFB1" d="M62.6 44.4c.5.4 1 .8 1.4 1.2.4.4 1-.2.6-.6-.5-.5-1-1-1.6-1.4-.4-.3-.9.4-.4.8zM63.5 45.3c-.5-.5-1-.8-1.7-.8-.6 0-.6.9 0 .9.4 0 .8.2 1.1.5.4.4 1-.2.6-.6z"/><path fill="#48CFB1" d="M61.4 45.9c.3.2.4.4.3.8-.1.6.8.6.9 0 .1-.6-.3-1.2-.8-1.5-.4-.4-.9.4-.4.7z"/><path fill="#48CFB1" d="M61.9 47c-.3-.5-.7-.8-1.2-.9-.6-.1-.8.8-.2.9.3.1.5.2.7.5.2.4 1 0 .7-.5z"/><path fill="#48CFB1" d="M59.9 47.3c.2.3.3.6.3.9 0 .6.9.6.9 0 0-.5-.1-1-.4-1.4-.4-.4-1.1 0-.8.5z"/><path fill="#48CFB1" d="M60.3 48.4c-.3-.5-.7-.7-1.2-.9-.6-.2-.8.7-.2.9.3.1.5.2.6.5.3.5 1.1 0 .8-.5z"/><path fill="#48CFB1" d="M58.5 48.8c.2.2.5.5.4.9-.1.6.8.8.9.2.1-.7-.2-1.3-.7-1.8-.4-.4-1 .3-.6.7z"/><path fill="#48CFB1" d="M59.3 49.9c-.2-.3-.5-.6-.8-.8-.5-.4-1.1.3-.6.6.3.2.6.5.8.8.3.5 1-.1.6-.6z"/><path fill="#48CFB1" d="M57.3 49.7c.3.4.6.9.8 1.4.2.5 1 .1.8-.5-.2-.5-.5-1-.8-1.4-.4-.4-1.2 0-.8.5zM70.5 43.7c2-4.6 6.3-7.8 11.3-8.2.6 0 .6-.9 0-.9-5.4.4-10 3.7-12.1 8.6-.2.6.6 1 .8.5z"/><path fill="#48CFB1" d="M71.4 44c2.1-2.8 4.3-5.7 7.8-6.8.6-.2.3-1-.2-.9-3.7 1.1-6.1 4.1-8.4 7.2-.3.5.5 1 .8.5z"/><path fill="#48CFB1" d="M79.5 37.2c-2.6 1.5-6.3 3.1-7.3 6.1-.2.6.7.8.9.2.9-2.8 4.5-4.3 6.9-5.6.4-.2 0-.9-.5-.7z"/><path fill="#48CFB1" d="M74.9 42.9c1-1.4 2.4-2.6 4-3.3.5-.2.1-1-.5-.8-1.7.8-3.2 2-4.3 3.6-.3.5.5 1 .8.5z"/><path fill="#48CFB1" d="M77.8 40.3c-1.6 1.1-3.2 2.4-4.6 3.8-.4.4.2 1 .6.6 1.4-1.3 2.9-2.5 4.5-3.6.4-.3 0-1.1-.5-.8z"/><path fill="#A8DD5B" d="M59.6 53.5c2-5.1 8.6-9.6 14-7.2.5.2 1-.5.5-.8-6-2.6-13.1 2.1-15.3 7.8-.3.5.6.8.8.2z"/><path fill="#A8DD5B" d="M73.6 46.3c-2.6-1.5-5.1-.2-7.5 1.1-2.8 1.6-5.3 3.5-6.7 6.5-.2.5.5 1 .8.5 1.7-3.7 8.7-9.6 13-7.3.4.3.9-.5.4-.8z"/><path fill="#A8DD5B" d="M61.1 54.4c2.7-4.5 7.3-7 12.6-7 .6 0 .6-.9 0-.9-5.6-.1-10.4 2.6-13.3 7.4-.4.6.4 1 .7.5z"/><path fill="#A8DD5B" d="M62.4 54.2c2.5-4.1 6.6-6.4 11.4-6.3.6 0 .6-.9 0-.9-5.1-.1-9.6 2.4-12.2 6.8-.3.5.5.9.8.4z"/><path fill="#A8DD5B" d="M63.3 53.9c2.1-2.9 5.4-4.6 9-4.6.6 0 .6-.9 0-.9-3.9.1-7.4 1.9-9.8 5.1-.3.5.5.9.8.4z"/><path fill="#A8DD5B" d="M64.1 54.6c1.6-2 3.7-3.4 6.2-4 .6-.1.3-1-.2-.9-2.6.6-4.9 2.1-6.6 4.2-.4.5.3 1.2.6.7z"/><path fill="#A8DD5B" d="M65.1 55.1c.7-.8 1.5-1.6 2.4-2.3.5-.3 0-1.1-.5-.8-1 .7-1.8 1.5-2.6 2.4-.3.5.3 1.1.7.7zM58.8 54c-.8-1.6-1.7-3.2-3.5-3.6-.6-.2-.8.7-.2.9 1.5.4 2.3 1.9 3 3.2.2.5.9 0 .7-.5z"/><path fill="#A8DD5B" d="M57.6 54.1c-.3-1.2-1-2.1-2-2.8-.5-.3-.9.5-.5.8.8.5 1.3 1.3 1.6 2.3.2.4 1 .2.9-.3z"/><path fill="#A8DD5B" d="M56.4 54.4c-.3-.9-.9-1.8-1.7-2.4-.4-.4-1.1.3-.6.6.7.5 1.1 1.2 1.4 2 .2.6 1.1.3.9-.2zM53.4 53.9c.7.6 1.2 1.3 1.5 2.2.2.6 1 .3.9-.2-.3-1-.9-2-1.7-2.6-.5-.4-1.1.2-.7.6zM54 55.7c-.4-.5-.8-1-1.1-1.6-.3-.4-.5-.8-1-.9-.6-.1-.8.7-.2.9.3.1.6.7.8 1 .3.4.5.7.8 1.1.3.4 1.1-.1.7-.5zM50.9 55.7c.6.5 1.1 1.2 1.6 1.9.3.5 1.1 0 .8-.5-.5-.8-1-1.5-1.7-2.1-.5-.3-1.1.3-.7.7zM51.7 57.1c-.5-.5-1-1.1-1.4-1.6-.4-.4-1 .2-.6.6.5.5 1 1.1 1.4 1.6.4.5 1-.2.6-.6z"/><path fill="#A8DD5B" d="M49.3 56.6c.7.7 1.2 1.5 1.5 2.4.2.5 1.1.3.9-.2-.4-1.1-1-2-1.7-2.8-.5-.5-1.1.2-.7.6zM50.5 58.9c-.5-.7-1-1.4-1.5-2.2-.3-.5-1.1 0-.8.5.5.7 1 1.4 1.5 2.2.4.4 1.2 0 .8-.5z"/><path fill="#A8DD5B" d="M47.7 57.8c.7.9 1.3 1.9 1.9 2.9.3.5 1 .1.8-.5-.6-1.1-1.2-2.1-2-3.1-.4-.4-1 .2-.7.7z"/><path fill="#A8DD5B" d="M49.6 60.8c-.5-1.3-1.1-2.5-1.8-3.7-.3-.5-1.1 0-.8.5.6 1.1 1.2 2.3 1.7 3.5.2.5 1.1.2.9-.3z"/><path fill="#FF36E2" d="M50 63.5c2.1-5.8 8-8.6 13.8-6.6.5.2.8-.7.2-.9-6.3-2.2-12.7.9-15 7.2 0 .6.8.9 1 .3z"/><path fill="#FF36E2" d="M63.6 57c-5.7-1.6-11.2 1.1-13.5 6.5-.2.5.7.8.9.2 2.1-5 7.2-7.4 12.4-5.9.5.2.7-.6.2-.8z"/><path fill="#FF36E2" d="M51.6 64.2c2.3-3.3 5.6-6.4 9.9-5.4.6.1.8-.7.2-.9-4.8-1-8.4 2.1-10.9 5.8-.3.5.4 1 .8.5z"/><path fill="#FF36E2" d="M61.5 58.7c-3.8-.3-7.3 1.4-9.6 4.5-.3.5.4.9.8.5 2-2.8 5.3-4.3 8.8-4.1.6 0 .6-.9 0-.9z"/><path fill="#FF36E2" d="M53.4 64.5c1.6-2 3.5-4.1 6.3-3.9.6 0 .6-.9 0-.9-3-.2-5.1 2-6.9 4.1-.4.5.3 1.2.6.7zM49.1 63.2c-.9-3.3-4.2-5.2-7.5-4.3-.6.1-.3 1 .2.9 2.9-.8 5.6.8 6.4 3.6.2.6 1.1.4.9-.2z"/><path fill="#FF36E2" d="M33.9 65.6c3.8-3.5 9.5-6.4 14.1-2.3.4.4 1.1-.3.6-.6-4.9-4.4-11.1-1.5-15.3 2.3-.5.3.2 1 .6.6z"/><path fill="#FF36E2" d="M47.6 63.4c-3-2.8-7.1-3.2-10.6-1.1-.5.3 0 1.1.5.8 3.2-1.9 6.8-1.6 9.5 1 .4.3 1.1-.3.6-.7z"/><path fill="#FF36E2" d="M35.1 66c3.2-2.6 7.3-3.2 11.1-1.8.5.2.8-.7.2-.9-4.2-1.6-8.5-.9-12 2-.4.4.2 1 .7.7z"/><path fill="#FF36E2" d="M45.1 64.1c-2.9-.8-5.9-3.5-8.9-1.4-.5.3 0 1.1.5.8 2.6-1.9 5.6.8 8.2 1.5.5.1.7-.8.2-.9z"/><path fill="#FF36E2" d="M35.2 66.4c2.7-2.5 6.3-3 9.6-1.5.5.2 1-.5.5-.8-3.7-1.7-7.7-1.1-10.7 1.7-.4.3.2 1 .6.6z"/><path fill="#FF36E2" d="M43.5 65.1c-2.5-1.8-4.8-2.5-7.9-1.7-.6.2-.3 1 .2.9 2.8-.8 4.9 0 7.2 1.6.5.3.9-.4.5-.8z"/><path fill="#FF36E2" d="M36.3 66.7c1.9-1.7 4.3-2.4 6.9-2.2.6.1.6-.8 0-.9-2.8-.3-5.4.6-7.5 2.4-.5.5.1 1.1.6.7z"/><path fill="#FF36E2" d="M37 67.5c2.2-1.8 4.9-2.6 7.7-2.3.6.1.6-.8 0-.9-3.1-.3-6 .6-8.4 2.6-.4.4.3 1 .7.6z"/><path fill="#FF36E2" d="M37 68.4c1.5-1.2 3.3-1.6 5.1-1.4.6.1.6-.8 0-.9-2.1-.2-4.1.4-5.8 1.7-.4.3.3 1 .7.6z"/><path fill="#FF36E2" d="M38 69c.9-.6 2-.8 3.1-.7.6.1.6-.8 0-.9-1.2-.1-2.5.2-3.5.8-.5.4-.1 1.2.4.8zM38.3 70.3c.5-.4 1.1-.5 1.7-.4.6.1.6-.8 0-.9-.8-.1-1.6.1-2.2.5-.5.3 0 1.1.5.8z"/><path fill="#FF36E2" d="M38.3 71.6c.3-.2.7-.4 1-.5.5-.3.1-1.1-.5-.8-.3.2-.7.4-1 .5-.5.3 0 1.1.5.8zM42.6 65.5c-1.6-1.6-4.6-3.7-6.9-2.7-.5.2-.3 1.1.2.9 2-.8 4.7 1.1 6 2.5.5.4 1.2-.2.7-.7z"/><path fill="#FF36E2" d="M41.3 66c-1.7-1.3-4.4-2.9-6.6-2.3-.6.1-.3 1 .2.9 1.9-.5 4.3 1 5.7 2.1.5.3 1.2-.3.7-.7zM45.8 63.9c-1.5-2.3-4-3.4-6.7-3-.6.1-.3 1 .2.9 2.3-.4 4.4.6 5.6 2.5.4.6 1.2.1.9-.4zM47.3 63.1c-.8-2.1-2.6-3.6-4.9-3.9-.6-.1-.8.8-.2.9 1.9.3 3.5 1.5 4.2 3.3.3.4 1.1.2.9-.3z"/><path fill="#FFBF41" d="M38.6 74.8c-.4-4.7-3.7-8.4-8.4-9.3-.6-.1-.8.8-.2.9 4.3.8 7.3 4.1 7.7 8.4 0 .6.9.6.9 0z"/><path fill="#FFBF41" d="M29 67.8c4.1.4 7.2 3.4 7.8 7.5.1.6 1 .3.9-.2-.7-4.5-4.2-7.7-8.7-8.1-.6-.2-.6.7 0 .8z"/><path fill="#FFBF41" d="M36.6 74.9c-2.3-4.7-6.8-7.4-12-7.2-.6 0-.6.9 0 .9 4.9-.2 9.1 2.3 11.2 6.8.3.4 1.1 0 .8-.5z"/><path fill="#FFBF41" d="M24 69.4c4.7 0 8.8 2.3 11.2 6.3.3.5 1.1 0 .8-.5-2.6-4.3-7-6.8-12-6.8-.6.1-.6 1 0 1z"/><path fill="#FFBF41" d="M33.9 75.4c-3.2-4.5-8.3-6.5-13.7-5.5-.6.1-.3 1 .2.9 5-.9 9.7 1 12.7 5.1.3.4 1.1-.1.8-.5z"/><path fill="#FFBF41" d="M19.5 72.4c5.1-2 10.4-.2 13 4.7.3.5 1.1.1.8-.5-2.8-5.2-8.6-7.3-14.1-5.1-.4.3-.2 1.2.3.9z"/><path fill="#FFBF41" d="M32 76.9c-2.8-3.8-7.5-5.6-12.1-4.6-.6.1-.3 1 .2.9 4.2-.9 8.5.7 11.1 4.2.3.4 1.1-.1.8-.5z"/><path fill="#FFBF41" d="M21 74.8c3.5-1.5 7.4-.5 9.6 2.7.3.5 1.1 0 .8-.5-2.5-3.6-6.8-4.8-10.8-3-.5.3-.1 1 .4.8z"/><path fill="#FFBF41" d="M30.7 78.2c-2-2.1-4.7-3.1-7.6-2.7-.6.1-.6 1 0 .9 2.6-.3 5.1.5 7 2.5.3.4 1-.2.6-.7z"/><path fill="#FFBF41" d="M23.4 75.2c2.8-.6 5.6.3 7.5 2.4.4.4 1-.2.6-.6-2.1-2.4-5.2-3.4-8.3-2.7-.6.1-.3 1 .2.9z"/><path fill="#FFBF41" d="M25.7 77.7c1.7-.2 3.3.4 4.2 1.8.3.5 1.1 0 .8-.5-1.1-1.6-3-2.6-5-2.3-.5.2-.5 1.1 0 1z"/><path fill="#FFBF41" d="M29.7 79.5c-1-.8-2.2-1.3-3.5-1.6-.6-.1-.8.7-.2.9 1.2.3 2.3.8 3.2 1.5.5.4.9-.4.5-.8z"/><path fill="#FFBF41" d="M27.7 80.8c.7 0 1.3.3 1.8.8.4.4 1-.2.6-.6-.6-.7-1.5-1.1-2.4-1.1-.6 0-.6.9 0 .9zM39.6 74.9c1.4-4.5 4.4-10.8 10.3-9 .6.2.8-.7.2-.9-6.4-2-9.9 4.6-11.4 9.6-.1.6.8.8.9.3z"/><path fill="#FFBF41" d="M40.9 74.3c.4-1.8 1.2-3.3 2.4-4.7.9-1 3-3.3 4.5-2.7.5.2.8-.7.2-.9-1.7-.7-3.6 1.2-4.7 2.3-1.6 1.6-2.8 3.5-3.3 5.8-.1.6.7.8.9.2z"/><path fill="#FFBF41" d="M41.5 74.8c1.9-2.5 3.7-7 7.6-6.4.6.1.8-.8.2-.9-4.5-.7-6.3 3.8-8.6 6.8-.4.5.4.9.8.5z"/><path fill="#FFBF41" d="M42.6 75.4c1.3-4.8 5.9-7.5 10.8-6.3.6.1.8-.7.2-.9-5.3-1.3-10.4 1.6-11.9 6.9-.1.6.7.8.9.3z"/><path fill="#FFBF41" d="M43.8 75.7c1.8-4.8 6.5-7.2 11.4-5.9.6.1.8-.7.2-.9-5.4-1.4-10.6 1.3-12.5 6.5-.2.6.7.8.9.3z"/><path fill="#FFBF41" d="M44.8 76.3c4-5 9.7-7.2 16.1-6.4.6.1.6-.8 0-.9-6.5-.9-12.6 1.5-16.7 6.7-.4.4.2 1.1.6.6z"/><path fill="#FFBF41" d="M45.6 76.9c3-3.6 7.1-6.6 12.1-5.2.6.2.8-.7.2-.9-5.2-1.5-9.7 1.5-13 5.4-.3.5.4 1.1.7.7z"/><path fill="#FFBF41" d="M46.5 77.5c2.9-4.3 7.5-6.5 12.7-5.9.6.1.6-.8 0-.9-5.5-.6-10.5 1.7-13.5 6.3-.3.5.5 1 .8.5z"/><path fill="#FFBF41" d="M47.3 78.4c2.4-4.2 6.7-6.4 11.5-5.8.6.1.8-.8.2-.9-5.2-.7-10 1.6-12.6 6.2-.2.6.6 1 .9.5z"/><path fill="#FFBF41" d="M47.8 79.3c2.6-3.5 6.2-6.8 10.8-5.4.6.2.8-.7.2-.9-5.1-1.4-9 2.1-11.9 5.8-.2.5.6 1 .9.5z"/><path fill="#FFBF41" d="M48.3 80.3c2.3-3.5 6-5.5 10.2-5.6.6 0 .6-.9 0-.9-4.5 0-8.5 2.2-11 6-.3.5.4 1 .8.5z"/><path fill="#FFBF41" d="M56.5 74.6c-3.7 1.4-7.7 3.1-8.7 7.3-.1.6.7.8.9.2 1-3.8 4.7-5.4 8.1-6.7.4-.2.2-1-.3-.8zM60 74.7c1-2.4 2.2-5.2 5.1-5.8.6-.1.3-1-.2-.9-3.1.8-4.5 3.6-5.6 6.3-.3.5.5.9.7.4z"/><path fill="#FFBF41" d="M61.2 74.6c1.7-2.8 4.2-4.9 7.4-5.8 3.8-1.1 10-.4 9.7 4.9 0 .6.9.6.9 0 .3-4.3-3.7-6.4-7.6-6.3-4.7.1-8.8 2.8-11.2 6.7-.3.5.5 1 .8.5z"/><path fill="#FFBF41" d="M78.3 74.2c-.2-3.9-3.6-6.1-7.3-6-4.3.1-7.9 2.6-10.2 6.1-.3.5.5.9.8.5 1.6-2.5 3.8-4.4 6.7-5.2 3.7-1.1 8.9-.1 9.2 4.7-.1.4.8.4.8-.1z"/><path fill="#FFBF41" d="M62.3 74.7c3.5-5 11.6-7.1 14.4-.3.2.5 1 .1.8-.5-3.1-7.4-12.2-5.2-16 .3-.3.5.4 1 .8.5z"/><path fill="#FFBF41" d="M76.7 75c-.4-2.8-3-4.1-5.6-4.3-3.6-.4-6.8 1.2-9 4-.4.5.3 1.1.6.6 1.5-2 3.5-3.3 6-3.7 2.7-.4 6.5.3 7 3.6.2.6 1.1.4 1-.2z"/><path fill="#FFBF41" d="M63.1 76c3.6-3 8.9-4.8 12.5-.7.4.4 1-.2.6-.6-3.9-4.5-9.9-2.6-13.8.7-.3.3.3.9.7.6z"/><path fill="#FFBF41" d="M74.7 75.4c-3.3-1.5-6.9-1.3-10.1.5-.5.3-.1 1.1.5.8 2.9-1.6 6.2-1.8 9.2-.5.4.2.9-.6.4-.8z"/><path fill="#FFBF41" d="M64.6 77.3c2.1-.7 6.7-1.6 8.5.3.4.4 1-.2.6-.6-2-2.3-6.8-1.4-9.3-.6-.5.2-.3 1 .2.9z"/><path fill="#FFBF41" d="M71.4 77.2c-1.7-.5-3.4-.3-4.9.4-.5.3-.1 1 .5.8 1.3-.7 2.8-.8 4.2-.3.5.1.7-.7.2-.9z"/><path fill="#FFBF41" d="M67.5 79.2c1-.5 2.1-.4 3 .2.5.3.9-.4.5-.8-1.2-.8-2.6-.9-3.9-.2-.5.3-.1 1.1.4.8z"/><path fill="#FFBF41" d="M69.6 79.6c-.5-.1-1-.2-1.5-.2-.6-.1-.8.8-.2.9.5.1 1 .2 1.5.2s.8-.8.2-.9z"/><path fill="#FFBF41" d="M68.4 81.2h1.9c.6 0 .6-.9 0-.9h-1.9c-.5 0-.5.9 0 .9zM80 74.5c.7-1 1-4 2.7-3.5.6.2.8-.7.2-.9-2.5-.7-2.8 2.5-3.8 3.9-.2.5.6 1 .9.5z"/><path fill="#FFBF41" d="M81.2 74c.1-.3.3-.6.5-.9.1-.1.2-.3.3-.4 0-.1.1-.1.1-.2.1-.1.1-.1-.1-.1.5.2 1-.5.5-.8-1-.5-1.7 1.2-2.1 1.9-.3.5.5 1 .8.5z"/><path fill="#FFBF41" d="M81.8 74.5c.4-.3.9-.7 1.3-1 .5-.3 0-1.1-.5-.8-.4.3-.9.7-1.3 1-.4.4.1 1.2.5.8z"/><path fill="#FF36E2" d="M79.6 70.6c.4-.1.8-.2 1.2-.2.6 0 .6-.9 0-.9-.5 0-1 0-1.5.2s-.2 1.1.3.9zM78.7 69.2c.8-.3 1.6-.2 2.4 0 .5.2.8-.7.2-.9-.9-.3-2-.3-2.9 0-.5.2-.3 1.1.3.9z"/><path fill="#FF36E2" d="M78.6 68.4c1-.8 2.3-1 3.5-.4.5.2 1-.5.5-.8-1.5-.7-3.1-.5-4.4.4-.6.3-.1 1.1.4.8z"/><path fill="#FF36E2" d="M78.2 67.9c.8-.4 1.6-.6 2.5-.8.6-.1.3-1-.2-.9-.9.2-1.8.5-2.7.9-.6.3-.2 1 .4.8z"/><path fill="#FF4577" d="M20.6 77.1c1.6.4 2.6 1.6 3.5 2.9 1 1.3 1.9 2.6 2.5 4.1.2.5 1.1.3.9-.2-.6-1.8-1.7-3.3-2.9-4.8-1-1.3-2.1-2.4-3.8-2.9-.5-.1-.7.8-.2.9z"/><path fill="#FF4577" d="M26 84.2c-.9-1.7-1.7-3.4-2.7-5-.5-.8-1.1-1.8-2.2-1.4-.5.2-.3 1.1.2.9 1.1-.4 3.4 5.1 3.9 5.9.3.6 1.1.1.8-.4z"/><path fill="#FF4577" d="M20.9 81c1.7.9 2.8 2.4 3.1 4.2.1.6 1 .3.9-.2-.4-2-1.7-3.8-3.5-4.8-.5-.2-1 .5-.5.8z"/><path fill="#FF4577" d="M24.6 83.3c-.6-1.1-1.2-2.3-1.6-3.5-.3-.8-.5-1.4-1.2-1.9-.5-.3-.9.5-.5.8.7.5.9 1.7 1.2 2.5.4.9.8 1.8 1.3 2.6.3.5 1.1 0 .8-.5zM29.7 83.4c1.2-4.6 5.7-6.9 10.3-5.9 3.4.7 6.1 3 8.3 5.7.4.4 1-.2.6-.6-3-3.7-7.3-6.7-12.3-6.1-3.8.4-6.8 3-7.8 6.7-.1.6.8.8.9.2z"/><path fill="#FF4577" d="M47.1 83.2c-3.8-7.2-12.9-5.8-17.4-.2-.4.4.3 1.1.6.6 4.1-5.1 12.4-6.8 16 .1.3.5 1 0 .8-.5z"/><path fill="#FF4577" d="M31.2 84.6c1.6-2 3.5-4.3 6.2-4.9 3.1-.7 5.5 1.6 7.5 3.5.4.4 1.1-.2.6-.6-2-2-4.4-4.1-7.5-3.9-3.3.2-5.6 2.9-7.5 5.3-.3.4.3 1.1.7.6z"/><path fill="#FF4577" d="M43.5 83.2c-1.9-1.2-3.7-2.2-6.1-1.9-2 .3-3.9 1.2-5 2.9-.3.5.5.9.8.5 1-1.6 3.2-2.5 5.1-2.5 1.7-.2 3.3.8 4.7 1.7.5.3 1-.4.5-.7z"/><path fill="#FF4577" d="M34.1 83.7c1.1-4.3 7-3.5 9.3-.9.4.4 1-.2.6-.6-2.8-3.1-9.6-3.6-10.8 1.3-.1.5.8.7.9.2z"/><path fill="#FF4577" d="M43.6 82.1c-2-1.4-3.1-3.9-5.8-4.1-2.5-.2-4.5 1.5-6.3 3.1-.4.4.2 1 .6.6 1.9-1.7 4.6-3.9 7.3-2.2 1.4.9 2.3 2.5 3.7 3.4.5.3 1-.5.5-.8z"/><path fill="#FF4577" d="M31.1 82.3c2.2-6.6 9-3.6 13.1-.8.5.3.9-.5.5-.8-2.6-1.8-5.6-3.8-9-3.3-2.7.4-4.5 2.2-5.4 4.7-.3.5.6.7.8.2zM49.4 84.1c2.4-2.7 6.4-9 10.9-8 3.5.7 6.3 4.9 8.6 7.4.4.4 1-.2.6-.6-2.6-2.9-5.8-7.7-10.2-7.8-4.5-.1-7.9 5.6-10.4 8.5-.5.3.1 1 .5.5z"/><path fill="#FF4577" d="M68.3 82.7c-2.5-3-5.3-6-9.4-6-3.6 0-6.5 2.2-7.8 5.4-.2.5.6 1 .8.5 1.5-3.4 4.7-5.6 8.5-4.8 3.2.7 5.3 3.2 7.3 5.6.4.4 1-.2.6-.7z"/><path fill="#FF4577" d="M51.6 83.2c2-2.3 4.2-4.8 7.5-4.8 3.2 0 5.1 2.4 6.9 4.7.4.5 1-.2.6-.6-1.9-2.4-4.2-5-7.5-5.1-3.5 0-6.1 2.7-8.2 5.2-.3.4.3 1.1.7.6z"/><path fill="#FF4577" d="M65.8 83.4c-3-6.1-11.3-5.9-14 .3-.2.5.5 1 .8.5 2.4-5.6 9.8-5.8 12.5-.3.2.5 1 0 .7-.5z"/><path fill="#FF4577" d="M52.4 84.9c1.5-1.6 3.1-3.4 5.3-4 3.1-.8 4.9 1.3 6.2 3.7.3.5 1.1.1.8-.5-1.2-2.2-2.7-4.4-5.6-4.3-3.1 0-5.4 2.3-7.3 4.4-.5.4.2 1.1.6.7z"/><path fill="#FF4577" d="M63.9 83.7c-3-2.8-7.4-3.3-10.1.1-.4.4.3 1.1.6.6 2.4-3 6.2-2.5 8.9-.1.4.5 1-.2.6-.6z"/><path fill="#FF4577" d="M55.4 84.7c1.3-.8 3.1-1.8 4.5-.7.4.4 1.1-.3.6-.6-1.8-1.4-3.9-.5-5.6.5-.5.4 0 1.1.5.8zM70.1 83.4c2.9-4.1 8.1-9 13.3-5.2.5.3.9-.4.5-.8-5.6-4.1-11.3 1.1-14.5 5.5-.5.5.3.9.7.5z"/><path fill="#FF4577" d="M82.9 77.7c-5.1-2.1-8.9 2.4-11.6 6-.3.5.4.9.8.5 2.4-3.4 5.9-7.5 10.6-5.6.5.2.7-.6.2-.9z"/><path fill="#FF4577" d="M72.4 84.4c2.3-4.1 6.7-6 11.3-5 .6.1.8-.7.2-.9-5-1.2-9.8.9-12.3 5.4-.2.5.5 1 .8.5z"/><path fill="#FF4577" d="M82.8 80.2c-3.5-2-6.1 2.2-9 3.5-.5.2-.1 1 .5.8 2.5-1.1 5.1-5.1 8.1-3.5.4.3.9-.5.4-.8z"/><path fill="#FF4577" d="M75.8 84.6c1.8-1.5 4.2-2.1 6.5-1.5.6.1.8-.7.2-.9-2.6-.7-5.3 0-7.4 1.7-.4.5.2 1.1.7.7z"/><path fill="#FF4577" d="M81.6 82.8c-1.5-.5-3.1-.5-4.7-.2-.6.1-.3 1 .2.9 1.4-.4 2.8-.3 4.2.2.6.1.8-.7.3-.9zM71.9 83.9c1.1-4 4.8-6.4 9-5.8.6.1.8-.8.2-.9-4.6-.7-8.8 1.9-10.1 6.4-.1.6.8.8.9.3z"/><path fill="#FF4577" d="M81.3 78.1c-2.7 1.3-5.1 3-7.4 4.9-.4.4.2 1 .6.6 2.2-1.9 4.6-3.5 7.2-4.7.6-.3.1-1-.4-.8z"/><path fill="#FF4577" d="M74.8 84.2c2.4-2.7 5.8-4 9.4-3.6.6.1.6-.8 0-.9-3.8-.4-7.5 1-10 3.9-.4.4.2 1.1.6.6z"/><path d="M18.3 33.3c2.4-9.6 14.3-12 20.1-3.9.3.5 1.1 0 .8-.5-6.2-8.6-19.2-6.2-21.7 4.2-.2.5.6.8.8.2zM41.9 27.7c4.1-4.2 10.3-4.1 14.3.1.4.4 1-.2.6-.6-4.4-4.6-11.2-4.6-15.6-.1-.4.4.3 1 .7.6zM60.9 28.3c3.4-2.3 7.6-4.7 11.8-3.3 4.2 1.4 5.2 5.8 6.1 9.5.1.6 1 .3.9-.2-.9-3.7-2-8-5.7-9.8-4.7-2.2-9.6.4-13.5 3-.5.4 0 1.2.4.8zM20.5 75.4c4.3.6 6.3 4.7 7.8 8.3.2.5 1.1.3.9-.2-1.6-3.9-3.8-8.3-8.5-9-.5-.1-.7.8-.2.9z"/><path d="M29.1 82.8c1.6-4.1 5.1-7 9.6-6.9 4.3 0 9 2.6 9.4 7.2 0 .6.9.6.9 0-.4-4.7-4.5-7.5-9-8-5.4-.6-9.8 2.6-11.7 7.5-.3.5.6.7.8.2z"/><path d="M49.5 82.9c1.8-4.6 5.1-7.8 10.4-7.2 4.5.5 7.7 3.6 9.2 7.8.2.5 1.1.3.9-.2-1.8-4.6-5.5-8.3-10.7-8.5-5.4-.3-8.8 3.3-10.7 8-.2.4.7.6.9.1z"/><path d="M69.8 82.5c2.6-4.9 7.5-8.4 13.2-6.6.6.2.8-.7.2-.9-6-2-11.4 1.8-14.2 7-.2.5.5 1 .8.5z"/><path d="M79.7 74.7c.2-2.5 1.4-4.8 3.5-6.3.5-.3 0-1.1-.5-.8-2.3 1.7-3.7 4.2-3.9 7.1-.1.5.8.5.9 0zM59.3 74.5c.1-2.4 1.2-4.5 3.2-5.7.5-.3 0-1.1-.5-.8-2.3 1.4-3.6 3.8-3.7 6.5.1.6 1 .6 1 0z"/><path d="M75.9 67.8c1.5 1.2 2.6 2.6 3.4 4.4.2.5 1.1.3.9-.2-.8-1.9-2-3.5-3.6-4.8-.5-.4-1.1.2-.7.6zM39 75.1c0-6.7 5.9-11.5 12.5-10.2.6.1.8-.7.2-.9-7.2-1.5-13.6 3.7-13.6 11 0 .7.9.7.9.1z"/><path d="M32.1 65.8c3 1.1 5.2 3.6 6 6.6.1.6 1 .3.9-.2-.9-3.4-3.3-6.1-6.6-7.3-.6-.2-.8.7-.3.9zM45.3 58.4c2.4.9 3.6 3.2 3.3 5.7-.1.6.8.6.9 0 .3-2.9-1.3-5.5-4-6.5-.5-.2-.8.6-.2.8z"/><path d="M49.6 62.9c.6 0 .6-.9 0-.9s-.6.9 0 .9z"/><path d="M49.8 62.6c2.3-5.9 8.8-9.1 14.6-6.3.5.3 1-.5.5-.8-6.3-3.2-13.3.3-15.9 6.8-.2.6.6.8.8.3z"/><path d="M56.7 50.5c1 1 1.6 2.2 1.7 3.5.1.6 1 .6.9 0-.2-1.6-.8-3-2-4.2-.3-.4-1 .3-.6.7z"/><path d="M59.2 52.3c2.1-6.4 8.7-9.4 14.9-6.8.5.2 1-.6.5-.8-6.7-2.9-14 .4-16.3 7.3-.1.6.8.9.9.3z"/><path d="M69.5 43.8c2.1-5 6.1-9.4 12-9.1.6 0 .6-.9 0-.9-6.2-.4-10.5 4.3-12.8 9.5-.2.6.6 1 .8.5z"/><path d="M65.4 37.1c1.9 1.3 3.3 3.3 3.9 5.5.2.6 1 .3.9-.2-.7-2.5-2.2-4.6-4.3-6-.6-.5-1 .3-.5.7zM69.7 23.9c.5-3.4 1.4-7.7 5.4-8.3.6-.1.3-.9-.2-.9-4.4.6-5.5 5.2-6.1 8.9 0 .6.8.8.9.3zM79.5 32.7c.6-2.4 1.9-4.5 3.9-6 .5-.3 0-1.1-.5-.8-2.2 1.6-3.7 3.9-4.3 6.5-.1.6.8.9.9.3z"/><path d="M49.1 23.6c2.6-9.8 15.6-12.1 19.6-1.7.2.5 1.1.3.9-.2-4.2-11-18.4-9-21.3 1.7-.2.5.6.8.8.2z"/><path d="M59.2 14.5c0-1.4.8-2.5 2-3 .5-.2.3-1.1-.2-.9-1.7.6-2.7 2.1-2.7 3.9 0 .5.9.5.9 0zM28.6 23.6c1.4-4.3 3.3-8.4 8.3-9 5.1-.7 10 1.6 11.6 6.7.2.5 1 .3.9-.2-1.7-5.3-6.5-7.8-11.9-7.5-5.7.3-8.2 4.9-9.7 9.8-.2.5.6.8.8.2z"/><path d="M24 16.8c2.2.7 3.9 2.4 4.6 4.5.2.5 1.1.3.9-.2-.8-2.5-2.7-4.3-5.2-5.2-.6-.1-.8.7-.3.9zM38.5 13.9c.3-.4.7-.9 1-1.3.4-.5-.4-.9-.8-.5-.3.4-.7.9-1 1.3-.3.5.5 1 .8.5z"/><path d="M37.1 13.2c.2.3.5.6.7.9.4.4 1-.2.6-.6-.2-.3-.5-.6-.7-.9-.3-.4-.9.2-.6.6z"/><path d="M14.7 20.5c9.9-3.9 20-7.2 30.6-8.4 10.1-1.1 24-.8 32.3 5.9 10.9 8.8.2 22.2-6.2 29.9-6.7 8-14.3 15.5-24.9 17.6-1.9.4-1.1 3.3.8 2.9C59.7 66 68.2 56.7 75.8 47.3c5.9-7.3 13-17.6 7.6-27.2-5.3-9.5-20-11.3-29.8-11.4-13.8-.2-27.1 4-39.7 8.9-1.8.7-1 3.6.8 2.9z"/><path d="M47 69.1c11.7 1.1 23.3.2 34.7-2.5 1.9-.4 1.1-3.3-.8-2.9-11.2 2.6-22.5 3.4-33.9 2.4-1.9-.2-1.9 2.8 0 3z"/><path d="M81.7 66.2c.1 6.2.3 12.4.7 18.6.1 1.9 3.1 1.9 3 0-.4-6.2-.6-12.4-.7-18.6 0-1.9-3-1.9-3 0z"/><path d="M20.4 87.6c21-4.2 42.4.6 63.6-1.9 1.9-.2 1.9-3.2 0-3-21.4 2.5-43.1-2.3-64.4 2-1.9.4-1.1 3.3.8 2.9z"/><path d="M17.4 70.9c1.2 5.6 1.5 11.2 1 17-.2 1.9 2.8 1.9 3 0 .5-6 .1-11.9-1.2-17.8-.3-1.9-3.2-1.1-2.8.8z"/><path d="M19.3 38.7c5.7-6 15.1-7.8 23-9 4.7-.7 10-1.4 14.7-.5 7.1 1.4 7.1 7.9 3.9 13-4.2 6.8-12.2 11.7-19.1 15.5-7.4 4.1-15.3 7.2-23.1 10.4-1.8.7-1 3.6.8 2.9 10.4-4.1 20.9-8.3 30.2-14.5 7.1-4.7 17-12 16.4-21.7-.6-9.8-12.5-9.4-19.6-8.7-9.9.9-22.1 2.9-29.3 10.4-1.4 1.5.7 3.6 2.1 2.2z"/><path d="M12.6 20.7c1.7 5.6 2.7 11.3 3.2 17.2.2 1.9 3.2 1.9 3 0-.5-6.1-1.6-12.1-3.3-17.9-.5-1.9-3.4-1.2-2.9.7z"/></svg>